<?xml version="1.0" encoding="utf-8" standalone="no"?>
<!DOCTYPE svg PUBLIC "-//W3C//DTD SVG 1.1//EN"
  "http://www.w3.org/Graphics/SVG/1.1/DTD/svg11.dtd">
<!-- Created with matplotlib (https://matplotlib.org/) -->
<svg height="216pt" version="1.1" viewBox="0 0 432 216" width="432pt" xmlns="http://www.w3.org/2000/svg" xmlns:xlink="http://www.w3.org/1999/xlink">
 <defs>
  <style type="text/css">
*{stroke-linecap:butt;stroke-linejoin:round;}
  </style>
 </defs>
 <g id="figure_1">
  <g id="patch_1">
   <path d="M 0 216 
L 432 216 
L 432 0 
L 0 0 
z
" style="fill:#ffffff;"/>
  </g>
  <g id="axes_1">
   <g id="patch_2">
    <path d="M 49.16 170.728 
L 202.68 170.728 
L 202.68 14.76 
L 49.16 14.76 
z
" style="fill:#ffffff;"/>
   </g>
   <g id="matplotlib.axis_1">
    <g id="xtick_1">
     <g id="line2d_1">
      <defs>
       <path d="M 0 0 
L 0 3.5 
" id="mddce0f6fab" style="stroke:#000000;stroke-width:0.8;"/>
      </defs>
      <g>
       <use style="stroke:#000000;stroke-width:0.8;" x="55.820992" xlink:href="#mddce0f6fab" y="170.728"/>
      </g>
     </g>
     <g id="text_1">
      <!-- 0 -->
      <defs>
       <path d="M 31.78125 66.40625 
Q 24.171875 66.40625 20.328125 58.90625 
Q 16.5 51.421875 16.5 36.375 
Q 16.5 21.390625 20.328125 13.890625 
Q 24.171875 6.390625 31.78125 6.390625 
Q 39.453125 6.390625 43.28125 13.890625 
Q 47.125 21.390625 47.125 36.375 
Q 47.125 51.421875 43.28125 58.90625 
Q 39.453125 66.40625 31.78125 66.40625 
z
M 31.78125 74.21875 
Q 44.046875 74.21875 50.515625 64.515625 
Q 56.984375 54.828125 56.984375 36.375 
Q 56.984375 17.96875 50.515625 8.265625 
Q 44.046875 -1.421875 31.78125 -1.421875 
Q 19.53125 -1.421875 13.0625 8.265625 
Q 6.59375 17.96875 6.59375 36.375 
Q 6.59375 54.828125 13.0625 64.515625 
Q 19.53125 74.21875 31.78125 74.21875 
z
" id="DejaVuSans-48"/>
      </defs>
      <g transform="translate(52.639742 185.326437)scale(0.1 -0.1)">
       <use xlink:href="#DejaVuSans-48"/>
      </g>
     </g>
    </g>
    <g id="xtick_2">
     <g id="line2d_2">
      <g>
       <use style="stroke:#000000;stroke-width:0.8;" x="87.54" xlink:href="#mddce0f6fab" y="170.728"/>
      </g>
     </g>
     <g id="text_2">
      <!-- 100 -->
      <defs>
       <path d="M 12.40625 8.296875 
L 28.515625 8.296875 
L 28.515625 63.921875 
L 10.984375 60.40625 
L 10.984375 69.390625 
L 28.421875 72.90625 
L 38.28125 72.90625 
L 38.28125 8.296875 
L 54.390625 8.296875 
L 54.390625 0 
L 12.40625 0 
z
" id="DejaVuSans-49"/>
      </defs>
      <g transform="translate(77.99625 185.326437)scale(0.1 -0.1)">
       <use xlink:href="#DejaVuSans-49"/>
       <use x="63.623047" xlink:href="#DejaVuSans-48"/>
       <use x="127.246094" xlink:href="#DejaVuSans-48"/>
      </g>
     </g>
    </g>
    <g id="xtick_3">
     <g id="line2d_3">
      <g>
       <use style="stroke:#000000;stroke-width:0.8;" x="119.259008" xlink:href="#mddce0f6fab" y="170.728"/>
      </g>
     </g>
     <g id="text_3">
      <!-- 200 -->
      <defs>
       <path d="M 19.1875 8.296875 
L 53.609375 8.296875 
L 53.609375 0 
L 7.328125 0 
L 7.328125 8.296875 
Q 12.9375 14.109375 22.625 23.890625 
Q 32.328125 33.6875 34.8125 36.53125 
Q 39.546875 41.84375 41.421875 45.53125 
Q 43.3125 49.21875 43.3125 52.78125 
Q 43.3125 58.59375 39.234375 62.25 
Q 35.15625 65.921875 28.609375 65.921875 
Q 23.96875 65.921875 18.8125 64.3125 
Q 13.671875 62.703125 7.8125 59.421875 
L 7.8125 69.390625 
Q 13.765625 71.78125 18.9375 73 
Q 24.125 74.21875 28.421875 74.21875 
Q 39.75 74.21875 46.484375 68.546875 
Q 53.21875 62.890625 53.21875 53.421875 
Q 53.21875 48.921875 51.53125 44.890625 
Q 49.859375 40.875 45.40625 35.40625 
Q 44.1875 33.984375 37.640625 27.21875 
Q 31.109375 20.453125 19.1875 8.296875 
z
" id="DejaVuSans-50"/>
      </defs>
      <g transform="translate(109.715258 185.326437)scale(0.1 -0.1)">
       <use xlink:href="#DejaVuSans-50"/>
       <use x="63.623047" xlink:href="#DejaVuSans-48"/>
       <use x="127.246094" xlink:href="#DejaVuSans-48"/>
      </g>
     </g>
    </g>
    <g id="xtick_4">
     <g id="line2d_4">
      <g>
       <use style="stroke:#000000;stroke-width:0.8;" x="150.978017" xlink:href="#mddce0f6fab" y="170.728"/>
      </g>
     </g>
     <g id="text_4">
      <!-- 300 -->
      <defs>
       <path d="M 40.578125 39.3125 
Q 47.65625 37.796875 51.625 33 
Q 55.609375 28.21875 55.609375 21.1875 
Q 55.609375 10.40625 48.1875 4.484375 
Q 40.765625 -1.421875 27.09375 -1.421875 
Q 22.515625 -1.421875 17.65625 -0.515625 
Q 12.796875 0.390625 7.625 2.203125 
L 7.625 11.71875 
Q 11.71875 9.328125 16.59375 8.109375 
Q 21.484375 6.890625 26.8125 6.890625 
Q 36.078125 6.890625 40.9375 10.546875 
Q 45.796875 14.203125 45.796875 21.1875 
Q 45.796875 27.640625 41.28125 31.265625 
Q 36.765625 34.90625 28.71875 34.90625 
L 20.21875 34.90625 
L 20.21875 43.015625 
L 29.109375 43.015625 
Q 36.375 43.015625 40.234375 45.921875 
Q 44.09375 48.828125 44.09375 54.296875 
Q 44.09375 59.90625 40.109375 62.90625 
Q 36.140625 65.921875 28.71875 65.921875 
Q 24.65625 65.921875 20.015625 65.03125 
Q 15.375 64.15625 9.8125 62.3125 
L 9.8125 71.09375 
Q 15.4375 72.65625 20.34375 73.4375 
Q 25.25 74.21875 29.59375 74.21875 
Q 40.828125 74.21875 47.359375 69.109375 
Q 53.90625 64.015625 53.90625 55.328125 
Q 53.90625 49.265625 50.4375 45.09375 
Q 46.96875 40.921875 40.578125 39.3125 
z
" id="DejaVuSans-51"/>
      </defs>
      <g transform="translate(141.434267 185.326437)scale(0.1 -0.1)">
       <use xlink:href="#DejaVuSans-51"/>
       <use x="63.623047" xlink:href="#DejaVuSans-48"/>
       <use x="127.246094" xlink:href="#DejaVuSans-48"/>
      </g>
     </g>
    </g>
    <g id="xtick_5">
     <g id="line2d_5">
      <g>
       <use style="stroke:#000000;stroke-width:0.8;" x="182.697025" xlink:href="#mddce0f6fab" y="170.728"/>
      </g>
     </g>
     <g id="text_5">
      <!-- 400 -->
      <defs>
       <path d="M 37.796875 64.3125 
L 12.890625 25.390625 
L 37.796875 25.390625 
z
M 35.203125 72.90625 
L 47.609375 72.90625 
L 47.609375 25.390625 
L 58.015625 25.390625 
L 58.015625 17.1875 
L 47.609375 17.1875 
L 47.609375 0 
L 37.796875 0 
L 37.796875 17.1875 
L 4.890625 17.1875 
L 4.890625 26.703125 
z
" id="DejaVuSans-52"/>
      </defs>
      <g transform="translate(173.153275 185.326437)scale(0.1 -0.1)">
       <use xlink:href="#DejaVuSans-52"/>
       <use x="63.623047" xlink:href="#DejaVuSans-48"/>
       <use x="127.246094" xlink:href="#DejaVuSans-48"/>
      </g>
     </g>
    </g>
    <g id="text_6">
     <!-- $n^2$ -->
     <defs>
      <path d="M 55.71875 33.015625 
L 49.3125 0 
L 40.28125 0 
L 46.6875 32.671875 
Q 47.125 34.96875 47.359375 36.71875 
Q 47.609375 38.484375 47.609375 39.5 
Q 47.609375 43.609375 45.015625 45.890625 
Q 42.4375 48.1875 37.796875 48.1875 
Q 30.5625 48.1875 25.34375 43.375 
Q 20.125 38.578125 18.5 30.328125 
L 12.5 0 
L 3.515625 0 
L 14.109375 54.6875 
L 23.09375 54.6875 
L 21.296875 46.09375 
Q 25.046875 50.828125 30.3125 53.40625 
Q 35.59375 56 41.40625 56 
Q 48.640625 56 52.609375 52.09375 
Q 56.59375 48.1875 56.59375 41.109375 
Q 56.59375 39.359375 56.375 37.359375 
Q 56.15625 35.359375 55.71875 33.015625 
z
" id="DejaVuSans-Oblique-110"/>
     </defs>
     <g transform="translate(120.12 199.004562)scale(0.1 -0.1)">
      <use transform="translate(0 0.765625)" xlink:href="#DejaVuSans-Oblique-110"/>
      <use transform="translate(68.028802 39.046875)scale(0.7)" xlink:href="#DejaVuSans-50"/>
     </g>
    </g>
   </g>
   <g id="matplotlib.axis_2">
    <g id="ytick_1">
     <g id="line2d_6">
      <defs>
       <path d="M 0 0 
L -3.5 0 
" id="m2fd7df43f5" style="stroke:#000000;stroke-width:0.8;"/>
      </defs>
      <g>
       <use style="stroke:#000000;stroke-width:0.8;" x="49.16" xlink:href="#m2fd7df43f5" y="158.096395"/>
      </g>
     </g>
     <g id="text_7">
      <!-- −2260 -->
      <defs>
       <path d="M 10.59375 35.5 
L 73.1875 35.5 
L 73.1875 27.203125 
L 10.59375 27.203125 
z
" id="DejaVuSans-8722"/>
       <path d="M 33.015625 40.375 
Q 26.375 40.375 22.484375 35.828125 
Q 18.609375 31.296875 18.609375 23.390625 
Q 18.609375 15.53125 22.484375 10.953125 
Q 26.375 6.390625 33.015625 6.390625 
Q 39.65625 6.390625 43.53125 10.953125 
Q 47.40625 15.53125 47.40625 23.390625 
Q 47.40625 31.296875 43.53125 35.828125 
Q 39.65625 40.375 33.015625 40.375 
z
M 52.59375 71.296875 
L 52.59375 62.3125 
Q 48.875 64.0625 45.09375 64.984375 
Q 41.3125 65.921875 37.59375 65.921875 
Q 27.828125 65.921875 22.671875 59.328125 
Q 17.53125 52.734375 16.796875 39.40625 
Q 19.671875 43.65625 24.015625 45.921875 
Q 28.375 48.1875 33.59375 48.1875 
Q 44.578125 48.1875 50.953125 41.515625 
Q 57.328125 34.859375 57.328125 23.390625 
Q 57.328125 12.15625 50.6875 5.359375 
Q 44.046875 -1.421875 33.015625 -1.421875 
Q 20.359375 -1.421875 13.671875 8.265625 
Q 6.984375 17.96875 6.984375 36.375 
Q 6.984375 53.65625 15.1875 63.9375 
Q 23.390625 74.21875 37.203125 74.21875 
Q 40.921875 74.21875 44.703125 73.484375 
Q 48.484375 72.75 52.59375 71.296875 
z
" id="DejaVuSans-54"/>
      </defs>
      <g transform="translate(8.330313 161.895613)scale(0.1 -0.1)">
       <use xlink:href="#DejaVuSans-8722"/>
       <use x="83.789062" xlink:href="#DejaVuSans-50"/>
       <use x="147.412109" xlink:href="#DejaVuSans-50"/>
       <use x="211.035156" xlink:href="#DejaVuSans-54"/>
       <use x="274.658203" xlink:href="#DejaVuSans-48"/>
      </g>
     </g>
    </g>
    <g id="ytick_2">
     <g id="line2d_7">
      <g>
       <use style="stroke:#000000;stroke-width:0.8;" x="49.16" xlink:href="#m2fd7df43f5" y="135.238404"/>
      </g>
     </g>
     <g id="text_8">
      <!-- −2255 -->
      <defs>
       <path d="M 10.796875 72.90625 
L 49.515625 72.90625 
L 49.515625 64.59375 
L 19.828125 64.59375 
L 19.828125 46.734375 
Q 21.96875 47.46875 24.109375 47.828125 
Q 26.265625 48.1875 28.421875 48.1875 
Q 40.625 48.1875 47.75 41.5 
Q 54.890625 34.8125 54.890625 23.390625 
Q 54.890625 11.625 47.5625 5.09375 
Q 40.234375 -1.421875 26.90625 -1.421875 
Q 22.3125 -1.421875 17.546875 -0.640625 
Q 12.796875 0.140625 7.71875 1.703125 
L 7.71875 11.625 
Q 12.109375 9.234375 16.796875 8.0625 
Q 21.484375 6.890625 26.703125 6.890625 
Q 35.15625 6.890625 40.078125 11.328125 
Q 45.015625 15.765625 45.015625 23.390625 
Q 45.015625 31 40.078125 35.4375 
Q 35.15625 39.890625 26.703125 39.890625 
Q 22.75 39.890625 18.8125 39.015625 
Q 14.890625 38.140625 10.796875 36.28125 
z
" id="DejaVuSans-53"/>
      </defs>
      <g transform="translate(8.330313 139.037622)scale(0.1 -0.1)">
       <use xlink:href="#DejaVuSans-8722"/>
       <use x="83.789062" xlink:href="#DejaVuSans-50"/>
       <use x="147.412109" xlink:href="#DejaVuSans-50"/>
       <use x="211.035156" xlink:href="#DejaVuSans-53"/>
       <use x="274.658203" xlink:href="#DejaVuSans-53"/>
      </g>
     </g>
    </g>
    <g id="ytick_3">
     <g id="line2d_8">
      <g>
       <use style="stroke:#000000;stroke-width:0.8;" x="49.16" xlink:href="#m2fd7df43f5" y="112.380413"/>
      </g>
     </g>
     <g id="text_9">
      <!-- −2250 -->
      <g transform="translate(8.330313 116.179632)scale(0.1 -0.1)">
       <use xlink:href="#DejaVuSans-8722"/>
       <use x="83.789062" xlink:href="#DejaVuSans-50"/>
       <use x="147.412109" xlink:href="#DejaVuSans-50"/>
       <use x="211.035156" xlink:href="#DejaVuSans-53"/>
       <use x="274.658203" xlink:href="#DejaVuSans-48"/>
      </g>
     </g>
    </g>
    <g id="ytick_4">
     <g id="line2d_9">
      <g>
       <use style="stroke:#000000;stroke-width:0.8;" x="49.16" xlink:href="#m2fd7df43f5" y="89.522422"/>
      </g>
     </g>
     <g id="text_10">
      <!-- −2245 -->
      <g transform="translate(8.330313 93.321641)scale(0.1 -0.1)">
       <use xlink:href="#DejaVuSans-8722"/>
       <use x="83.789062" xlink:href="#DejaVuSans-50"/>
       <use x="147.412109" xlink:href="#DejaVuSans-50"/>
       <use x="211.035156" xlink:href="#DejaVuSans-52"/>
       <use x="274.658203" xlink:href="#DejaVuSans-53"/>
      </g>
     </g>
    </g>
    <g id="ytick_5">
     <g id="line2d_10">
      <g>
       <use style="stroke:#000000;stroke-width:0.8;" x="49.16" xlink:href="#m2fd7df43f5" y="66.664431"/>
      </g>
     </g>
     <g id="text_11">
      <!-- −2240 -->
      <g transform="translate(8.330313 70.46365)scale(0.1 -0.1)">
       <use xlink:href="#DejaVuSans-8722"/>
       <use x="83.789062" xlink:href="#DejaVuSans-50"/>
       <use x="147.412109" xlink:href="#DejaVuSans-50"/>
       <use x="211.035156" xlink:href="#DejaVuSans-52"/>
       <use x="274.658203" xlink:href="#DejaVuSans-48"/>
      </g>
     </g>
    </g>
    <g id="ytick_6">
     <g id="line2d_11">
      <g>
       <use style="stroke:#000000;stroke-width:0.8;" x="49.16" xlink:href="#m2fd7df43f5" y="43.80644"/>
      </g>
     </g>
     <g id="text_12">
      <!-- −2235 -->
      <g transform="translate(8.330313 47.605659)scale(0.1 -0.1)">
       <use xlink:href="#DejaVuSans-8722"/>
       <use x="83.789062" xlink:href="#DejaVuSans-50"/>
       <use x="147.412109" xlink:href="#DejaVuSans-50"/>
       <use x="211.035156" xlink:href="#DejaVuSans-51"/>
       <use x="274.658203" xlink:href="#DejaVuSans-53"/>
      </g>
     </g>
    </g>
    <g id="ytick_7">
     <g id="line2d_12">
      <g>
       <use style="stroke:#000000;stroke-width:0.8;" x="49.16" xlink:href="#m2fd7df43f5" y="20.948449"/>
      </g>
     </g>
     <g id="text_13">
      <!-- −2230 -->
      <g transform="translate(8.330313 24.747668)scale(0.1 -0.1)">
       <use xlink:href="#DejaVuSans-8722"/>
       <use x="83.789062" xlink:href="#DejaVuSans-50"/>
       <use x="147.412109" xlink:href="#DejaVuSans-50"/>
       <use x="211.035156" xlink:href="#DejaVuSans-51"/>
       <use x="274.658203" xlink:href="#DejaVuSans-48"/>
      </g>
     </g>
    </g>
    <g id="text_14">
     <!-- $\Delta f/n$ (Hz) -->
     <defs>
      <path d="M 34.1875 63.1875 
L 14.15625 8.203125 
L 54.25 8.203125 
z
M 0.78125 0 
L 28.609375 72.90625 
L 39.796875 72.90625 
L 67.578125 0 
z
" id="DejaVuSans-916"/>
      <path d="M 47.796875 75.984375 
L 46.390625 68.5 
L 37.796875 68.5 
Q 32.90625 68.5 30.6875 66.578125 
Q 28.46875 64.65625 27.390625 59.515625 
L 26.421875 54.6875 
L 41.21875 54.6875 
L 39.890625 47.703125 
L 25.09375 47.703125 
L 15.828125 0 
L 6.78125 0 
L 16.109375 47.703125 
L 7.515625 47.703125 
L 8.796875 54.6875 
L 17.390625 54.6875 
L 18.109375 58.5 
Q 19.96875 68.171875 24.625 72.078125 
Q 29.296875 75.984375 39.3125 75.984375 
z
" id="DejaVuSans-Oblique-102"/>
      <path d="M 25.390625 72.90625 
L 33.6875 72.90625 
L 8.296875 -9.28125 
L 0 -9.28125 
z
" id="DejaVuSans-47"/>
      <path id="DejaVuSans-32"/>
      <path d="M 31 75.875 
Q 24.46875 64.65625 21.28125 53.65625 
Q 18.109375 42.671875 18.109375 31.390625 
Q 18.109375 20.125 21.3125 9.0625 
Q 24.515625 -2 31 -13.1875 
L 23.1875 -13.1875 
Q 15.875 -1.703125 12.234375 9.375 
Q 8.59375 20.453125 8.59375 31.390625 
Q 8.59375 42.28125 12.203125 53.3125 
Q 15.828125 64.359375 23.1875 75.875 
z
" id="DejaVuSans-40"/>
      <path d="M 9.8125 72.90625 
L 19.671875 72.90625 
L 19.671875 43.015625 
L 55.515625 43.015625 
L 55.515625 72.90625 
L 65.375 72.90625 
L 65.375 0 
L 55.515625 0 
L 55.515625 34.71875 
L 19.671875 34.71875 
L 19.671875 0 
L 9.8125 0 
z
" id="DejaVuSans-72"/>
      <path d="M 5.515625 54.6875 
L 48.1875 54.6875 
L 48.1875 46.484375 
L 14.40625 7.171875 
L 48.1875 7.171875 
L 48.1875 0 
L 4.296875 0 
L 4.296875 8.203125 
L 38.09375 47.515625 
L 5.515625 47.515625 
z
" id="DejaVuSans-122"/>
      <path d="M 8.015625 75.875 
L 15.828125 75.875 
Q 23.140625 64.359375 26.78125 53.3125 
Q 30.421875 42.28125 30.421875 31.390625 
Q 30.421875 20.453125 26.78125 9.375 
Q 23.140625 -1.703125 15.828125 -13.1875 
L 8.015625 -13.1875 
Q 14.5 -2 17.703125 9.0625 
Q 20.90625 20.125 20.90625 31.390625 
Q 20.90625 42.671875 17.703125 53.65625 
Q 14.5 64.65625 8.015625 75.875 
z
" id="DejaVuSans-41"/>
     </defs>
     <g transform="translate(2.250625 114.694)rotate(-90)scale(0.1 -0.1)">
      <use transform="translate(0 0.015625)" xlink:href="#DejaVuSans-916"/>
      <use transform="translate(68.408203 0.015625)" xlink:href="#DejaVuSans-Oblique-102"/>
      <use transform="translate(103.613281 0.015625)" xlink:href="#DejaVuSans-47"/>
      <use transform="translate(137.304688 0.015625)" xlink:href="#DejaVuSans-Oblique-110"/>
      <use transform="translate(200.683594 0.015625)" xlink:href="#DejaVuSans-32"/>
      <use transform="translate(232.470703 0.015625)" xlink:href="#DejaVuSans-40"/>
      <use transform="translate(271.484375 0.015625)" xlink:href="#DejaVuSans-72"/>
      <use transform="translate(346.679688 0.015625)" xlink:href="#DejaVuSans-122"/>
      <use transform="translate(399.169922 0.015625)" xlink:href="#DejaVuSans-41"/>
     </g>
    </g>
   </g>
   <g id="line2d_13">
    <path clip-path="url(#paafef51ddd)" d="M 56.138182 99.701556 
L 58.675702 101.341535 
L 63.750744 104.048155 
L 71.363306 107.665528 
L 81.513388 112.161292 
L 94.200992 117.577572 
L 109.426116 124.014136 
L 127.18876 131.620709 
L 147.488926 140.593087 
L 170.326612 151.17122 
L 195.701818 163.638545 
" style="fill:none;stroke:#1f77b4;stroke-linecap:square;stroke-width:1.5;"/>
    <defs>
     <path d="M -3 3 
L 3 -3 
M -3 -3 
L 3 3 
" id="m17066249ac" style="stroke:#1f77b4;"/>
    </defs>
    <g clip-path="url(#paafef51ddd)">
     <use style="fill:#1f77b4;stroke:#1f77b4;" x="56.138182" xlink:href="#m17066249ac" y="99.701556"/>
     <use style="fill:#1f77b4;stroke:#1f77b4;" x="58.675702" xlink:href="#m17066249ac" y="101.341535"/>
     <use style="fill:#1f77b4;stroke:#1f77b4;" x="63.750744" xlink:href="#m17066249ac" y="104.048155"/>
     <use style="fill:#1f77b4;stroke:#1f77b4;" x="71.363306" xlink:href="#m17066249ac" y="107.665528"/>
     <use style="fill:#1f77b4;stroke:#1f77b4;" x="81.513388" xlink:href="#m17066249ac" y="112.161292"/>
     <use style="fill:#1f77b4;stroke:#1f77b4;" x="94.200992" xlink:href="#m17066249ac" y="117.577572"/>
     <use style="fill:#1f77b4;stroke:#1f77b4;" x="109.426116" xlink:href="#m17066249ac" y="124.014136"/>
     <use style="fill:#1f77b4;stroke:#1f77b4;" x="127.18876" xlink:href="#m17066249ac" y="131.620709"/>
     <use style="fill:#1f77b4;stroke:#1f77b4;" x="147.488926" xlink:href="#m17066249ac" y="140.593087"/>
     <use style="fill:#1f77b4;stroke:#1f77b4;" x="170.326612" xlink:href="#m17066249ac" y="151.17122"/>
     <use style="fill:#1f77b4;stroke:#1f77b4;" x="195.701818" xlink:href="#m17066249ac" y="163.638545"/>
    </g>
   </g>
   <g id="line2d_14">
    <path clip-path="url(#paafef51ddd)" d="M 56.138182 99.759276 
L 58.675702 101.231147 
L 63.750744 103.02721 
L 71.363306 104.797259 
L 81.513388 106.384172 
L 94.200992 107.730357 
L 109.426116 108.845833 
L 127.18876 109.793201 
L 147.488926 110.679267 
L 170.326612 111.649859 
L 195.701818 112.886402 
" style="fill:none;stroke:#ff7f0e;stroke-linecap:square;stroke-width:1.5;"/>
    <defs>
     <path d="M -3 3 
L 3 -3 
M -3 -3 
L 3 3 
" id="m2cfc840f48" style="stroke:#ff7f0e;"/>
    </defs>
    <g clip-path="url(#paafef51ddd)">
     <use style="fill:#ff7f0e;stroke:#ff7f0e;" x="56.138182" xlink:href="#m2cfc840f48" y="99.759276"/>
     <use style="fill:#ff7f0e;stroke:#ff7f0e;" x="58.675702" xlink:href="#m2cfc840f48" y="101.231147"/>
     <use style="fill:#ff7f0e;stroke:#ff7f0e;" x="63.750744" xlink:href="#m2cfc840f48" y="103.02721"/>
     <use style="fill:#ff7f0e;stroke:#ff7f0e;" x="71.363306" xlink:href="#m2cfc840f48" y="104.797259"/>
     <use style="fill:#ff7f0e;stroke:#ff7f0e;" x="81.513388" xlink:href="#m2cfc840f48" y="106.384172"/>
     <use style="fill:#ff7f0e;stroke:#ff7f0e;" x="94.200992" xlink:href="#m2cfc840f48" y="107.730357"/>
     <use style="fill:#ff7f0e;stroke:#ff7f0e;" x="109.426116" xlink:href="#m2cfc840f48" y="108.845833"/>
     <use style="fill:#ff7f0e;stroke:#ff7f0e;" x="127.18876" xlink:href="#m2cfc840f48" y="109.793201"/>
     <use style="fill:#ff7f0e;stroke:#ff7f0e;" x="147.488926" xlink:href="#m2cfc840f48" y="110.679267"/>
     <use style="fill:#ff7f0e;stroke:#ff7f0e;" x="170.326612" xlink:href="#m2cfc840f48" y="111.649859"/>
     <use style="fill:#ff7f0e;stroke:#ff7f0e;" x="195.701818" xlink:href="#m2cfc840f48" y="112.886402"/>
    </g>
   </g>
   <g id="line2d_15">
    <path clip-path="url(#paafef51ddd)" d="M 56.138182 99.852503 
L 58.675702 100.793848 
L 63.750744 100.555654 
L 71.363306 98.543469 
L 81.513388 94.458145 
L 94.200992 88.134962 
L 109.426116 79.491372 
L 127.18876 68.502977 
L 147.488926 55.190211 
L 170.326612 39.609916 
L 195.701818 21.849455 
" style="fill:none;stroke:#2ca02c;stroke-linecap:square;stroke-width:1.5;"/>
    <defs>
     <path d="M -3 3 
L 3 -3 
M -3 -3 
L 3 3 
" id="m8a268552e4" style="stroke:#2ca02c;"/>
    </defs>
    <g clip-path="url(#paafef51ddd)">
     <use style="fill:#2ca02c;stroke:#2ca02c;" x="56.138182" xlink:href="#m8a268552e4" y="99.852503"/>
     <use style="fill:#2ca02c;stroke:#2ca02c;" x="58.675702" xlink:href="#m8a268552e4" y="100.793848"/>
     <use style="fill:#2ca02c;stroke:#2ca02c;" x="63.750744" xlink:href="#m8a268552e4" y="100.555654"/>
     <use style="fill:#2ca02c;stroke:#2ca02c;" x="71.363306" xlink:href="#m8a268552e4" y="98.543469"/>
     <use style="fill:#2ca02c;stroke:#2ca02c;" x="81.513388" xlink:href="#m8a268552e4" y="94.458145"/>
     <use style="fill:#2ca02c;stroke:#2ca02c;" x="94.200992" xlink:href="#m8a268552e4" y="88.134962"/>
     <use style="fill:#2ca02c;stroke:#2ca02c;" x="109.426116" xlink:href="#m8a268552e4" y="79.491372"/>
     <use style="fill:#2ca02c;stroke:#2ca02c;" x="127.18876" xlink:href="#m8a268552e4" y="68.502977"/>
     <use style="fill:#2ca02c;stroke:#2ca02c;" x="147.488926" xlink:href="#m8a268552e4" y="55.190211"/>
     <use style="fill:#2ca02c;stroke:#2ca02c;" x="170.326612" xlink:href="#m8a268552e4" y="39.609916"/>
     <use style="fill:#2ca02c;stroke:#2ca02c;" x="195.701818" xlink:href="#m8a268552e4" y="21.849455"/>
    </g>
   </g>
   <g id="patch_3">
    <path d="M 49.16 170.728 
L 49.16 14.76 
" style="fill:none;stroke:#000000;stroke-linecap:square;stroke-linejoin:miter;stroke-width:0.8;"/>
   </g>
   <g id="patch_4">
    <path d="M 202.68 170.728 
L 202.68 14.76 
" style="fill:none;stroke:#000000;stroke-linecap:square;stroke-linejoin:miter;stroke-width:0.8;"/>
   </g>
   <g id="patch_5">
    <path d="M 49.16 170.728 
L 202.68 170.728 
" style="fill:none;stroke:#000000;stroke-linecap:square;stroke-linejoin:miter;stroke-width:0.8;"/>
   </g>
   <g id="patch_6">
    <path d="M 49.16 14.76 
L 202.68 14.76 
" style="fill:none;stroke:#000000;stroke-linecap:square;stroke-linejoin:miter;stroke-width:0.8;"/>
   </g>
   <g id="legend_1">
    <g id="patch_7">
     <path d="M 56.16 66.86 
L 127.26 66.86 
Q 129.26 66.86 129.26 64.86 
L 129.26 21.76 
Q 129.26 19.76 127.26 19.76 
L 56.16 19.76 
Q 54.16 19.76 54.16 21.76 
L 54.16 64.86 
Q 54.16 66.86 56.16 66.86 
z
" style="fill:#ffffff;opacity:0.8;stroke:#cccccc;stroke-linejoin:miter;"/>
    </g>
    <g id="line2d_16">
     <path d="M 58.16 27.86 
L 78.16 27.86 
" style="fill:none;stroke:#1f77b4;stroke-linecap:square;stroke-width:1.5;"/>
    </g>
    <g id="line2d_17">
     <g>
      <use style="fill:#1f77b4;stroke:#1f77b4;" x="68.16" xlink:href="#m17066249ac" y="27.86"/>
     </g>
    </g>
    <g id="text_15">
     <!-- $\phi=5^\circ$ -->
     <defs>
      <path d="M 46.734375 75.984375 
L 42.78125 55.8125 
Q 52.546875 55.8125 57.5625 48.34375 
Q 62.75 40.71875 60.15625 27.296875 
Q 57.515625 13.875 49.359375 6.25 
Q 41.453125 -1.21875 31.6875 -1.21875 
L 27.875 -20.796875 
L 18.953125 -20.796875 
L 22.75 -1.21875 
Q 13.03125 -1.21875 7.953125 6.25 
Q 2.78125 13.875 5.421875 27.296875 
Q 8.015625 40.71875 16.15625 48.34375 
Q 24.125 55.8125 33.84375 55.8125 
L 37.796875 75.984375 
z
M 33.25 6.78125 
Q 38.765625 6.78125 43.5 11.8125 
Q 48.6875 17.4375 50.6875 27.296875 
Q 52.640625 37.0625 49.515625 42.78125 
Q 46.734375 47.796875 41.21875 47.796875 
z
M 24.3125 6.78125 
L 32.28125 47.796875 
Q 26.8125 47.796875 22.078125 42.78125 
Q 16.75 37.0625 14.890625 27.296875 
Q 13.03125 17.4375 16.0625 11.8125 
Q 18.796875 6.78125 24.3125 6.78125 
z
" id="DejaVuSans-Oblique-981"/>
      <path d="M 10.59375 45.40625 
L 73.1875 45.40625 
L 73.1875 37.203125 
L 10.59375 37.203125 
z
M 10.59375 25.484375 
L 73.1875 25.484375 
L 73.1875 17.1875 
L 10.59375 17.1875 
z
" id="DejaVuSans-61"/>
      <path d="M 31.296875 40.671875 
Q 27.390625 40.671875 24.703125 37.953125 
Q 22.015625 35.25 22.015625 31.34375 
Q 22.015625 27.484375 24.703125 24.828125 
Q 27.390625 22.171875 31.296875 22.171875 
Q 35.203125 22.171875 37.890625 24.828125 
Q 40.578125 27.484375 40.578125 31.34375 
Q 40.578125 35.203125 37.859375 37.9375 
Q 35.15625 40.671875 31.296875 40.671875 
z
M 31.296875 46.96875 
Q 34.421875 46.96875 37.296875 45.765625 
Q 40.1875 44.578125 42.28125 42.328125 
Q 44.53125 40.140625 45.65625 37.34375 
Q 46.78125 34.5625 46.78125 31.34375 
Q 46.78125 24.90625 42.265625 20.4375 
Q 37.75 15.96875 31.203125 15.96875 
Q 24.609375 15.96875 20.21875 20.359375 
Q 15.828125 24.75 15.828125 31.34375 
Q 15.828125 37.890625 20.3125 42.421875 
Q 24.8125 46.96875 31.296875 46.96875 
z
" id="DejaVuSans-8728"/>
     </defs>
     <g transform="translate(86.16 31.36)scale(0.1 -0.1)">
      <use transform="translate(0 0.015625)" xlink:href="#DejaVuSans-Oblique-981"/>
      <use transform="translate(85.449219 0.015625)" xlink:href="#DejaVuSans-61"/>
      <use transform="translate(188.720703 0.015625)" xlink:href="#DejaVuSans-53"/>
      <use transform="translate(266.938477 38.296875)scale(0.7)" xlink:href="#DejaVuSans-8728"/>
     </g>
    </g>
    <g id="line2d_18">
     <path d="M 58.16 42.56 
L 78.16 42.56 
" style="fill:none;stroke:#ff7f0e;stroke-linecap:square;stroke-width:1.5;"/>
    </g>
    <g id="line2d_19">
     <g>
      <use style="fill:#ff7f0e;stroke:#ff7f0e;" x="68.16" xlink:href="#m2cfc840f48" y="42.56"/>
     </g>
    </g>
    <g id="text_16">
     <!-- $\phi=10^\circ$ -->
     <g transform="translate(86.16 46.06)scale(0.1 -0.1)">
      <use transform="translate(0 0.015625)" xlink:href="#DejaVuSans-Oblique-981"/>
      <use transform="translate(85.449219 0.015625)" xlink:href="#DejaVuSans-61"/>
      <use transform="translate(188.720703 0.015625)" xlink:href="#DejaVuSans-49"/>
      <use transform="translate(252.34375 0.015625)" xlink:href="#DejaVuSans-48"/>
      <use transform="translate(330.561523 38.296875)scale(0.7)" xlink:href="#DejaVuSans-8728"/>
     </g>
    </g>
    <g id="line2d_20">
     <path d="M 58.16 57.26 
L 78.16 57.26 
" style="fill:none;stroke:#2ca02c;stroke-linecap:square;stroke-width:1.5;"/>
    </g>
    <g id="line2d_21">
     <g>
      <use style="fill:#2ca02c;stroke:#2ca02c;" x="68.16" xlink:href="#m8a268552e4" y="57.26"/>
     </g>
    </g>
    <g id="text_17">
     <!-- $\phi=20^\circ$ -->
     <g transform="translate(86.16 60.76)scale(0.1 -0.1)">
      <use transform="translate(0 0.015625)" xlink:href="#DejaVuSans-Oblique-981"/>
      <use transform="translate(85.449219 0.015625)" xlink:href="#DejaVuSans-61"/>
      <use transform="translate(188.720703 0.015625)" xlink:href="#DejaVuSans-50"/>
      <use transform="translate(252.34375 0.015625)" xlink:href="#DejaVuSans-48"/>
      <use transform="translate(330.561523 38.296875)scale(0.7)" xlink:href="#DejaVuSans-8728"/>
     </g>
    </g>
   </g>
  </g>
  <g id="axes_2">
   <g id="patch_8">
    <path d="M 259.76 170.728 
L 413.28 170.728 
L 413.28 14.76 
L 259.76 14.76 
z
" style="fill:#ffffff;"/>
   </g>
   <g id="matplotlib.axis_3">
    <g id="xtick_6">
     <g id="line2d_22">
      <g>
       <use style="stroke:#000000;stroke-width:0.8;" x="266.420992" xlink:href="#mddce0f6fab" y="170.728"/>
      </g>
     </g>
     <g id="text_18">
      <!-- 0 -->
      <g transform="translate(263.239742 185.326437)scale(0.1 -0.1)">
       <use xlink:href="#DejaVuSans-48"/>
      </g>
     </g>
    </g>
    <g id="xtick_7">
     <g id="line2d_23">
      <g>
       <use style="stroke:#000000;stroke-width:0.8;" x="298.14" xlink:href="#mddce0f6fab" y="170.728"/>
      </g>
     </g>
     <g id="text_19">
      <!-- 100 -->
      <g transform="translate(288.59625 185.326437)scale(0.1 -0.1)">
       <use xlink:href="#DejaVuSans-49"/>
       <use x="63.623047" xlink:href="#DejaVuSans-48"/>
       <use x="127.246094" xlink:href="#DejaVuSans-48"/>
      </g>
     </g>
    </g>
    <g id="xtick_8">
     <g id="line2d_24">
      <g>
       <use style="stroke:#000000;stroke-width:0.8;" x="329.859008" xlink:href="#mddce0f6fab" y="170.728"/>
      </g>
     </g>
     <g id="text_20">
      <!-- 200 -->
      <g transform="translate(320.315258 185.326437)scale(0.1 -0.1)">
       <use xlink:href="#DejaVuSans-50"/>
       <use x="63.623047" xlink:href="#DejaVuSans-48"/>
       <use x="127.246094" xlink:href="#DejaVuSans-48"/>
      </g>
     </g>
    </g>
    <g id="xtick_9">
     <g id="line2d_25">
      <g>
       <use style="stroke:#000000;stroke-width:0.8;" x="361.578017" xlink:href="#mddce0f6fab" y="170.728"/>
      </g>
     </g>
     <g id="text_21">
      <!-- 300 -->
      <g transform="translate(352.034267 185.326437)scale(0.1 -0.1)">
       <use xlink:href="#DejaVuSans-51"/>
       <use x="63.623047" xlink:href="#DejaVuSans-48"/>
       <use x="127.246094" xlink:href="#DejaVuSans-48"/>
      </g>
     </g>
    </g>
    <g id="xtick_10">
     <g id="line2d_26">
      <g>
       <use style="stroke:#000000;stroke-width:0.8;" x="393.297025" xlink:href="#mddce0f6fab" y="170.728"/>
      </g>
     </g>
     <g id="text_22">
      <!-- 400 -->
      <g transform="translate(383.753275 185.326437)scale(0.1 -0.1)">
       <use xlink:href="#DejaVuSans-52"/>
       <use x="63.623047" xlink:href="#DejaVuSans-48"/>
       <use x="127.246094" xlink:href="#DejaVuSans-48"/>
      </g>
     </g>
    </g>
    <g id="text_23">
     <!-- $n^2$ -->
     <g transform="translate(330.72 199.004562)scale(0.1 -0.1)">
      <use transform="translate(0 0.765625)" xlink:href="#DejaVuSans-Oblique-110"/>
      <use transform="translate(68.028802 39.046875)scale(0.7)" xlink:href="#DejaVuSans-50"/>
     </g>
    </g>
   </g>
   <g id="matplotlib.axis_4">
    <g id="ytick_8">
     <g id="line2d_27">
      <g>
       <use style="stroke:#000000;stroke-width:0.8;" x="259.76" xlink:href="#m2fd7df43f5" y="163.822975"/>
      </g>
     </g>
     <g id="text_24">
      <!-- 0 -->
      <g transform="translate(246.3975 167.622194)scale(0.1 -0.1)">
       <use xlink:href="#DejaVuSans-48"/>
      </g>
     </g>
    </g>
    <g id="ytick_9">
     <g id="line2d_28">
      <g>
       <use style="stroke:#000000;stroke-width:0.8;" x="259.76" xlink:href="#m2fd7df43f5" y="133.764482"/>
      </g>
     </g>
     <g id="text_25">
      <!-- 5 -->
      <g transform="translate(246.3975 137.5637)scale(0.1 -0.1)">
       <use xlink:href="#DejaVuSans-53"/>
      </g>
     </g>
    </g>
    <g id="ytick_10">
     <g id="line2d_29">
      <g>
       <use style="stroke:#000000;stroke-width:0.8;" x="259.76" xlink:href="#m2fd7df43f5" y="103.705988"/>
      </g>
     </g>
     <g id="text_26">
      <!-- 10 -->
      <g transform="translate(240.035 107.505207)scale(0.1 -0.1)">
       <use xlink:href="#DejaVuSans-49"/>
       <use x="63.623047" xlink:href="#DejaVuSans-48"/>
      </g>
     </g>
    </g>
    <g id="ytick_11">
     <g id="line2d_30">
      <g>
       <use style="stroke:#000000;stroke-width:0.8;" x="259.76" xlink:href="#m2fd7df43f5" y="73.647495"/>
      </g>
     </g>
     <g id="text_27">
      <!-- 15 -->
      <g transform="translate(240.035 77.446714)scale(0.1 -0.1)">
       <use xlink:href="#DejaVuSans-49"/>
       <use x="63.623047" xlink:href="#DejaVuSans-53"/>
      </g>
     </g>
    </g>
    <g id="ytick_12">
     <g id="line2d_31">
      <g>
       <use style="stroke:#000000;stroke-width:0.8;" x="259.76" xlink:href="#m2fd7df43f5" y="43.589002"/>
      </g>
     </g>
     <g id="text_28">
      <!-- 20 -->
      <g transform="translate(240.035 47.388221)scale(0.1 -0.1)">
       <use xlink:href="#DejaVuSans-50"/>
       <use x="63.623047" xlink:href="#DejaVuSans-48"/>
      </g>
     </g>
    </g>
    <g id="text_29">
     <!-- $\Delta \Gamma/n$ (Hz) -->
     <defs>
      <path d="M 9.8125 0 
L 9.8125 72.90625 
L 55.171875 72.90625 
L 55.171875 64.59375 
L 19.671875 64.59375 
L 19.671875 0 
z
" id="DejaVuSans-915"/>
     </defs>
     <g transform="translate(233.955312 115.694)rotate(-90)scale(0.1 -0.1)">
      <use transform="translate(0 0.125)" xlink:href="#DejaVuSans-916"/>
      <use transform="translate(68.408203 0.125)" xlink:href="#DejaVuSans-915"/>
      <use transform="translate(124.121094 0.125)" xlink:href="#DejaVuSans-47"/>
      <use transform="translate(157.8125 0.125)" xlink:href="#DejaVuSans-Oblique-110"/>
      <use transform="translate(221.191406 0.125)" xlink:href="#DejaVuSans-32"/>
      <use transform="translate(252.978516 0.125)" xlink:href="#DejaVuSans-40"/>
      <use transform="translate(291.992188 0.125)" xlink:href="#DejaVuSans-72"/>
      <use transform="translate(367.1875 0.125)" xlink:href="#DejaVuSans-122"/>
      <use transform="translate(419.677734 0.125)" xlink:href="#DejaVuSans-41"/>
     </g>
    </g>
   </g>
   <g id="line2d_32">
    <path clip-path="url(#pcb6d798553)" d="M 266.738182 163.638545 
L 269.275702 162.696528 
L 274.350744 160.812116 
L 281.963306 158.024513 
L 292.113388 154.335629 
L 304.800992 149.735383 
L 320.026116 144.204854 
L 337.78876 137.717016 
L 358.088926 130.236679 
L 380.926612 121.720007 
L 406.301818 112.113707 
" style="fill:none;stroke:#1f77b4;stroke-linecap:square;stroke-width:1.5;"/>
    <g clip-path="url(#pcb6d798553)">
     <use style="fill:#1f77b4;stroke:#1f77b4;" x="266.738182" xlink:href="#m17066249ac" y="163.638545"/>
     <use style="fill:#1f77b4;stroke:#1f77b4;" x="269.275702" xlink:href="#m17066249ac" y="162.696528"/>
     <use style="fill:#1f77b4;stroke:#1f77b4;" x="274.350744" xlink:href="#m17066249ac" y="160.812116"/>
     <use style="fill:#1f77b4;stroke:#1f77b4;" x="281.963306" xlink:href="#m17066249ac" y="158.024513"/>
     <use style="fill:#1f77b4;stroke:#1f77b4;" x="292.113388" xlink:href="#m17066249ac" y="154.335629"/>
     <use style="fill:#1f77b4;stroke:#1f77b4;" x="304.800992" xlink:href="#m17066249ac" y="149.735383"/>
     <use style="fill:#1f77b4;stroke:#1f77b4;" x="320.026116" xlink:href="#m17066249ac" y="144.204854"/>
     <use style="fill:#1f77b4;stroke:#1f77b4;" x="337.78876" xlink:href="#m17066249ac" y="137.717016"/>
     <use style="fill:#1f77b4;stroke:#1f77b4;" x="358.088926" xlink:href="#m17066249ac" y="130.236679"/>
     <use style="fill:#1f77b4;stroke:#1f77b4;" x="380.926612" xlink:href="#m17066249ac" y="121.720007"/>
     <use style="fill:#1f77b4;stroke:#1f77b4;" x="406.301818" xlink:href="#m17066249ac" y="112.113707"/>
    </g>
   </g>
   <g id="line2d_33">
    <path clip-path="url(#pcb6d798553)" d="M 266.738182 163.492371 
L 269.275702 161.596433 
L 274.350744 158.003405 
L 281.963306 152.815583 
L 292.113388 146.068682 
L 304.800992 137.773362 
L 320.026116 127.923867 
L 337.78876 116.50132 
L 358.088926 103.475064 
L 380.926612 88.803025 
L 406.301818 72.431481 
" style="fill:none;stroke:#ff7f0e;stroke-linecap:square;stroke-width:1.5;"/>
    <g clip-path="url(#pcb6d798553)">
     <use style="fill:#ff7f0e;stroke:#ff7f0e;" x="266.738182" xlink:href="#m2cfc840f48" y="163.492371"/>
     <use style="fill:#ff7f0e;stroke:#ff7f0e;" x="269.275702" xlink:href="#m2cfc840f48" y="161.596433"/>
     <use style="fill:#ff7f0e;stroke:#ff7f0e;" x="274.350744" xlink:href="#m2cfc840f48" y="158.003405"/>
     <use style="fill:#ff7f0e;stroke:#ff7f0e;" x="281.963306" xlink:href="#m2cfc840f48" y="152.815583"/>
     <use style="fill:#ff7f0e;stroke:#ff7f0e;" x="292.113388" xlink:href="#m2cfc840f48" y="146.068682"/>
     <use style="fill:#ff7f0e;stroke:#ff7f0e;" x="304.800992" xlink:href="#m2cfc840f48" y="137.773362"/>
     <use style="fill:#ff7f0e;stroke:#ff7f0e;" x="320.026116" xlink:href="#m2cfc840f48" y="127.923867"/>
     <use style="fill:#ff7f0e;stroke:#ff7f0e;" x="337.78876" xlink:href="#m2cfc840f48" y="116.50132"/>
     <use style="fill:#ff7f0e;stroke:#ff7f0e;" x="358.088926" xlink:href="#m2cfc840f48" y="103.475064"/>
     <use style="fill:#ff7f0e;stroke:#ff7f0e;" x="380.926612" xlink:href="#m2cfc840f48" y="88.803025"/>
     <use style="fill:#ff7f0e;stroke:#ff7f0e;" x="406.301818" xlink:href="#m2cfc840f48" y="72.431481"/>
    </g>
   </g>
   <g id="line2d_34">
    <path clip-path="url(#pcb6d798553)" d="M 266.738182 163.15301 
L 269.275702 159.455303 
L 274.350744 153.008543 
L 281.963306 144.125312 
L 292.113388 132.962356 
L 304.800992 119.617781 
L 320.026116 104.157457 
L 337.78876 86.626365 
L 358.088926 67.054381 
L 380.926612 45.459463 
L 406.301818 21.849455 
" style="fill:none;stroke:#2ca02c;stroke-linecap:square;stroke-width:1.5;"/>
    <g clip-path="url(#pcb6d798553)">
     <use style="fill:#2ca02c;stroke:#2ca02c;" x="266.738182" xlink:href="#m8a268552e4" y="163.15301"/>
     <use style="fill:#2ca02c;stroke:#2ca02c;" x="269.275702" xlink:href="#m8a268552e4" y="159.455303"/>
     <use style="fill:#2ca02c;stroke:#2ca02c;" x="274.350744" xlink:href="#m8a268552e4" y="153.008543"/>
     <use style="fill:#2ca02c;stroke:#2ca02c;" x="281.963306" xlink:href="#m8a268552e4" y="144.125312"/>
     <use style="fill:#2ca02c;stroke:#2ca02c;" x="292.113388" xlink:href="#m8a268552e4" y="132.962356"/>
     <use style="fill:#2ca02c;stroke:#2ca02c;" x="304.800992" xlink:href="#m8a268552e4" y="119.617781"/>
     <use style="fill:#2ca02c;stroke:#2ca02c;" x="320.026116" xlink:href="#m8a268552e4" y="104.157457"/>
     <use style="fill:#2ca02c;stroke:#2ca02c;" x="337.78876" xlink:href="#m8a268552e4" y="86.626365"/>
     <use style="fill:#2ca02c;stroke:#2ca02c;" x="358.088926" xlink:href="#m8a268552e4" y="67.054381"/>
     <use style="fill:#2ca02c;stroke:#2ca02c;" x="380.926612" xlink:href="#m8a268552e4" y="45.459463"/>
     <use style="fill:#2ca02c;stroke:#2ca02c;" x="406.301818" xlink:href="#m8a268552e4" y="21.849455"/>
    </g>
   </g>
   <g id="patch_9">
    <path d="M 259.76 170.728 
L 259.76 14.76 
" style="fill:none;stroke:#000000;stroke-linecap:square;stroke-linejoin:miter;stroke-width:0.8;"/>
   </g>
   <g id="patch_10">
    <path d="M 413.28 170.728 
L 413.28 14.76 
" style="fill:none;stroke:#000000;stroke-linecap:square;stroke-linejoin:miter;stroke-width:0.8;"/>
   </g>
   <g id="patch_11">
    <path d="M 259.76 170.728 
L 413.28 170.728 
" style="fill:none;stroke:#000000;stroke-linecap:square;stroke-linejoin:miter;stroke-width:0.8;"/>
   </g>
   <g id="patch_12">
    <path d="M 259.76 14.76 
L 413.28 14.76 
" style="fill:none;stroke:#000000;stroke-linecap:square;stroke-linejoin:miter;stroke-width:0.8;"/>
   </g>
   <g id="legend_2">
    <g id="patch_13">
     <path d="M 266.76 66.86 
L 337.86 66.86 
Q 339.86 66.86 339.86 64.86 
L 339.86 21.76 
Q 339.86 19.76 337.86 19.76 
L 266.76 19.76 
Q 264.76 19.76 264.76 21.76 
L 264.76 64.86 
Q 264.76 66.86 266.76 66.86 
z
" style="fill:#ffffff;opacity:0.8;stroke:#cccccc;stroke-linejoin:miter;"/>
    </g>
    <g id="line2d_35">
     <path d="M 268.76 27.86 
L 288.76 27.86 
" style="fill:none;stroke:#1f77b4;stroke-linecap:square;stroke-width:1.5;"/>
    </g>
    <g id="line2d_36">
     <g>
      <use style="fill:#1f77b4;stroke:#1f77b4;" x="278.76" xlink:href="#m17066249ac" y="27.86"/>
     </g>
    </g>
    <g id="text_30">
     <!-- $\phi=5^\circ$ -->
     <g transform="translate(296.76 31.36)scale(0.1 -0.1)">
      <use transform="translate(0 0.015625)" xlink:href="#DejaVuSans-Oblique-981"/>
      <use transform="translate(85.449219 0.015625)" xlink:href="#DejaVuSans-61"/>
      <use transform="translate(188.720703 0.015625)" xlink:href="#DejaVuSans-53"/>
      <use transform="translate(266.938477 38.296875)scale(0.7)" xlink:href="#DejaVuSans-8728"/>
     </g>
    </g>
    <g id="line2d_37">
     <path d="M 268.76 42.56 
L 288.76 42.56 
" style="fill:none;stroke:#ff7f0e;stroke-linecap:square;stroke-width:1.5;"/>
    </g>
    <g id="line2d_38">
     <g>
      <use style="fill:#ff7f0e;stroke:#ff7f0e;" x="278.76" xlink:href="#m2cfc840f48" y="42.56"/>
     </g>
    </g>
    <g id="text_31">
     <!-- $\phi=10^\circ$ -->
     <g transform="translate(296.76 46.06)scale(0.1 -0.1)">
      <use transform="translate(0 0.015625)" xlink:href="#DejaVuSans-Oblique-981"/>
      <use transform="translate(85.449219 0.015625)" xlink:href="#DejaVuSans-61"/>
      <use transform="translate(188.720703 0.015625)" xlink:href="#DejaVuSans-49"/>
      <use transform="translate(252.34375 0.015625)" xlink:href="#DejaVuSans-48"/>
      <use transform="translate(330.561523 38.296875)scale(0.7)" xlink:href="#DejaVuSans-8728"/>
     </g>
    </g>
    <g id="line2d_39">
     <path d="M 268.76 57.26 
L 288.76 57.26 
" style="fill:none;stroke:#2ca02c;stroke-linecap:square;stroke-width:1.5;"/>
    </g>
    <g id="line2d_40">
     <g>
      <use style="fill:#2ca02c;stroke:#2ca02c;" x="278.76" xlink:href="#m8a268552e4" y="57.26"/>
     </g>
    </g>
    <g id="text_32">
     <!-- $\phi=20^\circ$ -->
     <g transform="translate(296.76 60.76)scale(0.1 -0.1)">
      <use transform="translate(0 0.015625)" xlink:href="#DejaVuSans-Oblique-981"/>
      <use transform="translate(85.449219 0.015625)" xlink:href="#DejaVuSans-61"/>
      <use transform="translate(188.720703 0.015625)" xlink:href="#DejaVuSans-50"/>
      <use transform="translate(252.34375 0.015625)" xlink:href="#DejaVuSans-48"/>
      <use transform="translate(330.561523 38.296875)scale(0.7)" xlink:href="#DejaVuSans-8728"/>
     </g>
    </g>
   </g>
  </g>
 </g>
 <defs>
  <clipPath id="paafef51ddd">
   <rect height="155.968" width="153.52" x="49.16" y="14.76"/>
  </clipPath>
  <clipPath id="pcb6d798553">
   <rect height="155.968" width="153.52" x="259.76" y="14.76"/>
  </clipPath>
 </defs>
</svg>
