<?xml version="1.0" encoding="UTF-8" standalone="no"?>
<!-- Created with Inkscape (http://www.inkscape.org/) -->

<svg
   xmlns:dc="http://purl.org/dc/elements/1.1/"
   xmlns:cc="http://creativecommons.org/ns#"
   xmlns:rdf="http://www.w3.org/1999/02/22-rdf-syntax-ns#"
   xmlns:svg="http://www.w3.org/2000/svg"
   xmlns="http://www.w3.org/2000/svg"
   xmlns:sodipodi="http://sodipodi.sourceforge.net/DTD/sodipodi-0.dtd"
   xmlns:inkscape="http://www.inkscape.org/namespaces/inkscape"
   width="128"
   height="128"
   viewBox="0 0 33.866666 33.866668"
   version="1.1"
   id="svg1839"
   inkscape:version="0.92.2 (5c3e80d, 2017-08-06)"
   sodipodi:docname="export_settings.svg">
  <defs
     id="defs1833" />
  <sodipodi:namedview
     id="base"
     pagecolor="#ffffff"
     bordercolor="#666666"
     borderopacity="1.0"
     inkscape:pageopacity="0.0"
     inkscape:pageshadow="2"
     inkscape:zoom="3.959798"
     inkscape:cx="18.995308"
     inkscape:cy="43.292319"
     inkscape:document-units="mm"
     inkscape:current-layer="layer1"
     showgrid="false"
     units="px"
     inkscape:window-width="1920"
     inkscape:window-height="1017"
     inkscape:window-x="-8"
     inkscape:window-y="-8"
     inkscape:window-maximized="1"
     inkscape:lockguides="true"
     showguides="false" />
  <metadata
     id="metadata1836">
    <rdf:RDF>
      <cc:Work
         rdf:about="">
        <dc:format>image/svg+xml</dc:format>
        <dc:type
           rdf:resource="http://purl.org/dc/dcmitype/StillImage" />
        <dc:title></dc:title>
      </cc:Work>
    </rdf:RDF>
  </metadata>
  <g
     inkscape:label="Layer 1"
     inkscape:groupmode="layer"
     id="layer1"
     transform="translate(0,-263.13332)">
    <path
       id="path4534"
       d="m 22.748179,279.46227 -1.416019,-0.83983 c 0.03742,-0.52375 0.02515,-1.05196 -0.03413,-1.57476 l 1.355807,-0.89016 c 0.454371,-0.25399 0.638048,-0.80361 0.427564,-1.28196 l -1.048912,-2.38284 c -0.209311,-0.47624 -0.739636,-0.71377 -1.211411,-0.55973 l -1.594985,0.40545 c -0.345947,-0.39698 -0.726471,-0.7608 -1.138035,-1.08676 l 0.331841,-1.58982 c 0.138993,-0.5014 -0.12253,-1.02091 -0.605114,-1.20741 l -2.429178,-0.94472 c -0.249754,-0.0981 -0.522325,-0.0915 -0.76903,0.0174 -0.213311,0.0938 -0.387582,0.25799 -0.480949,0.44378 l -0.841233,1.41648 c -0.523508,-0.0376 -1.051957,-0.0251 -1.573349,0.0324 l -0.889454,-1.35699 c -0.25587,-0.45155 -0.807369,-0.63428 -1.2829035,-0.42521 l -2.3837831,1.04914 c -0.4757669,0.20931 -0.7137699,0.73963 -0.559018,1.2107 l 0.406853,1.59405 c -0.396747,0.34642 -0.762916,0.72741 -1.0886409,1.13898 l -1.5895791,-0.33184 c -0.482122,-0.13382 -1.026322,0.13734 -1.207651,0.60535 l -0.944715,2.42987 c -0.189791,0.484 0.01902,1.02656 0.460717,1.24975 l 1.416722,0.84123 c -0.0376,0.52328 -0.02613,1.04961 0.03315,1.57265 l -1.357461,0.89039 c -0.451545,0.25612 -0.634509,0.8076 -0.425199,1.28361 l 1.0489,2.3826 c 0.210484,0.47859 0.739875,0.71448 1.211411,0.56044 l 1.5956861,-0.40593 c 0.342428,0.3944 0.7252981,0.75964 1.1373329,1.08748 l -0.3306591,1.5884 c -0.1401738,0.50094 0.1208771,1.02044 0.6041721,1.20929 l 2.4275256,0.94449 c 0.250935,0.0964 0.524449,0.0922 0.771626,-0.016 0.21283,-0.0941 0.386871,-0.25964 0.480468,-0.44567 l 0.840771,-1.41648 c 0.525152,0.0367 1.05266,0.0268 1.574994,-0.0341 l 0.888512,1.3584 c 0.255398,0.45154 0.806896,0.63428 1.282663,0.42521 l 2.384014,-1.04914 c 0.475535,-0.20931 0.713307,-0.73964 0.559258,-1.2107 l -0.40592,-1.59546 c 0.396044,-0.34337 0.759396,-0.72577 1.087237,-1.13756 l 1.588638,0.32995 c 0.483063,0.13452 1.027504,-0.13829 1.207882,-0.60535 l 0.943542,-2.42635 c 0.189791,-0.48494 -0.01689,-1.02797 -0.460006,-1.2528 z m -8.123575,2.9435 c -2.417409,1.06349 -5.2485064,-0.0353 -6.3122224,-2.45362 -1.0637171,-2.41742 0.0376,-5.24851 2.4550434,-6.31199 2.416707,-1.06348 5.248497,0.0367 6.312454,2.45433 1.063717,2.41765 -0.03831,5.24733 -2.455275,6.31128 z"
       inkscape:connector-curvature="0"
       style="fill:#808080;stroke-width:0.26458332" />
    <g
       id="g5226"
       transform="matrix(0.87616953,0,0,0.87616953,4.1202052,42.093701)"
       style="fill:#008000;stroke-width:1.14133167">
      <path
         sodipodi:nodetypes="cccc"
         inkscape:connector-curvature="0"
         id="rect5210"
         d="m 23.49565,272.33916 10.159639,9.15711 -10.159639,9.1571 z"
         style="opacity:1;fill:#008000;fill-opacity:1;fill-rule:nonzero;stroke:none;stroke-width:2.20443463;stroke-linecap:round;stroke-linejoin:round;stroke-miterlimit:4;stroke-dasharray:none;stroke-dashoffset:0;stroke-opacity:1;paint-order:stroke markers fill" />
      <rect
         y="277.64789"
         x="14.481847"
         height="7.6967549"
         width="9.5560074"
         id="rect5213"
         style="opacity:1;fill:#008000;fill-opacity:1;fill-rule:nonzero;stroke:none;stroke-width:2.20443463;stroke-linecap:round;stroke-linejoin:round;stroke-miterlimit:4;stroke-dasharray:none;stroke-dashoffset:0;stroke-opacity:1;paint-order:stroke markers fill" />
    </g>
  </g>
</svg>
