<?xml version="1.0" encoding="UTF-8" standalone="no"?>
<!-- Created with Inkscape (http://www.inkscape.org/) -->

<svg
   xmlns:dc="http://purl.org/dc/elements/1.1/"
   xmlns:cc="http://creativecommons.org/ns#"
   xmlns:rdf="http://www.w3.org/1999/02/22-rdf-syntax-ns#"
   xmlns:svg="http://www.w3.org/2000/svg"
   xmlns="http://www.w3.org/2000/svg"
   xmlns:sodipodi="http://sodipodi.sourceforge.net/DTD/sodipodi-0.dtd"
   xmlns:inkscape="http://www.inkscape.org/namespaces/inkscape"
   width="128"
   height="128"
   viewBox="0 0 33.866666 33.866668"
   version="1.1"
   id="svg1839"
   inkscape:version="0.92.2 (5c3e80d, 2017-08-06)"
   sodipodi:docname="export.svg">
  <defs
     id="defs1833" />
  <sodipodi:namedview
     id="base"
     pagecolor="#ffffff"
     bordercolor="#666666"
     borderopacity="1.0"
     inkscape:pageopacity="0.0"
     inkscape:pageshadow="2"
     inkscape:zoom="3.959798"
     inkscape:cx="18.995308"
     inkscape:cy="43.292319"
     inkscape:document-units="mm"
     inkscape:current-layer="layer1"
     showgrid="false"
     units="px"
     inkscape:window-width="1920"
     inkscape:window-height="1017"
     inkscape:window-x="-8"
     inkscape:window-y="-8"
     inkscape:window-maximized="1"
     inkscape:lockguides="true"
     showguides="false" />
  <metadata
     id="metadata1836">
    <rdf:RDF>
      <cc:Work
         rdf:about="">
        <dc:format>image/svg+xml</dc:format>
        <dc:type
           rdf:resource="http://purl.org/dc/dcmitype/StillImage" />
        <dc:title />
      </cc:Work>
    </rdf:RDF>
  </metadata>
  <g
     inkscape:label="Layer 1"
     inkscape:groupmode="layer"
     id="layer1"
     transform="translate(0,-263.13332)">
    <g
       id="g942"
       transform="matrix(1.1500716,0,0,1.3842032,31.561319,-116.57497)"
       style="stroke-width:0.79256999">
      <path
         id="rect4393-3-9-8-9-7"
         d="m -26.292459,289.68928 v 3.38293 h 0.0015 a 9.7947078,3.4750879 0 0 0 -0.0015,0.01 9.7947078,3.4750879 0 0 0 9.794707,3.47515 9.7947078,3.4750879 0 0 0 9.7947078,-3.47515 9.7947078,3.4750879 0 0 0 -0.001,-0.01 h 0.001 v -3.38293 h -0.0263 a 9.7947078,3.4750879 0 0 1 -9.7684028,3.28855 9.7947078,3.4750879 0 0 1 -9.776056,-3.28855 z"
         style="opacity:1;fill:#333333;fill-opacity:1;fill-rule:nonzero;stroke:none;stroke-width:1.53045261;stroke-linecap:round;stroke-linejoin:round;stroke-miterlimit:4;stroke-dasharray:none;stroke-dashoffset:0;stroke-opacity:1;paint-order:markers stroke fill"
         inkscape:connector-curvature="0" />
      <path
         id="rect4393-3-9-8-3"
         d="m -26.292459,285.23824 v 3.38292 h 0.0015 a 9.7947078,3.4750879 0 0 0 -0.0015,0.01 9.7947078,3.4750879 0 0 0 9.794706,3.47515 9.7947078,3.4750879 0 0 0 9.7947078,-3.47515 9.7947078,3.4750879 0 0 0 -0.001,-0.01 h 0.001 v -3.38292 h -0.0263 a 9.7947078,3.4750879 0 0 1 -9.7684028,3.28855 9.7947078,3.4750879 0 0 1 -9.776055,-3.28855 z"
         style="opacity:1;fill:#333333;fill-opacity:1;fill-rule:nonzero;stroke:none;stroke-width:1.53045261;stroke-linecap:round;stroke-linejoin:round;stroke-miterlimit:4;stroke-dasharray:none;stroke-dashoffset:0;stroke-opacity:1;paint-order:markers stroke fill"
         inkscape:connector-curvature="0" />
      <path
         id="rect4393-3-9-8-7-2"
         d="m -26.291459,280.78719 v 3.38293 h 0.0015 a 9.7947078,3.4750879 0 0 0 -0.0015,0.01 9.7947078,3.4750879 0 0 0 9.794706,3.47515 9.7947078,3.4750879 0 0 0 9.7947078,-3.47515 9.7947078,3.4750879 0 0 0 -0.001,-0.01 h 0.001 v -3.38293 h -0.0263 a 9.7947078,3.4750879 0 0 1 -9.7684028,3.28855 9.7947078,3.4750879 0 0 1 -9.776055,-3.28855 z"
         style="opacity:1;fill:#333333;fill-opacity:1;fill-rule:nonzero;stroke:none;stroke-width:1.53045261;stroke-linecap:round;stroke-linejoin:round;stroke-miterlimit:4;stroke-dasharray:none;stroke-dashoffset:0;stroke-opacity:1;paint-order:markers stroke fill"
         inkscape:connector-curvature="0" />
      <ellipse
         ry="3.4750881"
         rx="9.7947083"
         cy="279.7702"
         cx="-16.497753"
         id="path4374-4-0-4-9"
         style="opacity:1;fill:#333333;fill-opacity:1;fill-rule:nonzero;stroke:none;stroke-width:1.53045261;stroke-linecap:round;stroke-linejoin:round;stroke-miterlimit:4;stroke-dasharray:none;stroke-dashoffset:0;stroke-opacity:1;paint-order:markers stroke fill" />
    </g>
    <g
       id="g5226"
       transform="matrix(0.87616953,0,0,0.87616953,4.1202052,42.093701)"
       style="fill:#008000;stroke-width:1.14133167">
      <path
         sodipodi:nodetypes="cccc"
         inkscape:connector-curvature="0"
         id="rect5210"
         d="m 23.49565,272.33916 10.159639,9.15711 -10.159639,9.1571 z"
         style="opacity:1;fill:#008000;fill-opacity:1;fill-rule:nonzero;stroke:none;stroke-width:2.20443463;stroke-linecap:round;stroke-linejoin:round;stroke-miterlimit:4;stroke-dasharray:none;stroke-dashoffset:0;stroke-opacity:1;paint-order:stroke markers fill" />
      <rect
         y="277.64789"
         x="14.481847"
         height="7.6967549"
         width="9.5560074"
         id="rect5213"
         style="opacity:1;fill:#008000;fill-opacity:1;fill-rule:nonzero;stroke:none;stroke-width:2.20443463;stroke-linecap:round;stroke-linejoin:round;stroke-miterlimit:4;stroke-dasharray:none;stroke-dashoffset:0;stroke-opacity:1;paint-order:stroke markers fill" />
    </g>
  </g>
</svg>
