<?xml version="1.0" encoding="UTF-8" standalone="no"?>
<!-- Created with Inkscape (http://www.inkscape.org/) -->

<svg
   xmlns:dc="http://purl.org/dc/elements/1.1/"
   xmlns:cc="http://creativecommons.org/ns#"
   xmlns:rdf="http://www.w3.org/1999/02/22-rdf-syntax-ns#"
   xmlns:svg="http://www.w3.org/2000/svg"
   xmlns="http://www.w3.org/2000/svg"
   xmlns:sodipodi="http://sodipodi.sourceforge.net/DTD/sodipodi-0.dtd"
   xmlns:inkscape="http://www.inkscape.org/namespaces/inkscape"
   width="128"
   height="128"
   viewBox="0 0 33.866666 33.866668"
   version="1.1"
   id="svg1839"
   inkscape:version="0.92.2 (5c3e80d, 2017-08-06)"
   sodipodi:docname="load_data.svg">
  <defs
     id="defs1833" />
  <sodipodi:namedview
     id="base"
     pagecolor="#ffffff"
     bordercolor="#666666"
     borderopacity="1.0"
     inkscape:pageopacity="0.0"
     inkscape:pageshadow="2"
     inkscape:zoom="2.8"
     inkscape:cx="35.310271"
     inkscape:cy="59.063834"
     inkscape:document-units="mm"
     inkscape:current-layer="layer1"
     showgrid="false"
     units="px"
     inkscape:window-width="1920"
     inkscape:window-height="1017"
     inkscape:window-x="-8"
     inkscape:window-y="-8"
     inkscape:window-maximized="1"
     inkscape:lockguides="true"
     showguides="false" />
  <metadata
     id="metadata1836">
    <rdf:RDF>
      <cc:Work
         rdf:about="">
        <dc:format>image/svg+xml</dc:format>
        <dc:type
           rdf:resource="http://purl.org/dc/dcmitype/StillImage" />
        <dc:title />
      </cc:Work>
    </rdf:RDF>
  </metadata>
  <g
     inkscape:label="Layer 1"
     inkscape:groupmode="layer"
     id="layer1"
     transform="translate(0,-263.13332)">
    <g
       id="g4372"
       transform="matrix(1.1782456,0,0,1.1782456,-5.6535225,-53.181686)"
       style="stroke-width:0.84871942">
      <path
         id="rect4322-9"
         transform="matrix(0.26458333,0,0,0.26458333,0,263.13332)"
         d="M 30.714844,20.142578 V 110.5 H 102.32227 V 80.607422 l -5.357426,-5 V 20.142578 Z"
         style="opacity:1;fill:#f0cd6a;fill-opacity:1;fill-rule:nonzero;stroke:none;stroke-width:0.64155179;stroke-linecap:square;stroke-linejoin:miter;stroke-miterlimit:4;stroke-dasharray:none;stroke-dashoffset:0;stroke-opacity:1;paint-order:markers fill stroke"
         inkscape:connector-curvature="0" />
      <path
         sodipodi:nodetypes="ccccccc"
         inkscape:connector-curvature="0"
         id="rect4322"
         transform="matrix(0.26458333,0,0,0.26458333,0,263.13332)"
         d="m 30.714844,20.142678 v 90.456302 l 21.75,18.17969 V 98.142578 l 2.177734,-2.164266 V 38.142678 Z"
         style="opacity:1;fill:#ffe597;fill-opacity:1;fill-rule:nonzero;stroke:none;stroke-width:0.64155173;stroke-linecap:square;stroke-linejoin:miter;stroke-miterlimit:4;stroke-dasharray:none;stroke-dashoffset:0;stroke-opacity:1;paint-order:markers fill stroke" />
    </g>
    <g
       id="g5202"
       transform="translate(24.28497,-3.1183036)">
      <path
         inkscape:connector-curvature="0"
         id="rect4393"
         d="m 12.764066,287.72691 v 4.2253 h 0.0015 a 9.7947068,4.3404209 0 0 0 -0.0015,0.0122 9.7947068,4.3404209 0 0 0 9.794708,4.34049 9.7947068,4.3404209 0 0 0 9.794707,-4.34049 9.7947068,4.3404209 0 0 0 -9.25e-4,-0.0122 h 9.25e-4 v -4.2253 h -0.0263 a 9.7947077,4.3404209 0 0 1 -9.768401,4.10742 9.7947077,4.3404209 0 0 1 -9.776056,-4.10742 z"
         style="opacity:1;fill:#333333;fill-opacity:1;fill-rule:nonzero;stroke:none;stroke-width:0.40000001;stroke-linecap:round;stroke-linejoin:round;stroke-miterlimit:4;stroke-dasharray:none;stroke-dashoffset:0;stroke-opacity:1;paint-order:stroke markers fill" />
      <path
         inkscape:connector-curvature="0"
         id="rect4393-4"
         d="m 12.737766,283.48941 v 4.2253 h 0.0015 a 9.794707,4.3404211 0 0 0 -0.0015,0.0122 9.794707,4.3404211 0 0 0 9.794708,4.34049 9.794707,4.3404211 0 0 0 9.794707,-4.34049 9.794707,4.3404211 0 0 0 -9.26e-4,-0.0122 h 9.26e-4 v -4.2253 h -0.0263 a 9.7947078,4.3404211 0 0 1 -9.768402,4.10742 9.7947078,4.3404211 0 0 1 -9.776056,-4.10742 z"
         style="opacity:1;fill:#999999;fill-opacity:1;fill-rule:nonzero;stroke:none;stroke-width:0.40000001;stroke-linecap:round;stroke-linejoin:round;stroke-miterlimit:4;stroke-dasharray:none;stroke-dashoffset:0;stroke-opacity:1;paint-order:stroke markers fill" />
      <path
         id="rect4393-3"
         d="m 12.711466,279.2519 v 4.22531 h 0.0015 a 9.7947077,4.3404209 0 0 0 -0.0015,0.0122 9.7947077,4.3404209 0 0 0 9.794707,4.3405 9.7947077,4.3404209 0 0 0 9.794708,-4.3405 9.7947077,4.3404209 0 0 0 -10e-4,-0.0122 h 10e-4 v -4.22531 h -0.0263 a 9.7947077,4.3404209 0 0 1 -9.768401,4.10743 9.7947077,4.3404209 0 0 1 -9.776056,-4.10743 z"
         style="opacity:1;fill:#333333;fill-opacity:1;fill-rule:nonzero;stroke:none;stroke-width:0.40000001;stroke-linecap:round;stroke-linejoin:round;stroke-miterlimit:4;stroke-dasharray:none;stroke-dashoffset:0;stroke-opacity:1;paint-order:stroke markers fill"
         inkscape:connector-curvature="0" />
      <path
         id="rect4393-3-8"
         d="m 12.711466,275.01439 v 4.22531 h 0.0015 a 9.7947078,4.3404211 0 0 0 -0.0015,0.0122 9.7947078,4.3404211 0 0 0 9.794707,4.3405 9.7947078,4.3404211 0 0 0 9.794708,-4.3405 9.7947078,4.3404211 0 0 0 -10e-4,-0.0122 h 10e-4 v -4.22531 h -0.0263 a 9.7947078,4.3404211 0 0 1 -9.768402,4.10743 9.7947078,4.3404211 0 0 1 -9.776056,-4.10743 z"
         style="opacity:1;fill:#999999;fill-opacity:1;fill-rule:nonzero;stroke:none;stroke-width:0.40000001;stroke-linecap:round;stroke-linejoin:round;stroke-miterlimit:4;stroke-dasharray:none;stroke-dashoffset:0;stroke-opacity:1;paint-order:stroke markers fill"
         inkscape:connector-curvature="0" />
      <ellipse
         ry="4.3404212"
         rx="9.7947083"
         cy="274.85696"
         cx="22.506174"
         id="path4374-4"
         style="opacity:1;fill:#333333;fill-opacity:1;fill-rule:nonzero;stroke:none;stroke-width:0.40000001;stroke-linecap:round;stroke-linejoin:round;stroke-miterlimit:4;stroke-dasharray:none;stroke-dashoffset:0;stroke-opacity:1;paint-order:stroke markers fill" />
    </g>
    <g
       id="g5208"
       transform="translate(-27.081995,7.7485119)">
      <path
         id="rect4393-3-9-8-9"
         d="m 40.367207,279.88266 v 4.22531 h 0.0015 a 9.7947078,4.3404211 0 0 0 -0.0015,0.0122 9.7947078,4.3404211 0 0 0 9.794707,4.3405 9.7947078,4.3404211 0 0 0 9.794708,-4.3405 9.7947078,4.3404211 0 0 0 -0.001,-0.0122 h 0.001 v -4.22531 h -0.0263 a 9.7947078,4.3404211 0 0 1 -9.768403,4.10743 9.7947078,4.3404211 0 0 1 -9.776056,-4.10743 z"
         style="opacity:1;fill:#333333;fill-opacity:1;fill-rule:nonzero;stroke:#ffffff;stroke-width:1.93145835;stroke-linecap:round;stroke-linejoin:round;stroke-miterlimit:4;stroke-dasharray:none;stroke-dashoffset:0;stroke-opacity:1;paint-order:stroke markers fill"
         inkscape:connector-curvature="0" />
      <path
         id="rect4393-3-9-8"
         d="m 40.367207,275.64515 v 4.22531 h 0.0015 a 9.7947078,4.3404211 0 0 0 -0.0015,0.0122 9.7947078,4.3404211 0 0 0 9.794706,4.3405 9.7947078,4.3404211 0 0 0 9.794708,-4.3405 9.7947078,4.3404211 0 0 0 -10e-4,-0.0122 h 10e-4 v -4.22531 h -0.0263 a 9.7947078,4.3404211 0 0 1 -9.768403,4.10743 9.7947078,4.3404211 0 0 1 -9.776055,-4.10743 z"
         style="opacity:1;fill:#333333;fill-opacity:1;fill-rule:nonzero;stroke:#ffffff;stroke-width:1.93145835;stroke-linecap:round;stroke-linejoin:round;stroke-miterlimit:4;stroke-dasharray:none;stroke-dashoffset:0;stroke-opacity:1;paint-order:stroke markers fill"
         inkscape:connector-curvature="0" />
      <path
         id="rect4393-3-9-8-7"
         d="m 40.367207,271.41984 v 4.22531 h 0.0015 a 9.7947078,4.3404211 0 0 0 -0.0015,0.0122 9.7947078,4.3404211 0 0 0 9.794706,4.3405 9.7947078,4.3404211 0 0 0 9.794708,-4.3405 9.7947078,4.3404211 0 0 0 -10e-4,-0.0122 h 10e-4 v -4.22531 h -0.0263 a 9.7947078,4.3404211 0 0 1 -9.768403,4.10743 9.7947078,4.3404211 0 0 1 -9.776055,-4.10743 z"
         style="opacity:1;fill:#333333;fill-opacity:1;fill-rule:nonzero;stroke:#ffffff;stroke-width:1.93145835;stroke-linecap:round;stroke-linejoin:round;stroke-miterlimit:4;stroke-dasharray:none;stroke-dashoffset:0;stroke-opacity:1;paint-order:stroke markers fill"
         inkscape:connector-curvature="0" />
      <ellipse
         ry="4.3404212"
         rx="9.7947083"
         cy="271.32956"
         cx="50.161915"
         id="path4374-4-0-4"
         style="opacity:1;fill:#333333;fill-opacity:1;fill-rule:nonzero;stroke:#ffffff;stroke-width:1.93145835;stroke-linecap:round;stroke-linejoin:round;stroke-miterlimit:4;stroke-dasharray:none;stroke-dashoffset:0;stroke-opacity:1;paint-order:stroke markers fill" />
    </g>
  </g>
</svg>
