<?xml version="1.0" encoding="UTF-8" standalone="no"?>
<!-- Created with Inkscape (http://www.inkscape.org/) -->

<svg
   xmlns:ns0="http://www.iki.fi/pav/software/textext/"
   xmlns:dc="http://purl.org/dc/elements/1.1/"
   xmlns:cc="http://creativecommons.org/ns#"
   xmlns:rdf="http://www.w3.org/1999/02/22-rdf-syntax-ns#"
   xmlns:svg="http://www.w3.org/2000/svg"
   xmlns="http://www.w3.org/2000/svg"
   xmlns:sodipodi="http://sodipodi.sourceforge.net/DTD/sodipodi-0.dtd"
   xmlns:inkscape="http://www.inkscape.org/namespaces/inkscape"
   width="581.13629mm"
   height="84.666656mm"
   viewBox="0 0 581.1363 84.666656"
   version="1.1"
   id="svg8"
   inkscape:version="0.92.4 (0.92.4+202001282325+e23c7ed)"
   sodipodi:docname="0_home_ken_Mydocs_Python_QCM_py_doc_figures_2layer.svg">
  <defs
     id="defs2" />
  <sodipodi:namedview
     id="base"
     pagecolor="#ffffff"
     bordercolor="#666666"
     borderopacity="1.0"
     inkscape:pageopacity="0.0"
     inkscape:pageshadow="2"
     inkscape:zoom="0.49497475"
     inkscape:cx="755.27117"
     inkscape:cy="-90.171254"
     inkscape:document-units="mm"
     inkscape:current-layer="layer1"
     showgrid="true"
     inkscape:window-width="1920"
     inkscape:window-height="1057"
     inkscape:window-x="1280"
     inkscape:window-y="0"
     inkscape:window-maximized="1"
     inkscape:snap-global="false">
    <inkscape:grid
       originy="-135.46666"
       originx="8.5802602"
       id="grid4504"
       type="xygrid" />
  </sodipodi:namedview>
  <metadata
     id="metadata5">
    <rdf:RDF>
      <cc:Work
         rdf:about="">
        <dc:format>image/svg+xml</dc:format>
        <dc:type
           rdf:resource="http://purl.org/dc/dcmitype/StillImage" />
        <dc:title />
      </cc:Work>
    </rdf:RDF>
  </metadata>
  <g
     inkscape:label="Layer 1"
     inkscape:groupmode="layer"
     id="layer1"
     transform="translate(8.5802605,-76.866668)">
    <rect
       style="color:#000000;clip-rule:nonzero;display:inline;overflow:visible;visibility:visible;opacity:1;isolation:auto;mix-blend-mode:normal;color-interpolation:sRGB;color-interpolation-filters:linearRGB;solid-color:#000000;solid-opacity:1;fill:#d4aa00;fill-opacity:1;fill-rule:nonzero;stroke:#220000;stroke-width:0;stroke-linecap:butt;stroke-linejoin:miter;stroke-miterlimit:10;stroke-dasharray:none;stroke-dashoffset:0;stroke-opacity:1;color-rendering:auto;image-rendering:auto;shape-rendering:auto;text-rendering:auto;enable-background:accumulate"
       id="rect4506"
       width="451.55557"
       height="42.333328"
       x="121.00043"
       y="119.2"
       rx="0.5026263"
       ry="4.2333312" />
    <rect
       style="color:#000000;clip-rule:nonzero;display:inline;overflow:visible;visibility:visible;opacity:1;isolation:auto;mix-blend-mode:normal;color-interpolation:sRGB;color-interpolation-filters:linearRGB;solid-color:#000000;solid-opacity:1;fill:#ff0000;fill-opacity:1;fill-rule:nonzero;stroke:#220000;stroke-width:0;stroke-linecap:butt;stroke-linejoin:miter;stroke-miterlimit:10;stroke-dasharray:none;stroke-dashoffset:0;stroke-opacity:1;color-rendering:auto;image-rendering:auto;shape-rendering:auto;text-rendering:auto;enable-background:accumulate"
       id="rect4508"
       width="451.55563"
       height="14.111114"
       x="121.00043"
       y="105.08887"
       rx="0.5026263"
       ry="4.2333331" />
    <rect
       style="color:#000000;clip-rule:nonzero;display:inline;overflow:visible;visibility:visible;opacity:1;isolation:auto;mix-blend-mode:normal;color-interpolation:sRGB;color-interpolation-filters:linearRGB;solid-color:#000000;solid-opacity:1;fill:#0000ff;fill-opacity:1;fill-rule:nonzero;stroke:#220000;stroke-width:0;stroke-linecap:butt;stroke-linejoin:miter;stroke-miterlimit:10;stroke-dasharray:none;stroke-dashoffset:0;stroke-opacity:1;color-rendering:auto;image-rendering:auto;shape-rendering:auto;text-rendering:auto;enable-background:accumulate"
       id="rect4510"
       width="451.55563"
       height="28.222227"
       x="121.00043"
       y="76.866669"
       rx="0.5026263"
       ry="4.2333331" />
    <text
       xml:space="preserve"
       style="color:#000000;font-style:normal;font-variant:normal;font-weight:normal;font-stretch:normal;font-size:23.72924805px;line-height:100%;font-family:'Latin Modern Roman';-inkscape-font-specification:'Latin Modern Roman, Normal';font-variant-ligatures:normal;font-variant-caps:normal;font-variant-numeric:normal;font-feature-settings:normal;text-indent:0;text-align:start;text-decoration:none;text-decoration-line:none;text-decoration-style:solid;text-decoration-color:#000000;letter-spacing:normal;word-spacing:normal;text-transform:none;writing-mode:lr-tb;direction:ltr;baseline-shift:baseline;text-anchor:start;white-space:normal;clip-rule:nonzero;display:inline;overflow:visible;visibility:visible;opacity:1;isolation:auto;mix-blend-mode:normal;color-interpolation:sRGB;color-interpolation-filters:linearRGB;solid-color:#000000;solid-opacity:1;fill:#000000;fill-opacity:1;fill-rule:nonzero;stroke:#ffffff;stroke-width:0;stroke-linecap:butt;stroke-linejoin:miter;stroke-miterlimit:10;stroke-dasharray:none;stroke-dashoffset:0;stroke-opacity:1;color-rendering:auto;image-rendering:auto;shape-rendering:auto;text-rendering:auto;enable-background:accumulate"
       x="304.19293"
       y="144.65039"
       id="text4536"><tspan
         sodipodi:role="line"
         id="tspan4534"
         x="304.19293"
         y="144.65039"
         style="fill:#000000;stroke:#ffffff;stroke-width:0">Electrode</tspan></text>
    <g
       style="font-style:normal;font-variant:normal;font-weight:normal;font-stretch:normal;letter-spacing:normal;word-spacing:normal;text-anchor:start;fill:#ff0000;fill-opacity:1;fill-rule:evenodd;stroke:#000000;stroke-linecap:butt;stroke-linejoin:miter;stroke-miterlimit:10.43299961;stroke-dasharray:none;stroke-dashoffset:0;stroke-opacity:1"
       ns0:jacobian_sqrt="1.411112"
       inkscapeversion="0.92.2"
       ns0:alignment="middle center"
       ns0:scale="4.0"
       ns0:preamble="/home/ken/.config/inkscape/extensions/textext/default_packages.tex"
       ns0:text="film (layer 1)"
       ns0:pdfconverter="pstoedit"
       ns0:texconverter="pdflatex"
       ns0:version="0.11.0"
       word-spacing="normal"
       letter-spacing="normal"
       font-size-adjust="none"
       font-stretch="normal"
       font-weight="normal"
       font-variant="normal"
       font-style="normal"
       stroke-miterlimit="10.433"
       xml:space="preserve"
       transform="matrix(1.411112,0,0,-1.411112,-187.52736,1041.5387)"
       id="content">
<path
   id="path889"
   style="fill:#ff0000;fill-opacity:1;stroke:#000000;stroke-width:0;stroke-opacity:1"
   d="m 151.99,661.2 h 0.02 0.02 0.02 0.02 0.02 0.02 0.02 0.01 l 0.04,-0.01 h 0.03 l 0.03,-0.01 h 0.02 l 0.03,-0.01 0.02,-0.01 0.02,-0.01 0.02,-0.01 0.02,-0.01 0.02,-0.01 0.02,-0.02 0.01,-0.01 0.01,-0.02 0.01,-0.01 0.01,-0.02 0.01,-0.02 0.01,-0.02 0.01,-0.02 0.01,-0.03 v -0.02 l 0.01,-0.03 v -0.03 -0.03 -0.03 l 0.01,-0.03 v -0.04 -0.03 -0.04 -2.69 c 0,-0.43 -0.1,-0.43 -0.77,-0.43 v -0.32 c 0.33,0.02 0.86,0.04 1.1,0.04 0.25,0 0.75,-0.02 1.11,-0.04 v 0.32 c -0.68,0 -0.79,0 -0.79,0.43 v 3.66 l -1.25,-0.09 c -0.15,-0.02 -0.15,-0.02 -0.17,-0.02 -0.01,-0.01 -0.04,-0.01 -0.19,-0.01 h -1.17 v 1.12 c 0,0.98 0.86,1.38 1.49,1.38 0.29,0 0.64,-0.1 0.84,-0.33 -0.41,-0.02 -0.47,-0.3 -0.47,-0.46 0,-0.32 0.27,-0.45 0.46,-0.45 0.23,0 0.45,0.16 0.45,0.45 0,0.6 -0.55,1 -1.28,1 -0.92,0 -2.11,-0.5 -2.11,-1.59 v -1.12 h -0.78 v -0.32 h 0.78 v -3.22 c 0,-0.43 -0.11,-0.43 -0.77,-0.43 v -0.32 c 0.33,0.02 0.85,0.04 1.1,0.04 0.25,0 0.73,-0.02 1.11,-0.04 v 0.32 c -0.68,0 -0.79,0 -0.79,0.43 v 3.22 z"
   inkscape:connector-curvature="0" />
<path
   id="path891"
   style="fill:#ff0000;fill-opacity:1;stroke:#000000;stroke-width:0;stroke-opacity:1"
   d="m 156.01,664.12 -1.44,-0.1 v -0.3 c 0.69,0 0.78,-0.08 0.78,-0.56 v -5.18 c 0,-0.43 -0.1,-0.43 -0.78,-0.43 v -0.32 c 0.33,0.02 0.86,0.04 1.11,0.04 0.24,0 0.74,-0.02 1.1,-0.04 v 0.32 c -0.66,0 -0.77,0 -0.77,0.43 z"
   inkscape:connector-curvature="0" />
<path
   id="path893"
   style="fill:#ff0000;fill-opacity:1;stroke:#000000;stroke-width:0;stroke-opacity:1"
   d="m 158.1,660.66 v -2.68 c 0,-0.43 -0.1,-0.43 -0.78,-0.43 v -0.32 c 0.36,0.02 0.86,0.04 1.13,0.04 0.26,0 0.78,-0.02 1.11,-0.04 v 0.32 c -0.66,0 -0.77,0 -0.77,0.43 v 1.83 c 0,1.03 0.71,1.6 1.35,1.6 0.62,0 0.73,-0.53 0.73,-1.11 v -2.32 c 0,-0.43 -0.11,-0.43 -0.78,-0.43 v -0.32 c 0.34,0.02 0.86,0.04 1.12,0.04 0.25,0 0.79,-0.02 1.11,-0.04 v 0.32 c -0.65,0 -0.76,0 -0.76,0.43 v 1.83 c 0,1.03 0.7,1.6 1.33,1.6 0.62,0 0.73,-0.53 0.73,-1.11 v -2.32 c 0,-0.43 -0.11,-0.43 -0.77,-0.43 v -0.32 c 0.35,0.02 0.86,0.04 1.13,0.04 0.25,0 0.77,-0.02 1.11,-0.04 v 0.32 c -0.52,0 -0.77,0 -0.78,0.29 v 1.89 c 0,0.86 0,1.18 -0.3,1.52 -0.14,0.17 -0.47,0.37 -1.05,0.37 -0.84,0 -1.28,-0.59 -1.43,-0.96 -0.14,0.86 -0.88,0.96 -1.33,0.96 -0.72,0 -1.19,-0.42 -1.47,-1.04 v 1.04 l -1.41,-0.1 v -0.32 c 0.71,0 0.78,-0.06 0.78,-0.54 z"
   inkscape:connector-curvature="0" />
<path
   id="path895"
   style="fill:#ff0000;fill-opacity:1;stroke:#000000;stroke-width:0;stroke-opacity:1"
   d="m 171.91,654.84 v 0.01 0.01 0 0 0.01 0 0 0.01 0 0.01 h -0.01 v 0.01 0 l -0.01,0.01 v 0 0.01 l -0.01,0.01 v 0 l -0.01,0.01 v 0 l -0.01,0.01 v 0 0.01 h -0.01 v 0.01 h -0.01 v 0.01 0 l -0.01,0.01 v 0 l -0.01,0.01 h -0.01 v 0.01 l -0.01,0.01 v 0 l -0.01,0.01 v 0 l -0.01,0.01 -0.01,0.01 v 0.01 h -0.01 c -1.25,1.27 -1.56,3.14 -1.56,4.66 0,1.73 0.37,3.45 1.59,4.7 0.12,0.11 0.12,0.14 0.12,0.16 0,0.08 -0.03,0.11 -0.09,0.11 -0.09,0 -0.98,-0.67 -1.58,-1.94 -0.5,-1.09 -0.62,-2.2 -0.62,-3.03 0,-0.78 0.11,-1.99 0.65,-3.1 0.6,-1.23 1.46,-1.87 1.55,-1.87 0.06,0 0.09,0.03 0.09,0.09 z"
   inkscape:connector-curvature="0" />
<path
   id="path897"
   style="fill:#ff0000;fill-opacity:1;stroke:#000000;stroke-width:0;stroke-opacity:1"
   d="m 174.27,664.12 -1.44,-0.1 v -0.3 c 0.69,0 0.78,-0.08 0.78,-0.56 v -5.18 c 0,-0.43 -0.11,-0.43 -0.78,-0.43 v -0.32 c 0.33,0.02 0.86,0.04 1.11,0.04 0.24,0 0.74,-0.02 1.1,-0.04 v 0.32 c -0.66,0 -0.77,0 -0.77,0.43 z"
   inkscape:connector-curvature="0" />
<path
   id="path899"
   style="fill:#ff0000;fill-opacity:1;stroke:#000000;stroke-width:0;stroke-opacity:1"
   d="m 178.58,657.98 0.01,-0.03 v -0.04 l 0.01,-0.04 v -0.03 l 0.01,-0.04 0.01,-0.04 0.02,-0.03 0.01,-0.04 0.01,-0.03 0.02,-0.04 0.02,-0.03 0.01,-0.03 0.02,-0.04 0.02,-0.03 0.03,-0.03 0.02,-0.03 0.03,-0.03 0.02,-0.02 0.03,-0.03 0.03,-0.02 0.03,-0.03 0.03,-0.02 0.03,-0.02 0.03,-0.02 0.04,-0.01 0.04,-0.02 0.03,-0.01 0.04,-0.01 0.04,-0.01 h 0.04 l 0.04,-0.01 h 0.05 c 0.22,0 0.81,0.14 0.81,0.95 v 0.55 h -0.23 v -0.55 c 0,-0.57 -0.25,-0.64 -0.36,-0.64 -0.33,0 -0.38,0.46 -0.38,0.5 v 1.99 c 0,0.42 0,0.8 -0.36,1.17 -0.39,0.39 -0.87,0.55 -1.36,0.55 -0.81,0 -1.5,-0.47 -1.5,-1.13 0,-0.29 0.21,-0.47 0.46,-0.47 0.28,0 0.47,0.21 0.47,0.46 0,0.12 -0.07,0.45 -0.52,0.47 0.27,0.34 0.77,0.45 1.08,0.45 0.48,0 1.04,-0.39 1.04,-1.28 v -0.36 -0.21 -1 c 0,-0.93 -0.71,-1.28 -1.15,-1.28 -0.49,0 -0.89,0.35 -0.89,0.85 0,0.54 0.4,1.37 2.04,1.43 v 0 0.21 c -0.5,-0.03 -1.2,-0.06 -1.82,-0.36 -0.74,-0.35 -0.99,-0.86 -0.99,-1.3 0,-0.79 0.96,-1.05 1.58,-1.05 0.66,0 1.13,0.4 1.31,0.86 z"
   inkscape:connector-curvature="0" />
<path
   id="path901"
   style="fill:#ff0000;fill-opacity:1;stroke:#000000;stroke-width:0;stroke-opacity:1"
   d="m 184.1,660.58 0.02,0.03 0.01,0.02 0.01,0.03 0.01,0.03 0.02,0.02 0.01,0.03 0.02,0.02 0.01,0.02 0.01,0.03 0.02,0.02 0.03,0.04 0.03,0.03 0.03,0.04 0.04,0.03 0.03,0.03 0.03,0.03 0.04,0.02 0.03,0.02 0.03,0.02 0.04,0.02 0.03,0.01 0.03,0.02 0.04,0.01 0.03,0.01 0.03,0.01 0.03,0.01 h 0.03 l 0.03,0.01 h 0.03 l 0.03,0.01 h 0.03 0.02 0.02 0.02 0.02 0.02 0.02 v 0.32 c -0.24,-0.02 -0.52,-0.04 -0.75,-0.04 -0.18,0 -0.64,0.02 -0.86,0.04 v -0.32 c 0.31,0 0.47,-0.17 0.47,-0.42 0,-0.09 -0.02,-0.12 -0.07,-0.23 l -1,-2.46 -1.11,2.68 c -0.03,0.11 -0.06,0.14 -0.06,0.18 0,0.25 0.38,0.25 0.56,0.25 v 0.32 c -0.25,-0.02 -0.9,-0.04 -1.07,-0.04 -0.27,0 -0.68,0.02 -0.97,0.04 v -0.32 c 0.48,0 0.67,0 0.81,-0.34 l 1.48,-3.63 c -0.04,-0.12 -0.18,-0.45 -0.25,-0.59 -0.21,-0.53 -0.5,-1.22 -1.12,-1.22 -0.06,0 -0.28,0 -0.47,0.17 0.3,0.05 0.38,0.27 0.38,0.43 0,0.25 -0.19,0.42 -0.41,0.42 -0.2,0 -0.42,-0.14 -0.42,-0.44 0,-0.44 0.42,-0.8 0.92,-0.8 0.62,0 1.03,0.57 1.26,1.13 z"
   inkscape:connector-curvature="0" />
<path
   id="path903"
   style="fill:#ff0000;fill-opacity:1;stroke:#000000;stroke-width:0;stroke-opacity:1"
   d="m 186.07,659.53 v 0.2 c 0.06,1.49 0.89,1.74 1.23,1.74 1.03,0 1.13,-1.35 1.13,-1.74 h -2.36 v -0.2 h 2.76 c 0.22,0 0.25,0 0.25,0.2 0,0.99 -0.53,1.96 -1.78,1.96 -1.15,0 -2.06,-1.03 -2.06,-2.27 0,-1.33 1.05,-2.3 2.19,-2.3 1.2,0 1.65,1.11 1.65,1.3 0,0.1 -0.08,0.11 -0.12,0.11 -0.1,0 -0.11,-0.06 -0.14,-0.14 -0.35,-1.01 -1.24,-1.01 -1.35,-1.01 -0.48,0 -0.89,0.29 -1.11,0.65 -0.29,0.49 -0.29,1.14 -0.29,1.5 z"
   inkscape:connector-curvature="0" />
<path
   id="path905"
   style="fill:#ff0000;fill-opacity:1;stroke:#000000;stroke-width:0;stroke-opacity:1"
   d="m 191.04,660.53 v 1.09 l -1.38,-0.1 v -0.32 c 0.69,0 0.77,-0.06 0.77,-0.54 v -2.68 c 0,-0.43 -0.11,-0.43 -0.77,-0.43 v -0.32 c 0.39,0.02 0.85,0.04 1.13,0.04 0.41,0 0.87,0 1.26,-0.04 v 0.32 h -0.2 c -0.73,0 -0.76,0.11 -0.76,0.47 v 1.51 c 0,0.99 0.42,1.88 1.17,1.88 0.08,0 0.09,0 0.11,-0.02 -0.03,0 -0.22,-0.12 -0.22,-0.37 0,-0.29 0.2,-0.44 0.42,-0.44 0.19,0 0.42,0.12 0.42,0.44 0,0.32 -0.29,0.6 -0.73,0.6 -0.72,0 -1.08,-0.67 -1.22,-1.09 z"
   inkscape:connector-curvature="0" />
<path
   id="path907"
   style="fill:#ff0000;fill-opacity:1;stroke:#000000;stroke-width:0;stroke-opacity:1"
   d="m 199.53,663.59 v 0.01 0.02 0.01 0.01 0 0.01 0.01 0.01 0.01 0.01 0.01 0 0.01 l -0.01,0.01 v 0.01 0 0.01 0 0.02 0.01 l -0.01,0.01 v 0 0.01 l -0.01,0.01 v 0.01 h -0.01 v 0.01 h -0.01 l -0.01,0.01 v 0 h -0.01 v 0 h -0.01 v 0 l -0.01,0.01 h -0.01 v 0 h -0.01 v 0 h -0.01 -0.01 -0.01 v 0 h -0.01 -0.01 -0.01 -0.01 -0.01 -0.01 -0.01 -0.01 -0.01 -0.01 c -0.61,-0.62 -1.48,-0.62 -1.79,-0.62 v -0.31 c 0.18,0 0.78,0 1.29,0.26 v -5.15 c 0,-0.36 -0.03,-0.47 -0.92,-0.47 h -0.33 v -0.32 c 0.36,0.04 1.22,0.04 1.61,0.04 0.41,0 1.27,0 1.61,-0.04 v 0.32 h -0.31 c -0.89,0 -0.92,0.11 -0.92,0.47 z"
   inkscape:connector-curvature="0" />
<path
   id="path909"
   style="fill:#ff0000;fill-opacity:1;stroke:#000000;stroke-width:0;stroke-opacity:1"
   d="m 204.46,659.72 v 0.07 0.08 0.16 l -0.01,0.17 -0.01,0.17 -0.02,0.19 -0.02,0.18 -0.03,0.2 -0.03,0.2 -0.04,0.2 -0.05,0.21 -0.05,0.2 -0.06,0.21 -0.07,0.22 -0.08,0.21 -0.04,0.11 -0.05,0.1 -0.04,0.11 -0.06,0.1 c -0.59,1.22 -1.45,1.88 -1.54,1.88 -0.06,0 -0.11,-0.05 -0.11,-0.11 0,-0.02 0,-0.05 0.19,-0.22 0.98,-0.98 1.54,-2.56 1.54,-4.64 0,-1.7 -0.37,-3.45 -1.59,-4.7 -0.14,-0.11 -0.14,-0.14 -0.14,-0.18 0,-0.04 0.05,-0.09 0.11,-0.09 0.09,0 0.98,0.67 1.58,1.94 0.5,1.09 0.62,2.2 0.62,3.03 z"
   inkscape:connector-curvature="0" />
</g>    <g
       style="font-style:normal;font-variant:normal;font-weight:normal;font-stretch:normal;letter-spacing:normal;word-spacing:normal;text-anchor:start;fill:#0000ff;fill-opacity:1;fill-rule:evenodd;stroke:#000000;stroke-linecap:butt;stroke-linejoin:miter;stroke-miterlimit:10.43299961;stroke-dasharray:none;stroke-dashoffset:0;stroke-opacity:1"
       ns0:jacobian_sqrt="1.411112"
       inkscapeversion="0.92.2"
       ns0:alignment="middle center"
       ns0:scale="4.0"
       ns0:preamble="/home/ken/.config/inkscape/extensions/textext/default_packages.tex"
       ns0:text="membrane (layer 2)"
       ns0:pdfconverter="pstoedit"
       ns0:texconverter="pdflatex"
       ns0:version="0.11.0"
       word-spacing="normal"
       letter-spacing="normal"
       font-size-adjust="none"
       font-stretch="normal"
       font-weight="normal"
       font-variant="normal"
       font-style="normal"
       stroke-miterlimit="10.433"
       xml:space="preserve"
       transform="matrix(1.411112,0,0,-1.411112,-218.86417,1021.3838)"
       id="g1033">
<path
   id="path1001"
   style="fill:#0000ff;fill-opacity:1;stroke:#000000;stroke-width:0;stroke-opacity:1"
   d="m 149.8,660.66 v -2.68 c 0,-0.43 -0.1,-0.43 -0.78,-0.43 v -0.32 c 0.36,0.02 0.86,0.04 1.13,0.04 0.26,0 0.78,-0.02 1.11,-0.04 v 0.32 c -0.66,0 -0.77,0 -0.77,0.43 v 1.83 c 0,1.03 0.71,1.6 1.35,1.6 0.62,0 0.73,-0.53 0.73,-1.11 v -2.32 c 0,-0.43 -0.11,-0.43 -0.78,-0.43 v -0.32 c 0.34,0.02 0.86,0.04 1.12,0.04 0.25,0 0.79,-0.02 1.11,-0.04 v 0.32 c -0.65,0 -0.76,0 -0.76,0.43 v 1.83 c 0,1.03 0.7,1.6 1.33,1.6 0.62,0 0.73,-0.53 0.73,-1.11 v -2.32 c 0,-0.43 -0.11,-0.43 -0.77,-0.43 v -0.32 c 0.35,0.02 0.86,0.04 1.13,0.04 0.25,0 0.77,-0.02 1.11,-0.04 v 0.32 c -0.52,0 -0.77,0 -0.78,0.29 v 1.89 c 0,0.86 0,1.18 -0.3,1.52 -0.14,0.17 -0.47,0.37 -1.05,0.37 -0.84,0 -1.28,-0.59 -1.43,-0.96 -0.14,0.86 -0.88,0.96 -1.33,0.96 -0.72,0 -1.19,-0.42 -1.47,-1.04 v 1.04 l -1.41,-0.1 v -0.32 c 0.71,0 0.78,-0.06 0.78,-0.54 z"
   inkscape:connector-curvature="0" />
<path
   id="path1003"
   style="fill:#0000ff;fill-opacity:1;stroke:#000000;stroke-width:0;stroke-opacity:1"
   d="m 158.12,659.53 v 0.2 c 0.06,1.49 0.89,1.74 1.23,1.74 1.04,0 1.13,-1.35 1.13,-1.74 h -2.36 v -0.2 h 2.77 c 0.21,0 0.25,0 0.25,0.2 0,0.99 -0.54,1.96 -1.79,1.96 -1.15,0 -2.06,-1.03 -2.06,-2.27 0,-1.33 1.05,-2.3 2.19,-2.3 1.2,0 1.66,1.11 1.66,1.3 0,0.1 -0.08,0.11 -0.13,0.11 -0.09,0 -0.11,-0.06 -0.14,-0.14 -0.34,-1.01 -1.23,-1.01 -1.34,-1.01 -0.49,0 -0.89,0.29 -1.11,0.65 -0.3,0.49 -0.3,1.14 -0.3,1.5 z"
   inkscape:connector-curvature="0" />
<path
   id="path1005"
   style="fill:#0000ff;fill-opacity:1;stroke:#000000;stroke-width:0;stroke-opacity:1"
   d="m 162.53,660.66 v -2.68 c 0,-0.43 -0.11,-0.43 -0.78,-0.43 v -0.32 c 0.36,0.02 0.86,0.04 1.13,0.04 0.26,0 0.78,-0.02 1.1,-0.04 v 0.32 c -0.65,0 -0.76,0 -0.76,0.43 v 1.83 c 0,1.03 0.7,1.6 1.34,1.6 0.63,0 0.74,-0.53 0.74,-1.11 v -2.32 c 0,-0.43 -0.11,-0.43 -0.78,-0.43 v -0.32 c 0.34,0.02 0.86,0.04 1.12,0.04 0.25,0 0.78,-0.02 1.11,-0.04 v 0.32 c -0.66,0 -0.77,0 -0.77,0.43 v 1.83 c 0,1.03 0.71,1.6 1.33,1.6 0.63,0 0.74,-0.53 0.74,-1.11 v -2.32 c 0,-0.43 -0.11,-0.43 -0.77,-0.43 v -0.32 c 0.34,0.02 0.86,0.04 1.13,0.04 0.25,0 0.76,-0.02 1.11,-0.04 v 0.32 c -0.52,0 -0.77,0 -0.79,0.29 v 1.89 c 0,0.86 0,1.18 -0.29,1.52 -0.14,0.17 -0.47,0.37 -1.05,0.37 -0.84,0 -1.28,-0.59 -1.44,-0.96 -0.14,0.86 -0.87,0.96 -1.33,0.96 -0.71,0 -1.18,-0.42 -1.46,-1.04 v 1.04 l -1.41,-0.1 v -0.32 c 0.7,0 0.78,-0.06 0.78,-0.54 z"
   inkscape:connector-curvature="0" />
<path
   id="path1007"
   style="fill:#0000ff;fill-opacity:1;stroke:#000000;stroke-width:0;stroke-opacity:1"
   d="m 171.16,660.98 v 3.14 l -1.42,-0.1 v -0.3 c 0.69,0 0.77,-0.08 0.77,-0.56 v -5.93 h 0.25 c 0.01,0.02 0.09,0.16 0.36,0.61 0.15,-0.22 0.56,-0.72 1.29,-0.72 l -0.03,0.22 c -0.45,0 -0.81,0.24 -1.04,0.61 -0.14,0.21 -0.14,0.24 -0.14,0.41 v 0 2.05 c 0,0.2 0,0.2 0.1,0.36 0.4,0.56 0.94,0.64 1.18,0.64 0.45,0 0.81,-0.27 1.04,-0.64 0.27,-0.41 0.28,-0.97 0.28,-1.38 0,-0.37 -0.01,-0.97 -0.29,-1.41 -0.22,-0.31 -0.6,-0.64 -1.13,-0.64 l 0.03,-0.22 c 1.19,0 2.22,0.97 2.22,2.26 0,1.26 -0.97,2.24 -2.11,2.24 -0.76,0 -1.18,-0.46 -1.36,-0.64 z"
   inkscape:connector-curvature="0" />
<path
   id="path1009"
   style="fill:#0000ff;fill-opacity:1;stroke:#000000;stroke-width:0;stroke-opacity:1"
   d="m 176.65,660.53 v 1.09 l -1.37,-0.1 v -0.32 c 0.68,0 0.76,-0.06 0.76,-0.54 v -2.68 c 0,-0.43 -0.11,-0.43 -0.76,-0.43 v -0.32 c 0.39,0.02 0.84,0.04 1.12,0.04 0.41,0 0.88,0 1.27,-0.04 v 0.32 h -0.21 c -0.73,0 -0.76,0.11 -0.76,0.47 v 1.51 c 0,0.99 0.42,1.88 1.17,1.88 0.08,0 0.09,0 0.11,-0.02 -0.03,0 -0.22,-0.12 -0.22,-0.37 0,-0.29 0.2,-0.44 0.42,-0.44 0.19,0 0.42,0.12 0.42,0.44 0,0.32 -0.29,0.6 -0.73,0.6 -0.72,0 -1.08,-0.67 -1.22,-1.09 z"
   inkscape:connector-curvature="0" />
<path
   id="path1011"
   style="fill:#0000ff;fill-opacity:1;stroke:#000000;stroke-width:0;stroke-opacity:1"
   d="m 182.21,657.98 v -0.03 l 0.01,-0.04 0.01,-0.04 v -0.03 l 0.01,-0.04 0.01,-0.04 0.01,-0.03 0.02,-0.04 0.01,-0.03 0.02,-0.04 0.01,-0.03 0.02,-0.03 0.02,-0.04 0.02,-0.03 0.03,-0.03 0.02,-0.03 0.02,-0.03 0.03,-0.02 0.03,-0.03 0.03,-0.02 0.03,-0.03 0.03,-0.02 0.03,-0.02 0.03,-0.02 0.04,-0.01 0.03,-0.02 0.04,-0.01 0.04,-0.01 0.04,-0.01 h 0.04 l 0.04,-0.01 h 0.05 c 0.22,0 0.81,0.14 0.81,0.95 v 0.55 h -0.24 v -0.55 c 0,-0.57 -0.25,-0.64 -0.35,-0.64 -0.33,0 -0.38,0.46 -0.38,0.5 v 1.99 c 0,0.42 0,0.8 -0.36,1.17 -0.39,0.39 -0.87,0.55 -1.36,0.55 -0.81,0 -1.5,-0.47 -1.5,-1.13 0,-0.29 0.2,-0.47 0.45,-0.47 0.29,0 0.47,0.21 0.47,0.46 0,0.12 -0.06,0.45 -0.51,0.47 0.26,0.34 0.76,0.45 1.08,0.45 0.48,0 1.04,-0.39 1.04,-1.28 v -0.36 -0.21 -1 c 0,-0.93 -0.72,-1.28 -1.15,-1.28 -0.49,0 -0.89,0.35 -0.89,0.85 0,0.54 0.4,1.37 2.04,1.43 v 0 0.21 c -0.5,-0.03 -1.2,-0.06 -1.83,-0.36 -0.73,-0.35 -0.98,-0.86 -0.98,-1.3 0,-0.79 0.95,-1.05 1.58,-1.05 0.65,0 1.12,0.4 1.31,0.86 z"
   inkscape:connector-curvature="0" />
<path
   id="path1013"
   style="fill:#0000ff;fill-opacity:1;stroke:#000000;stroke-width:0;stroke-opacity:1"
   d="m 184.97,660.66 v -2.68 c 0,-0.43 -0.11,-0.43 -0.78,-0.43 v -0.32 c 0.36,0.02 0.86,0.04 1.13,0.04 0.26,0 0.78,-0.02 1.11,-0.04 v 0.32 c -0.66,0 -0.77,0 -0.77,0.43 v 1.83 c 0,1.03 0.7,1.6 1.34,1.6 0.63,0 0.74,-0.53 0.74,-1.11 v -2.32 c 0,-0.43 -0.11,-0.43 -0.78,-0.43 v -0.32 c 0.34,0.02 0.86,0.04 1.12,0.04 0.25,0 0.78,-0.02 1.11,-0.04 v 0.32 c -0.51,0 -0.76,0 -0.76,0.29 v 1.89 c 0,0.86 0,1.18 -0.32,1.52 -0.14,0.17 -0.46,0.37 -1.04,0.37 -0.72,0 -1.19,-0.42 -1.47,-1.04 v 1.04 l -1.41,-0.1 v -0.32 c 0.71,0 0.78,-0.06 0.78,-0.54 z"
   inkscape:connector-curvature="0" />
<path
   id="path1015"
   style="fill:#0000ff;fill-opacity:1;stroke:#000000;stroke-width:0;stroke-opacity:1"
   d="m 190.52,659.53 v 0.2 c 0.07,1.49 0.89,1.74 1.24,1.74 1.03,0 1.12,-1.35 1.12,-1.74 h -2.36 v -0.2 h 2.77 c 0.22,0 0.25,0 0.25,0.2 0,0.99 -0.53,1.96 -1.78,1.96 -1.16,0 -2.06,-1.03 -2.06,-2.27 0,-1.33 1.04,-2.3 2.18,-2.3 1.21,0 1.66,1.11 1.66,1.3 0,0.1 -0.08,0.11 -0.13,0.11 -0.09,0 -0.11,-0.06 -0.14,-0.14 -0.34,-1.01 -1.23,-1.01 -1.34,-1.01 -0.48,0 -0.89,0.29 -1.11,0.65 -0.3,0.49 -0.3,1.14 -0.3,1.5 z"
   inkscape:connector-curvature="0" />
<path
   id="path1017"
   style="fill:#0000ff;fill-opacity:1;stroke:#000000;stroke-width:0;stroke-opacity:1"
   d="m 200.45,654.84 v 0.01 0.01 0 0 0.01 0 0 l -0.01,0.01 v 0 0.01 0 0.01 h -0.01 v 0.01 0 l -0.01,0.01 v 0.01 h -0.01 l -0.01,0.01 v 0 0.01 h -0.01 v 0.01 0 l -0.01,0.01 v 0 l -0.01,0.01 v 0 0.01 h -0.01 V 655 h -0.01 l -0.01,0.01 v 0.01 h -0.01 v 0.01 h -0.01 l -0.01,0.01 v 0.01 l -0.01,0.01 h -0.01 c -1.25,1.27 -1.56,3.14 -1.56,4.66 0,1.73 0.37,3.45 1.59,4.7 0.13,0.11 0.13,0.14 0.13,0.16 0,0.08 -0.03,0.11 -0.1,0.11 -0.09,0 -0.98,-0.67 -1.57,-1.94 -0.5,-1.09 -0.63,-2.2 -0.63,-3.03 0,-0.78 0.11,-1.99 0.66,-3.1 0.59,-1.23 1.45,-1.87 1.54,-1.87 0.07,0 0.1,0.03 0.1,0.09 z"
   inkscape:connector-curvature="0" />
<path
   id="path1019"
   style="fill:#0000ff;fill-opacity:1;stroke:#000000;stroke-width:0;stroke-opacity:1"
   d="m 202.8,664.12 -1.43,-0.1 v -0.3 c 0.68,0 0.78,-0.08 0.78,-0.56 v -5.18 c 0,-0.43 -0.11,-0.43 -0.78,-0.43 v -0.32 c 0.33,0.02 0.86,0.04 1.11,0.04 0.23,0 0.73,-0.02 1.09,-0.04 v 0.32 c -0.66,0 -0.77,0 -0.77,0.43 z"
   inkscape:connector-curvature="0" />
<path
   id="path1021"
   style="fill:#0000ff;fill-opacity:1;stroke:#000000;stroke-width:0;stroke-opacity:1"
   d="m 207.12,657.98 v -0.03 l 0.01,-0.04 v -0.04 l 0.01,-0.03 0.01,-0.04 0.01,-0.04 0.01,-0.03 0.01,-0.04 0.02,-0.03 0.01,-0.04 0.02,-0.03 0.02,-0.03 0.02,-0.04 0.02,-0.03 0.02,-0.03 0.03,-0.03 0.02,-0.03 0.03,-0.02 0.02,-0.03 0.03,-0.02 0.03,-0.03 0.03,-0.02 0.04,-0.02 0.03,-0.02 0.03,-0.01 0.04,-0.02 0.04,-0.01 0.04,-0.01 0.04,-0.01 h 0.04 l 0.04,-0.01 h 0.04 c 0.22,0 0.82,0.14 0.82,0.95 v 0.55 h -0.24 v -0.55 c 0,-0.57 -0.25,-0.64 -0.36,-0.64 -0.33,0 -0.37,0.46 -0.37,0.5 v 1.99 c 0,0.42 0,0.8 -0.36,1.17 -0.39,0.39 -0.88,0.55 -1.36,0.55 -0.81,0 -1.5,-0.47 -1.5,-1.13 0,-0.29 0.2,-0.47 0.45,-0.47 0.28,0 0.47,0.21 0.47,0.46 0,0.12 -0.06,0.45 -0.52,0.47 0.27,0.34 0.77,0.45 1.08,0.45 0.49,0 1.05,-0.39 1.05,-1.28 v -0.36 -0.21 -1 c 0,-0.93 -0.72,-1.28 -1.16,-1.28 -0.48,0 -0.89,0.35 -0.89,0.85 0,0.54 0.41,1.37 2.05,1.43 v 0 0.21 c -0.5,-0.03 -1.2,-0.06 -1.83,-0.36 -0.73,-0.35 -0.98,-0.86 -0.98,-1.3 0,-0.79 0.95,-1.05 1.57,-1.05 0.66,0 1.13,0.4 1.32,0.86 z"
   inkscape:connector-curvature="0" />
<path
   id="path1023"
   style="fill:#0000ff;fill-opacity:1;stroke:#000000;stroke-width:0;stroke-opacity:1"
   d="m 212.63,660.58 0.01,0.03 0.01,0.02 0.02,0.03 0.01,0.03 0.01,0.02 0.02,0.03 0.01,0.02 0.01,0.02 0.02,0.03 0.01,0.02 0.03,0.04 0.03,0.03 0.04,0.04 0.03,0.03 0.03,0.03 0.04,0.03 0.03,0.02 0.03,0.02 0.04,0.02 0.03,0.02 0.04,0.01 0.03,0.02 0.03,0.01 0.03,0.01 0.04,0.01 0.03,0.01 h 0.03 l 0.03,0.01 h 0.03 l 0.02,0.01 h 0.03 0.02 0.03 0.02 0.02 0.02 0.01 v 0.32 c -0.23,-0.02 -0.51,-0.04 -0.75,-0.04 -0.17,0 -0.64,0.02 -0.86,0.04 v -0.32 c 0.31,0 0.47,-0.17 0.47,-0.42 0,-0.09 -0.01,-0.12 -0.06,-0.23 l -1,-2.46 -1.11,2.68 c -0.03,0.11 -0.06,0.14 -0.06,0.18 0,0.25 0.37,0.25 0.56,0.25 v 0.32 c -0.25,-0.02 -0.91,-0.04 -1.08,-0.04 -0.26,0 -0.67,0.02 -0.97,0.04 v -0.32 c 0.49,0 0.67,0 0.81,-0.34 l 1.49,-3.63 c -0.05,-0.12 -0.19,-0.45 -0.25,-0.59 -0.22,-0.53 -0.5,-1.22 -1.13,-1.22 -0.06,0 -0.28,0 -0.46,0.17 0.29,0.05 0.37,0.27 0.37,0.43 0,0.25 -0.19,0.42 -0.41,0.42 -0.2,0 -0.42,-0.14 -0.42,-0.44 0,-0.44 0.42,-0.8 0.92,-0.8 0.63,0 1.04,0.57 1.27,1.13 z"
   inkscape:connector-curvature="0" />
<path
   id="path1025"
   style="fill:#0000ff;fill-opacity:1;stroke:#000000;stroke-width:0;stroke-opacity:1"
   d="m 214.59,659.53 v 0.2 c 0.07,1.49 0.89,1.74 1.24,1.74 1.03,0 1.12,-1.35 1.12,-1.74 h -2.36 v -0.2 h 2.77 c 0.22,0 0.25,0 0.25,0.2 0,0.99 -0.53,1.96 -1.78,1.96 -1.16,0 -2.06,-1.03 -2.06,-2.27 0,-1.33 1.04,-2.3 2.18,-2.3 1.21,0 1.66,1.11 1.66,1.3 0,0.1 -0.08,0.11 -0.13,0.11 -0.09,0 -0.1,-0.06 -0.14,-0.14 -0.34,-1.01 -1.23,-1.01 -1.34,-1.01 -0.48,0 -0.89,0.29 -1.11,0.65 -0.3,0.49 -0.3,1.14 -0.3,1.5 z"
   inkscape:connector-curvature="0" />
<path
   id="path1027"
   style="fill:#0000ff;fill-opacity:1;stroke:#000000;stroke-width:0;stroke-opacity:1"
   d="m 219.57,660.53 v 1.09 l -1.38,-0.1 v -0.32 c 0.69,0 0.77,-0.06 0.77,-0.54 v -2.68 c 0,-0.43 -0.11,-0.43 -0.77,-0.43 v -0.32 c 0.39,0.02 0.85,0.04 1.13,0.04 0.4,0 0.87,0 1.26,-0.04 v 0.32 h -0.2 c -0.73,0 -0.77,0.11 -0.77,0.47 v 1.51 c 0,0.99 0.43,1.88 1.18,1.88 0.07,0 0.09,0 0.11,-0.02 -0.04,0 -0.22,-0.12 -0.22,-0.37 0,-0.29 0.2,-0.44 0.42,-0.44 0.19,0 0.42,0.12 0.42,0.44 0,0.32 -0.3,0.6 -0.73,0.6 -0.72,0 -1.08,-0.67 -1.22,-1.09 z"
   inkscape:connector-curvature="0" />
<path
   id="path1029"
   style="fill:#0000ff;fill-opacity:1;stroke:#000000;stroke-width:0;stroke-opacity:1"
   d="m 226.4,658 1.04,1.02 c 1.55,1.37 2.14,1.92 2.14,2.9 0,1.14 -0.89,1.92 -2.09,1.92 -1.13,0 -1.86,-0.9 -1.86,-1.79 0,-0.55 0.5,-0.55 0.52,-0.55 0.17,0 0.53,0.11 0.53,0.52 0,0.26 -0.19,0.51 -0.53,0.51 -0.08,0 -0.11,0 -0.13,0 0.22,0.64 0.77,1.02 1.33,1.02 0.9,0 1.34,-0.82 1.34,-1.63 0,-0.8 -0.5,-1.58 -1.04,-2.19 l -1.91,-2.12 c -0.11,-0.11 -0.11,-0.14 -0.11,-0.38 h 3.69 l 0.26,1.74 h -0.23 c -0.06,-0.3 -0.13,-0.74 -0.22,-0.89 C 229.05,658 228.4,658 228.18,658 Z"
   inkscape:connector-curvature="0" />
<path
   id="path1031"
   style="fill:#0000ff;fill-opacity:1;stroke:#000000;stroke-width:0;stroke-opacity:1"
   d="m 232.98,659.72 v 0.07 0.08 0.16 l -0.01,0.17 -0.01,0.17 -0.02,0.19 -0.02,0.18 -0.03,0.2 -0.03,0.2 -0.04,0.2 -0.04,0.21 -0.06,0.2 -0.06,0.21 -0.07,0.22 -0.08,0.21 -0.04,0.11 -0.04,0.1 -0.05,0.11 -0.05,0.1 c -0.6,1.22 -1.45,1.88 -1.55,1.88 -0.06,0 -0.11,-0.05 -0.11,-0.11 0,-0.02 0,-0.05 0.19,-0.22 0.98,-0.98 1.55,-2.56 1.55,-4.64 0,-1.7 -0.38,-3.45 -1.6,-4.7 -0.14,-0.11 -0.14,-0.14 -0.14,-0.18 0,-0.04 0.05,-0.09 0.11,-0.09 0.1,0 0.99,0.67 1.58,1.94 0.5,1.09 0.62,2.2 0.62,3.03 z"
   inkscape:connector-curvature="0" />
</g>  </g>
</svg>
