<?xml version="1.0" encoding="utf-8" standalone="no"?>
<!DOCTYPE svg PUBLIC "-//W3C//DTD SVG 1.1//EN"
  "http://www.w3.org/Graphics/SVG/1.1/DTD/svg11.dtd">
<!-- Created with matplotlib (https://matplotlib.org/) -->
<svg height="216pt" version="1.1" viewBox="0 0 432 216" width="432pt" xmlns="http://www.w3.org/2000/svg" xmlns:xlink="http://www.w3.org/1999/xlink">
 <defs>
  <style type="text/css">
*{stroke-linecap:butt;stroke-linejoin:round;}
  </style>
 </defs>
 <g id="figure_1">
  <g id="patch_1">
   <path d="M 0 216 
L 432 216 
L 432 0 
L 0 0 
z
" style="fill:#ffffff;"/>
  </g>
  <g id="axes_1">
   <g id="patch_2">
    <path d="M 49.16 170.728 
L 202.68 170.728 
L 202.68 14.76 
L 49.16 14.76 
z
" style="fill:#ffffff;"/>
   </g>
   <g id="matplotlib.axis_1">
    <g id="xtick_1">
     <g id="line2d_1">
      <defs>
       <path d="M 0 0 
L 0 3.5 
" id="mdd8415ba76" style="stroke:#000000;stroke-width:0.8;"/>
      </defs>
      <g>
       <use style="stroke:#000000;stroke-width:0.8;" x="55.820992" xlink:href="#mdd8415ba76" y="170.728"/>
      </g>
     </g>
     <g id="text_1">
      <!-- 0 -->
      <defs>
       <path d="M 31.78125 66.40625 
Q 24.171875 66.40625 20.328125 58.90625 
Q 16.5 51.421875 16.5 36.375 
Q 16.5 21.390625 20.328125 13.890625 
Q 24.171875 6.390625 31.78125 6.390625 
Q 39.453125 6.390625 43.28125 13.890625 
Q 47.125 21.390625 47.125 36.375 
Q 47.125 51.421875 43.28125 58.90625 
Q 39.453125 66.40625 31.78125 66.40625 
z
M 31.78125 74.21875 
Q 44.046875 74.21875 50.515625 64.515625 
Q 56.984375 54.828125 56.984375 36.375 
Q 56.984375 17.96875 50.515625 8.265625 
Q 44.046875 -1.421875 31.78125 -1.421875 
Q 19.53125 -1.421875 13.0625 8.265625 
Q 6.59375 17.96875 6.59375 36.375 
Q 6.59375 54.828125 13.0625 64.515625 
Q 19.53125 74.21875 31.78125 74.21875 
z
" id="DejaVuSans-48"/>
      </defs>
      <g transform="translate(52.639742 185.326437)scale(0.1 -0.1)">
       <use xlink:href="#DejaVuSans-48"/>
      </g>
     </g>
    </g>
    <g id="xtick_2">
     <g id="line2d_2">
      <g>
       <use style="stroke:#000000;stroke-width:0.8;" x="87.54" xlink:href="#mdd8415ba76" y="170.728"/>
      </g>
     </g>
     <g id="text_2">
      <!-- 100 -->
      <defs>
       <path d="M 12.40625 8.296875 
L 28.515625 8.296875 
L 28.515625 63.921875 
L 10.984375 60.40625 
L 10.984375 69.390625 
L 28.421875 72.90625 
L 38.28125 72.90625 
L 38.28125 8.296875 
L 54.390625 8.296875 
L 54.390625 0 
L 12.40625 0 
z
" id="DejaVuSans-49"/>
      </defs>
      <g transform="translate(77.99625 185.326437)scale(0.1 -0.1)">
       <use xlink:href="#DejaVuSans-49"/>
       <use x="63.623047" xlink:href="#DejaVuSans-48"/>
       <use x="127.246094" xlink:href="#DejaVuSans-48"/>
      </g>
     </g>
    </g>
    <g id="xtick_3">
     <g id="line2d_3">
      <g>
       <use style="stroke:#000000;stroke-width:0.8;" x="119.259008" xlink:href="#mdd8415ba76" y="170.728"/>
      </g>
     </g>
     <g id="text_3">
      <!-- 200 -->
      <defs>
       <path d="M 19.1875 8.296875 
L 53.609375 8.296875 
L 53.609375 0 
L 7.328125 0 
L 7.328125 8.296875 
Q 12.9375 14.109375 22.625 23.890625 
Q 32.328125 33.6875 34.8125 36.53125 
Q 39.546875 41.84375 41.421875 45.53125 
Q 43.3125 49.21875 43.3125 52.78125 
Q 43.3125 58.59375 39.234375 62.25 
Q 35.15625 65.921875 28.609375 65.921875 
Q 23.96875 65.921875 18.8125 64.3125 
Q 13.671875 62.703125 7.8125 59.421875 
L 7.8125 69.390625 
Q 13.765625 71.78125 18.9375 73 
Q 24.125 74.21875 28.421875 74.21875 
Q 39.75 74.21875 46.484375 68.546875 
Q 53.21875 62.890625 53.21875 53.421875 
Q 53.21875 48.921875 51.53125 44.890625 
Q 49.859375 40.875 45.40625 35.40625 
Q 44.1875 33.984375 37.640625 27.21875 
Q 31.109375 20.453125 19.1875 8.296875 
z
" id="DejaVuSans-50"/>
      </defs>
      <g transform="translate(109.715258 185.326437)scale(0.1 -0.1)">
       <use xlink:href="#DejaVuSans-50"/>
       <use x="63.623047" xlink:href="#DejaVuSans-48"/>
       <use x="127.246094" xlink:href="#DejaVuSans-48"/>
      </g>
     </g>
    </g>
    <g id="xtick_4">
     <g id="line2d_4">
      <g>
       <use style="stroke:#000000;stroke-width:0.8;" x="150.978017" xlink:href="#mdd8415ba76" y="170.728"/>
      </g>
     </g>
     <g id="text_4">
      <!-- 300 -->
      <defs>
       <path d="M 40.578125 39.3125 
Q 47.65625 37.796875 51.625 33 
Q 55.609375 28.21875 55.609375 21.1875 
Q 55.609375 10.40625 48.1875 4.484375 
Q 40.765625 -1.421875 27.09375 -1.421875 
Q 22.515625 -1.421875 17.65625 -0.515625 
Q 12.796875 0.390625 7.625 2.203125 
L 7.625 11.71875 
Q 11.71875 9.328125 16.59375 8.109375 
Q 21.484375 6.890625 26.8125 6.890625 
Q 36.078125 6.890625 40.9375 10.546875 
Q 45.796875 14.203125 45.796875 21.1875 
Q 45.796875 27.640625 41.28125 31.265625 
Q 36.765625 34.90625 28.71875 34.90625 
L 20.21875 34.90625 
L 20.21875 43.015625 
L 29.109375 43.015625 
Q 36.375 43.015625 40.234375 45.921875 
Q 44.09375 48.828125 44.09375 54.296875 
Q 44.09375 59.90625 40.109375 62.90625 
Q 36.140625 65.921875 28.71875 65.921875 
Q 24.65625 65.921875 20.015625 65.03125 
Q 15.375 64.15625 9.8125 62.3125 
L 9.8125 71.09375 
Q 15.4375 72.65625 20.34375 73.4375 
Q 25.25 74.21875 29.59375 74.21875 
Q 40.828125 74.21875 47.359375 69.109375 
Q 53.90625 64.015625 53.90625 55.328125 
Q 53.90625 49.265625 50.4375 45.09375 
Q 46.96875 40.921875 40.578125 39.3125 
z
" id="DejaVuSans-51"/>
      </defs>
      <g transform="translate(141.434267 185.326437)scale(0.1 -0.1)">
       <use xlink:href="#DejaVuSans-51"/>
       <use x="63.623047" xlink:href="#DejaVuSans-48"/>
       <use x="127.246094" xlink:href="#DejaVuSans-48"/>
      </g>
     </g>
    </g>
    <g id="xtick_5">
     <g id="line2d_5">
      <g>
       <use style="stroke:#000000;stroke-width:0.8;" x="182.697025" xlink:href="#mdd8415ba76" y="170.728"/>
      </g>
     </g>
     <g id="text_5">
      <!-- 400 -->
      <defs>
       <path d="M 37.796875 64.3125 
L 12.890625 25.390625 
L 37.796875 25.390625 
z
M 35.203125 72.90625 
L 47.609375 72.90625 
L 47.609375 25.390625 
L 58.015625 25.390625 
L 58.015625 17.1875 
L 47.609375 17.1875 
L 47.609375 0 
L 37.796875 0 
L 37.796875 17.1875 
L 4.890625 17.1875 
L 4.890625 26.703125 
z
" id="DejaVuSans-52"/>
      </defs>
      <g transform="translate(173.153275 185.326437)scale(0.1 -0.1)">
       <use xlink:href="#DejaVuSans-52"/>
       <use x="63.623047" xlink:href="#DejaVuSans-48"/>
       <use x="127.246094" xlink:href="#DejaVuSans-48"/>
      </g>
     </g>
    </g>
    <g id="text_6">
     <!-- $n^2$ -->
     <defs>
      <path d="M 55.71875 33.015625 
L 49.3125 0 
L 40.28125 0 
L 46.6875 32.671875 
Q 47.125 34.96875 47.359375 36.71875 
Q 47.609375 38.484375 47.609375 39.5 
Q 47.609375 43.609375 45.015625 45.890625 
Q 42.4375 48.1875 37.796875 48.1875 
Q 30.5625 48.1875 25.34375 43.375 
Q 20.125 38.578125 18.5 30.328125 
L 12.5 0 
L 3.515625 0 
L 14.109375 54.6875 
L 23.09375 54.6875 
L 21.296875 46.09375 
Q 25.046875 50.828125 30.3125 53.40625 
Q 35.59375 56 41.40625 56 
Q 48.640625 56 52.609375 52.09375 
Q 56.59375 48.1875 56.59375 41.109375 
Q 56.59375 39.359375 56.375 37.359375 
Q 56.15625 35.359375 55.71875 33.015625 
z
" id="DejaVuSans-Oblique-110"/>
     </defs>
     <g transform="translate(120.12 199.004562)scale(0.1 -0.1)">
      <use transform="translate(0 0.765625)" xlink:href="#DejaVuSans-Oblique-110"/>
      <use transform="translate(68.028802 39.046875)scale(0.7)" xlink:href="#DejaVuSans-50"/>
     </g>
    </g>
   </g>
   <g id="matplotlib.axis_2">
    <g id="ytick_1">
     <g id="line2d_6">
      <defs>
       <path d="M 0 0 
L -3.5 0 
" id="m16d8d4683d" style="stroke:#000000;stroke-width:0.8;"/>
      </defs>
      <g>
       <use style="stroke:#000000;stroke-width:0.8;" x="49.16" xlink:href="#m16d8d4683d" y="139.036692"/>
      </g>
     </g>
     <g id="text_7">
      <!-- −2350 -->
      <defs>
       <path d="M 10.59375 35.5 
L 73.1875 35.5 
L 73.1875 27.203125 
L 10.59375 27.203125 
z
" id="DejaVuSans-8722"/>
       <path d="M 10.796875 72.90625 
L 49.515625 72.90625 
L 49.515625 64.59375 
L 19.828125 64.59375 
L 19.828125 46.734375 
Q 21.96875 47.46875 24.109375 47.828125 
Q 26.265625 48.1875 28.421875 48.1875 
Q 40.625 48.1875 47.75 41.5 
Q 54.890625 34.8125 54.890625 23.390625 
Q 54.890625 11.625 47.5625 5.09375 
Q 40.234375 -1.421875 26.90625 -1.421875 
Q 22.3125 -1.421875 17.546875 -0.640625 
Q 12.796875 0.140625 7.71875 1.703125 
L 7.71875 11.625 
Q 12.109375 9.234375 16.796875 8.0625 
Q 21.484375 6.890625 26.703125 6.890625 
Q 35.15625 6.890625 40.078125 11.328125 
Q 45.015625 15.765625 45.015625 23.390625 
Q 45.015625 31 40.078125 35.4375 
Q 35.15625 39.890625 26.703125 39.890625 
Q 22.75 39.890625 18.8125 39.015625 
Q 14.890625 38.140625 10.796875 36.28125 
z
" id="DejaVuSans-53"/>
      </defs>
      <g transform="translate(8.330313 142.83591)scale(0.1 -0.1)">
       <use xlink:href="#DejaVuSans-8722"/>
       <use x="83.789062" xlink:href="#DejaVuSans-50"/>
       <use x="147.412109" xlink:href="#DejaVuSans-51"/>
       <use x="211.035156" xlink:href="#DejaVuSans-53"/>
       <use x="274.658203" xlink:href="#DejaVuSans-48"/>
      </g>
     </g>
    </g>
    <g id="ytick_2">
     <g id="line2d_7">
      <g>
       <use style="stroke:#000000;stroke-width:0.8;" x="49.16" xlink:href="#m16d8d4683d" y="98.136454"/>
      </g>
     </g>
     <g id="text_8">
      <!-- −2300 -->
      <g transform="translate(8.330313 101.935672)scale(0.1 -0.1)">
       <use xlink:href="#DejaVuSans-8722"/>
       <use x="83.789062" xlink:href="#DejaVuSans-50"/>
       <use x="147.412109" xlink:href="#DejaVuSans-51"/>
       <use x="211.035156" xlink:href="#DejaVuSans-48"/>
       <use x="274.658203" xlink:href="#DejaVuSans-48"/>
      </g>
     </g>
    </g>
    <g id="ytick_3">
     <g id="line2d_8">
      <g>
       <use style="stroke:#000000;stroke-width:0.8;" x="49.16" xlink:href="#m16d8d4683d" y="57.236215"/>
      </g>
     </g>
     <g id="text_9">
      <!-- −2250 -->
      <g transform="translate(8.330313 61.035434)scale(0.1 -0.1)">
       <use xlink:href="#DejaVuSans-8722"/>
       <use x="83.789062" xlink:href="#DejaVuSans-50"/>
       <use x="147.412109" xlink:href="#DejaVuSans-50"/>
       <use x="211.035156" xlink:href="#DejaVuSans-53"/>
       <use x="274.658203" xlink:href="#DejaVuSans-48"/>
      </g>
     </g>
    </g>
    <g id="ytick_4">
     <g id="line2d_9">
      <g>
       <use style="stroke:#000000;stroke-width:0.8;" x="49.16" xlink:href="#m16d8d4683d" y="16.335977"/>
      </g>
     </g>
     <g id="text_10">
      <!-- −2200 -->
      <g transform="translate(8.330313 20.135196)scale(0.1 -0.1)">
       <use xlink:href="#DejaVuSans-8722"/>
       <use x="83.789062" xlink:href="#DejaVuSans-50"/>
       <use x="147.412109" xlink:href="#DejaVuSans-50"/>
       <use x="211.035156" xlink:href="#DejaVuSans-48"/>
       <use x="274.658203" xlink:href="#DejaVuSans-48"/>
      </g>
     </g>
    </g>
    <g id="text_11">
     <!-- $\Delta f/n$ (Hz) -->
     <defs>
      <path d="M 34.1875 63.1875 
L 14.15625 8.203125 
L 54.25 8.203125 
z
M 0.78125 0 
L 28.609375 72.90625 
L 39.796875 72.90625 
L 67.578125 0 
z
" id="DejaVuSans-916"/>
      <path d="M 47.796875 75.984375 
L 46.390625 68.5 
L 37.796875 68.5 
Q 32.90625 68.5 30.6875 66.578125 
Q 28.46875 64.65625 27.390625 59.515625 
L 26.421875 54.6875 
L 41.21875 54.6875 
L 39.890625 47.703125 
L 25.09375 47.703125 
L 15.828125 0 
L 6.78125 0 
L 16.109375 47.703125 
L 7.515625 47.703125 
L 8.796875 54.6875 
L 17.390625 54.6875 
L 18.109375 58.5 
Q 19.96875 68.171875 24.625 72.078125 
Q 29.296875 75.984375 39.3125 75.984375 
z
" id="DejaVuSans-Oblique-102"/>
      <path d="M 25.390625 72.90625 
L 33.6875 72.90625 
L 8.296875 -9.28125 
L 0 -9.28125 
z
" id="DejaVuSans-47"/>
      <path id="DejaVuSans-32"/>
      <path d="M 31 75.875 
Q 24.46875 64.65625 21.28125 53.65625 
Q 18.109375 42.671875 18.109375 31.390625 
Q 18.109375 20.125 21.3125 9.0625 
Q 24.515625 -2 31 -13.1875 
L 23.1875 -13.1875 
Q 15.875 -1.703125 12.234375 9.375 
Q 8.59375 20.453125 8.59375 31.390625 
Q 8.59375 42.28125 12.203125 53.3125 
Q 15.828125 64.359375 23.1875 75.875 
z
" id="DejaVuSans-40"/>
      <path d="M 9.8125 72.90625 
L 19.671875 72.90625 
L 19.671875 43.015625 
L 55.515625 43.015625 
L 55.515625 72.90625 
L 65.375 72.90625 
L 65.375 0 
L 55.515625 0 
L 55.515625 34.71875 
L 19.671875 34.71875 
L 19.671875 0 
L 9.8125 0 
z
" id="DejaVuSans-72"/>
      <path d="M 5.515625 54.6875 
L 48.1875 54.6875 
L 48.1875 46.484375 
L 14.40625 7.171875 
L 48.1875 7.171875 
L 48.1875 0 
L 4.296875 0 
L 4.296875 8.203125 
L 38.09375 47.515625 
L 5.515625 47.515625 
z
" id="DejaVuSans-122"/>
      <path d="M 8.015625 75.875 
L 15.828125 75.875 
Q 23.140625 64.359375 26.78125 53.3125 
Q 30.421875 42.28125 30.421875 31.390625 
Q 30.421875 20.453125 26.78125 9.375 
Q 23.140625 -1.703125 15.828125 -13.1875 
L 8.015625 -13.1875 
Q 14.5 -2 17.703125 9.0625 
Q 20.90625 20.125 20.90625 31.390625 
Q 20.90625 42.671875 17.703125 53.65625 
Q 14.5 64.65625 8.015625 75.875 
z
" id="DejaVuSans-41"/>
     </defs>
     <g transform="translate(2.250625 114.694)rotate(-90)scale(0.1 -0.1)">
      <use transform="translate(0 0.015625)" xlink:href="#DejaVuSans-916"/>
      <use transform="translate(68.408203 0.015625)" xlink:href="#DejaVuSans-Oblique-102"/>
      <use transform="translate(103.613281 0.015625)" xlink:href="#DejaVuSans-47"/>
      <use transform="translate(137.304688 0.015625)" xlink:href="#DejaVuSans-Oblique-110"/>
      <use transform="translate(200.683594 0.015625)" xlink:href="#DejaVuSans-32"/>
      <use transform="translate(232.470703 0.015625)" xlink:href="#DejaVuSans-40"/>
      <use transform="translate(271.484375 0.015625)" xlink:href="#DejaVuSans-72"/>
      <use transform="translate(346.679688 0.015625)" xlink:href="#DejaVuSans-122"/>
      <use transform="translate(399.169922 0.015625)" xlink:href="#DejaVuSans-41"/>
     </g>
    </g>
   </g>
   <g id="line2d_10">
    <path clip-path="url(#pac81960257)" d="M 56.138182 55.304758 
L 58.675702 57.783522 
L 63.750744 62.182474 
L 71.363306 68.355154 
L 81.513388 76.258722 
L 94.200992 85.907738 
L 109.426116 97.35961 
L 127.18876 110.709154 
L 147.488926 126.087146 
L 170.326612 143.66123 
L 195.701818 163.638545 
" style="fill:none;stroke:#1f77b4;stroke-linecap:square;stroke-width:1.5;"/>
    <defs>
     <path d="M -3 3 
L 3 -3 
M -3 -3 
L 3 3 
" id="me7665b16cb" style="stroke:#1f77b4;"/>
    </defs>
    <g clip-path="url(#pac81960257)">
     <use style="fill:#1f77b4;stroke:#1f77b4;" x="56.138182" xlink:href="#me7665b16cb" y="55.304758"/>
     <use style="fill:#1f77b4;stroke:#1f77b4;" x="58.675702" xlink:href="#me7665b16cb" y="57.783522"/>
     <use style="fill:#1f77b4;stroke:#1f77b4;" x="63.750744" xlink:href="#me7665b16cb" y="62.182474"/>
     <use style="fill:#1f77b4;stroke:#1f77b4;" x="71.363306" xlink:href="#me7665b16cb" y="68.355154"/>
     <use style="fill:#1f77b4;stroke:#1f77b4;" x="81.513388" xlink:href="#me7665b16cb" y="76.258722"/>
     <use style="fill:#1f77b4;stroke:#1f77b4;" x="94.200992" xlink:href="#me7665b16cb" y="85.907738"/>
     <use style="fill:#1f77b4;stroke:#1f77b4;" x="109.426116" xlink:href="#me7665b16cb" y="97.35961"/>
     <use style="fill:#1f77b4;stroke:#1f77b4;" x="127.18876" xlink:href="#me7665b16cb" y="110.709154"/>
     <use style="fill:#1f77b4;stroke:#1f77b4;" x="147.488926" xlink:href="#me7665b16cb" y="126.087146"/>
     <use style="fill:#1f77b4;stroke:#1f77b4;" x="170.326612" xlink:href="#me7665b16cb" y="143.66123"/>
     <use style="fill:#1f77b4;stroke:#1f77b4;" x="195.701818" xlink:href="#me7665b16cb" y="163.638545"/>
    </g>
   </g>
   <g id="line2d_11">
    <path clip-path="url(#pac81960257)" d="M 56.138182 54.980385 
L 58.675702 55.233983 
L 63.750744 55.510628 
L 71.363306 55.74005 
L 81.513388 55.889435 
L 94.200992 55.944802 
L 109.426116 55.904689 
L 127.18876 55.777177 
L 147.488926 55.578231 
L 170.326612 55.330654 
L 195.701818 55.063388 
" style="fill:none;stroke:#ff7f0e;stroke-linecap:square;stroke-width:1.5;"/>
    <defs>
     <path d="M -3 3 
L 3 -3 
M -3 -3 
L 3 3 
" id="m8baff0f51d" style="stroke:#ff7f0e;"/>
    </defs>
    <g clip-path="url(#pac81960257)">
     <use style="fill:#ff7f0e;stroke:#ff7f0e;" x="56.138182" xlink:href="#m8baff0f51d" y="54.980385"/>
     <use style="fill:#ff7f0e;stroke:#ff7f0e;" x="58.675702" xlink:href="#m8baff0f51d" y="55.233983"/>
     <use style="fill:#ff7f0e;stroke:#ff7f0e;" x="63.750744" xlink:href="#m8baff0f51d" y="55.510628"/>
     <use style="fill:#ff7f0e;stroke:#ff7f0e;" x="71.363306" xlink:href="#m8baff0f51d" y="55.74005"/>
     <use style="fill:#ff7f0e;stroke:#ff7f0e;" x="81.513388" xlink:href="#m8baff0f51d" y="55.889435"/>
     <use style="fill:#ff7f0e;stroke:#ff7f0e;" x="94.200992" xlink:href="#m8baff0f51d" y="55.944802"/>
     <use style="fill:#ff7f0e;stroke:#ff7f0e;" x="109.426116" xlink:href="#m8baff0f51d" y="55.904689"/>
     <use style="fill:#ff7f0e;stroke:#ff7f0e;" x="127.18876" xlink:href="#m8baff0f51d" y="55.777177"/>
     <use style="fill:#ff7f0e;stroke:#ff7f0e;" x="147.488926" xlink:href="#m8baff0f51d" y="55.578231"/>
     <use style="fill:#ff7f0e;stroke:#ff7f0e;" x="170.326612" xlink:href="#m8baff0f51d" y="55.330654"/>
     <use style="fill:#ff7f0e;stroke:#ff7f0e;" x="195.701818" xlink:href="#m8baff0f51d" y="55.063388"/>
    </g>
   </g>
   <g id="line2d_12">
    <path clip-path="url(#pac81960257)" d="M 56.138182 54.87229 
L 58.675702 54.385941 
L 63.750744 53.298989 
L 71.363306 51.578776 
L 81.513388 49.212939 
L 94.200992 46.200086 
L 109.426116 42.546573 
L 127.18876 38.2649 
L 147.488926 33.37274 
L 170.326612 27.892237 
L 195.701818 21.849455 
" style="fill:none;stroke:#2ca02c;stroke-linecap:square;stroke-width:1.5;"/>
    <defs>
     <path d="M -3 3 
L 3 -3 
M -3 -3 
L 3 3 
" id="m83af3663a2" style="stroke:#2ca02c;"/>
    </defs>
    <g clip-path="url(#pac81960257)">
     <use style="fill:#2ca02c;stroke:#2ca02c;" x="56.138182" xlink:href="#m83af3663a2" y="54.87229"/>
     <use style="fill:#2ca02c;stroke:#2ca02c;" x="58.675702" xlink:href="#m83af3663a2" y="54.385941"/>
     <use style="fill:#2ca02c;stroke:#2ca02c;" x="63.750744" xlink:href="#m83af3663a2" y="53.298989"/>
     <use style="fill:#2ca02c;stroke:#2ca02c;" x="71.363306" xlink:href="#m83af3663a2" y="51.578776"/>
     <use style="fill:#2ca02c;stroke:#2ca02c;" x="81.513388" xlink:href="#m83af3663a2" y="49.212939"/>
     <use style="fill:#2ca02c;stroke:#2ca02c;" x="94.200992" xlink:href="#m83af3663a2" y="46.200086"/>
     <use style="fill:#2ca02c;stroke:#2ca02c;" x="109.426116" xlink:href="#m83af3663a2" y="42.546573"/>
     <use style="fill:#2ca02c;stroke:#2ca02c;" x="127.18876" xlink:href="#m83af3663a2" y="38.2649"/>
     <use style="fill:#2ca02c;stroke:#2ca02c;" x="147.488926" xlink:href="#m83af3663a2" y="33.37274"/>
     <use style="fill:#2ca02c;stroke:#2ca02c;" x="170.326612" xlink:href="#m83af3663a2" y="27.892237"/>
     <use style="fill:#2ca02c;stroke:#2ca02c;" x="195.701818" xlink:href="#m83af3663a2" y="21.849455"/>
    </g>
   </g>
   <g id="patch_3">
    <path d="M 49.16 170.728 
L 49.16 14.76 
" style="fill:none;stroke:#000000;stroke-linecap:square;stroke-linejoin:miter;stroke-width:0.8;"/>
   </g>
   <g id="patch_4">
    <path d="M 202.68 170.728 
L 202.68 14.76 
" style="fill:none;stroke:#000000;stroke-linecap:square;stroke-linejoin:miter;stroke-width:0.8;"/>
   </g>
   <g id="patch_5">
    <path d="M 49.16 170.728 
L 202.68 170.728 
" style="fill:none;stroke:#000000;stroke-linecap:square;stroke-linejoin:miter;stroke-width:0.8;"/>
   </g>
   <g id="patch_6">
    <path d="M 49.16 14.76 
L 202.68 14.76 
" style="fill:none;stroke:#000000;stroke-linecap:square;stroke-linejoin:miter;stroke-width:0.8;"/>
   </g>
  </g>
  <g id="axes_2">
   <g id="patch_7">
    <path d="M 259.76 170.728 
L 413.28 170.728 
L 413.28 14.76 
L 259.76 14.76 
z
" style="fill:#ffffff;"/>
   </g>
   <g id="matplotlib.axis_3">
    <g id="xtick_6">
     <g id="line2d_13">
      <g>
       <use style="stroke:#000000;stroke-width:0.8;" x="266.420992" xlink:href="#mdd8415ba76" y="170.728"/>
      </g>
     </g>
     <g id="text_12">
      <!-- 0 -->
      <g transform="translate(263.239742 185.326437)scale(0.1 -0.1)">
       <use xlink:href="#DejaVuSans-48"/>
      </g>
     </g>
    </g>
    <g id="xtick_7">
     <g id="line2d_14">
      <g>
       <use style="stroke:#000000;stroke-width:0.8;" x="298.14" xlink:href="#mdd8415ba76" y="170.728"/>
      </g>
     </g>
     <g id="text_13">
      <!-- 100 -->
      <g transform="translate(288.59625 185.326437)scale(0.1 -0.1)">
       <use xlink:href="#DejaVuSans-49"/>
       <use x="63.623047" xlink:href="#DejaVuSans-48"/>
       <use x="127.246094" xlink:href="#DejaVuSans-48"/>
      </g>
     </g>
    </g>
    <g id="xtick_8">
     <g id="line2d_15">
      <g>
       <use style="stroke:#000000;stroke-width:0.8;" x="329.859008" xlink:href="#mdd8415ba76" y="170.728"/>
      </g>
     </g>
     <g id="text_14">
      <!-- 200 -->
      <g transform="translate(320.315258 185.326437)scale(0.1 -0.1)">
       <use xlink:href="#DejaVuSans-50"/>
       <use x="63.623047" xlink:href="#DejaVuSans-48"/>
       <use x="127.246094" xlink:href="#DejaVuSans-48"/>
      </g>
     </g>
    </g>
    <g id="xtick_9">
     <g id="line2d_16">
      <g>
       <use style="stroke:#000000;stroke-width:0.8;" x="361.578017" xlink:href="#mdd8415ba76" y="170.728"/>
      </g>
     </g>
     <g id="text_15">
      <!-- 300 -->
      <g transform="translate(352.034267 185.326437)scale(0.1 -0.1)">
       <use xlink:href="#DejaVuSans-51"/>
       <use x="63.623047" xlink:href="#DejaVuSans-48"/>
       <use x="127.246094" xlink:href="#DejaVuSans-48"/>
      </g>
     </g>
    </g>
    <g id="xtick_10">
     <g id="line2d_17">
      <g>
       <use style="stroke:#000000;stroke-width:0.8;" x="393.297025" xlink:href="#mdd8415ba76" y="170.728"/>
      </g>
     </g>
     <g id="text_16">
      <!-- 400 -->
      <g transform="translate(383.753275 185.326437)scale(0.1 -0.1)">
       <use xlink:href="#DejaVuSans-52"/>
       <use x="63.623047" xlink:href="#DejaVuSans-48"/>
       <use x="127.246094" xlink:href="#DejaVuSans-48"/>
      </g>
     </g>
    </g>
    <g id="text_17">
     <!-- $n^2$ -->
     <g transform="translate(330.72 199.004562)scale(0.1 -0.1)">
      <use transform="translate(0 0.765625)" xlink:href="#DejaVuSans-Oblique-110"/>
      <use transform="translate(68.028802 39.046875)scale(0.7)" xlink:href="#DejaVuSans-50"/>
     </g>
    </g>
   </g>
   <g id="matplotlib.axis_4">
    <g id="ytick_5">
     <g id="line2d_18">
      <g>
       <use style="stroke:#000000;stroke-width:0.8;" x="259.76" xlink:href="#m16d8d4683d" y="163.743706"/>
      </g>
     </g>
     <g id="text_18">
      <!-- 0 -->
      <g transform="translate(246.3975 167.542925)scale(0.1 -0.1)">
       <use xlink:href="#DejaVuSans-48"/>
      </g>
     </g>
    </g>
    <g id="ytick_6">
     <g id="line2d_19">
      <g>
       <use style="stroke:#000000;stroke-width:0.8;" x="259.76" xlink:href="#m16d8d4683d" y="133.977654"/>
      </g>
     </g>
     <g id="text_19">
      <!-- 10 -->
      <g transform="translate(240.035 137.776872)scale(0.1 -0.1)">
       <use xlink:href="#DejaVuSans-49"/>
       <use x="63.623047" xlink:href="#DejaVuSans-48"/>
      </g>
     </g>
    </g>
    <g id="ytick_7">
     <g id="line2d_20">
      <g>
       <use style="stroke:#000000;stroke-width:0.8;" x="259.76" xlink:href="#m16d8d4683d" y="104.211601"/>
      </g>
     </g>
     <g id="text_20">
      <!-- 20 -->
      <g transform="translate(240.035 108.01082)scale(0.1 -0.1)">
       <use xlink:href="#DejaVuSans-50"/>
       <use x="63.623047" xlink:href="#DejaVuSans-48"/>
      </g>
     </g>
    </g>
    <g id="ytick_8">
     <g id="line2d_21">
      <g>
       <use style="stroke:#000000;stroke-width:0.8;" x="259.76" xlink:href="#m16d8d4683d" y="74.445548"/>
      </g>
     </g>
     <g id="text_21">
      <!-- 30 -->
      <g transform="translate(240.035 78.244767)scale(0.1 -0.1)">
       <use xlink:href="#DejaVuSans-51"/>
       <use x="63.623047" xlink:href="#DejaVuSans-48"/>
      </g>
     </g>
    </g>
    <g id="ytick_9">
     <g id="line2d_22">
      <g>
       <use style="stroke:#000000;stroke-width:0.8;" x="259.76" xlink:href="#m16d8d4683d" y="44.679496"/>
      </g>
     </g>
     <g id="text_22">
      <!-- 40 -->
      <g transform="translate(240.035 48.478714)scale(0.1 -0.1)">
       <use xlink:href="#DejaVuSans-52"/>
       <use x="63.623047" xlink:href="#DejaVuSans-48"/>
      </g>
     </g>
    </g>
    <g id="ytick_10">
     <g id="line2d_23">
      <g>
       <use style="stroke:#000000;stroke-width:0.8;" x="259.76" xlink:href="#m16d8d4683d" y="14.913443"/>
      </g>
     </g>
     <g id="text_23">
      <!-- 50 -->
      <g transform="translate(240.035 18.712662)scale(0.1 -0.1)">
       <use xlink:href="#DejaVuSans-53"/>
       <use x="63.623047" xlink:href="#DejaVuSans-48"/>
      </g>
     </g>
    </g>
    <g id="text_24">
     <!-- $\Delta \Gamma/n$ (Hz) -->
     <defs>
      <path d="M 9.8125 0 
L 9.8125 72.90625 
L 55.171875 72.90625 
L 55.171875 64.59375 
L 19.671875 64.59375 
L 19.671875 0 
z
" id="DejaVuSans-915"/>
     </defs>
     <g transform="translate(233.955312 115.694)rotate(-90)scale(0.1 -0.1)">
      <use transform="translate(0 0.125)" xlink:href="#DejaVuSans-916"/>
      <use transform="translate(68.408203 0.125)" xlink:href="#DejaVuSans-915"/>
      <use transform="translate(124.121094 0.125)" xlink:href="#DejaVuSans-47"/>
      <use transform="translate(157.8125 0.125)" xlink:href="#DejaVuSans-Oblique-110"/>
      <use transform="translate(221.191406 0.125)" xlink:href="#DejaVuSans-32"/>
      <use transform="translate(252.978516 0.125)" xlink:href="#DejaVuSans-40"/>
      <use transform="translate(291.992188 0.125)" xlink:href="#DejaVuSans-72"/>
      <use transform="translate(367.1875 0.125)" xlink:href="#DejaVuSans-122"/>
      <use transform="translate(419.677734 0.125)" xlink:href="#DejaVuSans-41"/>
     </g>
    </g>
   </g>
   <g id="line2d_24">
    <path clip-path="url(#p9716192ff0)" d="M 266.738182 163.323947 
L 269.275702 160.639548 
L 274.350744 155.614569 
L 281.963306 148.314521 
L 292.113388 138.696869 
L 304.800992 126.652446 
L 320.026116 112.012977 
L 337.78876 94.549594 
L 358.088926 73.966244 
L 380.926612 49.888783 
L 406.301818 21.849455 
" style="fill:none;stroke:#1f77b4;stroke-linecap:square;stroke-width:1.5;"/>
    <g clip-path="url(#p9716192ff0)">
     <use style="fill:#1f77b4;stroke:#1f77b4;" x="266.738182" xlink:href="#me7665b16cb" y="163.323947"/>
     <use style="fill:#1f77b4;stroke:#1f77b4;" x="269.275702" xlink:href="#me7665b16cb" y="160.639548"/>
     <use style="fill:#1f77b4;stroke:#1f77b4;" x="274.350744" xlink:href="#me7665b16cb" y="155.614569"/>
     <use style="fill:#1f77b4;stroke:#1f77b4;" x="281.963306" xlink:href="#me7665b16cb" y="148.314521"/>
     <use style="fill:#1f77b4;stroke:#1f77b4;" x="292.113388" xlink:href="#me7665b16cb" y="138.696869"/>
     <use style="fill:#1f77b4;stroke:#1f77b4;" x="304.800992" xlink:href="#me7665b16cb" y="126.652446"/>
     <use style="fill:#1f77b4;stroke:#1f77b4;" x="320.026116" xlink:href="#me7665b16cb" y="112.012977"/>
     <use style="fill:#1f77b4;stroke:#1f77b4;" x="337.78876" xlink:href="#me7665b16cb" y="94.549594"/>
     <use style="fill:#1f77b4;stroke:#1f77b4;" x="358.088926" xlink:href="#me7665b16cb" y="73.966244"/>
     <use style="fill:#1f77b4;stroke:#1f77b4;" x="380.926612" xlink:href="#me7665b16cb" y="49.888783"/>
     <use style="fill:#1f77b4;stroke:#1f77b4;" x="406.301818" xlink:href="#me7665b16cb" y="21.849455"/>
    </g>
   </g>
   <g id="line2d_25">
    <path clip-path="url(#p9716192ff0)" d="M 266.738182 163.559929 
L 269.275702 162.50085 
L 274.350744 160.51698 
L 281.963306 157.67005 
L 292.113388 153.984079 
L 304.800992 149.468764 
L 320.026116 144.124698 
L 337.78876 137.945443 
L 358.088926 130.918444 
L 380.926612 123.025373 
L 406.301818 114.242138 
" style="fill:none;stroke:#ff7f0e;stroke-linecap:square;stroke-width:1.5;"/>
    <g clip-path="url(#p9716192ff0)">
     <use style="fill:#ff7f0e;stroke:#ff7f0e;" x="266.738182" xlink:href="#m8baff0f51d" y="163.559929"/>
     <use style="fill:#ff7f0e;stroke:#ff7f0e;" x="269.275702" xlink:href="#m8baff0f51d" y="162.50085"/>
     <use style="fill:#ff7f0e;stroke:#ff7f0e;" x="274.350744" xlink:href="#m8baff0f51d" y="160.51698"/>
     <use style="fill:#ff7f0e;stroke:#ff7f0e;" x="281.963306" xlink:href="#m8baff0f51d" y="157.67005"/>
     <use style="fill:#ff7f0e;stroke:#ff7f0e;" x="292.113388" xlink:href="#m8baff0f51d" y="153.984079"/>
     <use style="fill:#ff7f0e;stroke:#ff7f0e;" x="304.800992" xlink:href="#m8baff0f51d" y="149.468764"/>
     <use style="fill:#ff7f0e;stroke:#ff7f0e;" x="320.026116" xlink:href="#m8baff0f51d" y="144.124698"/>
     <use style="fill:#ff7f0e;stroke:#ff7f0e;" x="337.78876" xlink:href="#m8baff0f51d" y="137.945443"/>
     <use style="fill:#ff7f0e;stroke:#ff7f0e;" x="358.088926" xlink:href="#m8baff0f51d" y="130.918444"/>
     <use style="fill:#ff7f0e;stroke:#ff7f0e;" x="380.926612" xlink:href="#m8baff0f51d" y="123.025373"/>
     <use style="fill:#ff7f0e;stroke:#ff7f0e;" x="406.301818" xlink:href="#m8baff0f51d" y="114.242138"/>
    </g>
   </g>
   <g id="line2d_26">
    <path clip-path="url(#p9716192ff0)" d="M 266.738182 163.638545 
L 269.275702 163.118544 
L 274.350744 162.132348 
L 281.963306 160.721448 
L 292.113388 158.904798 
L 304.800992 156.695356 
L 320.026116 154.103065 
L 337.78876 151.136006 
L 358.088926 147.800951 
L 380.926612 144.103644 
L 406.301818 140.048956 
" style="fill:none;stroke:#2ca02c;stroke-linecap:square;stroke-width:1.5;"/>
    <g clip-path="url(#p9716192ff0)">
     <use style="fill:#2ca02c;stroke:#2ca02c;" x="266.738182" xlink:href="#m83af3663a2" y="163.638545"/>
     <use style="fill:#2ca02c;stroke:#2ca02c;" x="269.275702" xlink:href="#m83af3663a2" y="163.118544"/>
     <use style="fill:#2ca02c;stroke:#2ca02c;" x="274.350744" xlink:href="#m83af3663a2" y="162.132348"/>
     <use style="fill:#2ca02c;stroke:#2ca02c;" x="281.963306" xlink:href="#m83af3663a2" y="160.721448"/>
     <use style="fill:#2ca02c;stroke:#2ca02c;" x="292.113388" xlink:href="#m83af3663a2" y="158.904798"/>
     <use style="fill:#2ca02c;stroke:#2ca02c;" x="304.800992" xlink:href="#m83af3663a2" y="156.695356"/>
     <use style="fill:#2ca02c;stroke:#2ca02c;" x="320.026116" xlink:href="#m83af3663a2" y="154.103065"/>
     <use style="fill:#2ca02c;stroke:#2ca02c;" x="337.78876" xlink:href="#m83af3663a2" y="151.136006"/>
     <use style="fill:#2ca02c;stroke:#2ca02c;" x="358.088926" xlink:href="#m83af3663a2" y="147.800951"/>
     <use style="fill:#2ca02c;stroke:#2ca02c;" x="380.926612" xlink:href="#m83af3663a2" y="144.103644"/>
     <use style="fill:#2ca02c;stroke:#2ca02c;" x="406.301818" xlink:href="#m83af3663a2" y="140.048956"/>
    </g>
   </g>
   <g id="patch_8">
    <path d="M 259.76 170.728 
L 259.76 14.76 
" style="fill:none;stroke:#000000;stroke-linecap:square;stroke-linejoin:miter;stroke-width:0.8;"/>
   </g>
   <g id="patch_9">
    <path d="M 413.28 170.728 
L 413.28 14.76 
" style="fill:none;stroke:#000000;stroke-linecap:square;stroke-linejoin:miter;stroke-width:0.8;"/>
   </g>
   <g id="patch_10">
    <path d="M 259.76 170.728 
L 413.28 170.728 
" style="fill:none;stroke:#000000;stroke-linecap:square;stroke-linejoin:miter;stroke-width:0.8;"/>
   </g>
   <g id="patch_11">
    <path d="M 259.76 14.76 
L 413.28 14.76 
" style="fill:none;stroke:#000000;stroke-linecap:square;stroke-linejoin:miter;stroke-width:0.8;"/>
   </g>
   <g id="legend_1">
    <g id="patch_12">
     <path d="M 266.76 72.26 
L 377.96 72.26 
Q 379.96 72.26 379.96 70.26 
L 379.96 21.76 
Q 379.96 19.76 377.96 19.76 
L 266.76 19.76 
Q 264.76 19.76 264.76 21.76 
L 264.76 70.26 
Q 264.76 72.26 266.76 72.26 
z
" style="fill:#ffffff;opacity:0.8;stroke:#cccccc;stroke-linejoin:miter;"/>
    </g>
    <g id="line2d_27">
     <path d="M 268.76 29.36 
L 288.76 29.36 
" style="fill:none;stroke:#1f77b4;stroke-linecap:square;stroke-width:1.5;"/>
    </g>
    <g id="line2d_28">
     <g>
      <use style="fill:#1f77b4;stroke:#1f77b4;" x="278.76" xlink:href="#me7665b16cb" y="29.36"/>
     </g>
    </g>
    <g id="text_25">
     <!-- $|G^*|=2x10^8$ Pa -->
     <defs>
      <path d="M 21 76.421875 
L 21 -23.578125 
L 12.703125 -23.578125 
L 12.703125 76.421875 
z
" id="DejaVuSans-124"/>
      <path d="M 54.59375 10.890625 
L 58.40625 29.984375 
L 42.1875 29.984375 
L 43.703125 38.09375 
L 69.578125 38.09375 
L 63.28125 6 
Q 56.78125 2.4375 49.109375 0.5 
Q 41.453125 -1.421875 33.6875 -1.421875 
Q 19.96875 -1.421875 12.234375 6.1875 
Q 4.5 13.8125 4.5 27.390625 
Q 4.5 38.671875 9.203125 48.84375 
Q 13.921875 59.03125 22.21875 65.828125 
Q 27.4375 70.0625 33.640625 72.140625 
Q 39.84375 74.21875 47.40625 74.21875 
Q 54.25 74.21875 60.515625 72.484375 
Q 66.796875 70.75 72.515625 67.28125 
L 70.515625 56.78125 
Q 66.109375 61.375 60.203125 63.796875 
Q 54.296875 66.21875 47.609375 66.21875 
Q 39.84375 66.21875 33.9375 63.25 
Q 28.03125 60.296875 23.390625 54.109375 
Q 19.4375 48.828125 17.15625 41.671875 
Q 14.890625 34.515625 14.890625 27.09375 
Q 14.890625 16.890625 20.109375 11.734375 
Q 25.34375 6.59375 35.6875 6.59375 
Q 40.875 6.59375 45.703125 7.6875 
Q 50.53125 8.796875 54.59375 10.890625 
z
" id="DejaVuSans-Oblique-71"/>
      <path d="M 47.015625 60.890625 
L 29.5 51.421875 
L 47.015625 41.890625 
L 44.1875 37.109375 
L 27.78125 47.015625 
L 27.78125 28.609375 
L 22.21875 28.609375 
L 22.21875 47.015625 
L 5.8125 37.109375 
L 2.984375 41.890625 
L 20.515625 51.421875 
L 2.984375 60.890625 
L 5.8125 65.71875 
L 22.21875 55.8125 
L 22.21875 74.21875 
L 27.78125 74.21875 
L 27.78125 55.8125 
L 44.1875 65.71875 
z
" id="DejaVuSans-42"/>
      <path d="M 10.59375 45.40625 
L 73.1875 45.40625 
L 73.1875 37.203125 
L 10.59375 37.203125 
z
M 10.59375 25.484375 
L 73.1875 25.484375 
L 73.1875 17.1875 
L 10.59375 17.1875 
z
" id="DejaVuSans-61"/>
      <path d="M 60.015625 54.6875 
L 34.90625 27.875 
L 50.296875 0 
L 39.984375 0 
L 28.421875 21.6875 
L 8.296875 0 
L -2.59375 0 
L 24.3125 28.8125 
L 10.015625 54.6875 
L 20.3125 54.6875 
L 30.8125 34.90625 
L 49.125 54.6875 
z
" id="DejaVuSans-Oblique-120"/>
      <path d="M 31.78125 34.625 
Q 24.75 34.625 20.71875 30.859375 
Q 16.703125 27.09375 16.703125 20.515625 
Q 16.703125 13.921875 20.71875 10.15625 
Q 24.75 6.390625 31.78125 6.390625 
Q 38.8125 6.390625 42.859375 10.171875 
Q 46.921875 13.96875 46.921875 20.515625 
Q 46.921875 27.09375 42.890625 30.859375 
Q 38.875 34.625 31.78125 34.625 
z
M 21.921875 38.8125 
Q 15.578125 40.375 12.03125 44.71875 
Q 8.5 49.078125 8.5 55.328125 
Q 8.5 64.0625 14.71875 69.140625 
Q 20.953125 74.21875 31.78125 74.21875 
Q 42.671875 74.21875 48.875 69.140625 
Q 55.078125 64.0625 55.078125 55.328125 
Q 55.078125 49.078125 51.53125 44.71875 
Q 48 40.375 41.703125 38.8125 
Q 48.828125 37.15625 52.796875 32.3125 
Q 56.78125 27.484375 56.78125 20.515625 
Q 56.78125 9.90625 50.3125 4.234375 
Q 43.84375 -1.421875 31.78125 -1.421875 
Q 19.734375 -1.421875 13.25 4.234375 
Q 6.78125 9.90625 6.78125 20.515625 
Q 6.78125 27.484375 10.78125 32.3125 
Q 14.796875 37.15625 21.921875 38.8125 
z
M 18.3125 54.390625 
Q 18.3125 48.734375 21.84375 45.5625 
Q 25.390625 42.390625 31.78125 42.390625 
Q 38.140625 42.390625 41.71875 45.5625 
Q 45.3125 48.734375 45.3125 54.390625 
Q 45.3125 60.0625 41.71875 63.234375 
Q 38.140625 66.40625 31.78125 66.40625 
Q 25.390625 66.40625 21.84375 63.234375 
Q 18.3125 60.0625 18.3125 54.390625 
z
" id="DejaVuSans-56"/>
      <path d="M 19.671875 64.796875 
L 19.671875 37.40625 
L 32.078125 37.40625 
Q 38.96875 37.40625 42.71875 40.96875 
Q 46.484375 44.53125 46.484375 51.125 
Q 46.484375 57.671875 42.71875 61.234375 
Q 38.96875 64.796875 32.078125 64.796875 
z
M 9.8125 72.90625 
L 32.078125 72.90625 
Q 44.34375 72.90625 50.609375 67.359375 
Q 56.890625 61.8125 56.890625 51.125 
Q 56.890625 40.328125 50.609375 34.8125 
Q 44.34375 29.296875 32.078125 29.296875 
L 19.671875 29.296875 
L 19.671875 0 
L 9.8125 0 
z
" id="DejaVuSans-80"/>
      <path d="M 34.28125 27.484375 
Q 23.390625 27.484375 19.1875 25 
Q 14.984375 22.515625 14.984375 16.5 
Q 14.984375 11.71875 18.140625 8.90625 
Q 21.296875 6.109375 26.703125 6.109375 
Q 34.1875 6.109375 38.703125 11.40625 
Q 43.21875 16.703125 43.21875 25.484375 
L 43.21875 27.484375 
z
M 52.203125 31.203125 
L 52.203125 0 
L 43.21875 0 
L 43.21875 8.296875 
Q 40.140625 3.328125 35.546875 0.953125 
Q 30.953125 -1.421875 24.3125 -1.421875 
Q 15.921875 -1.421875 10.953125 3.296875 
Q 6 8.015625 6 15.921875 
Q 6 25.140625 12.171875 29.828125 
Q 18.359375 34.515625 30.609375 34.515625 
L 43.21875 34.515625 
L 43.21875 35.40625 
Q 43.21875 41.609375 39.140625 45 
Q 35.0625 48.390625 27.6875 48.390625 
Q 23 48.390625 18.546875 47.265625 
Q 14.109375 46.140625 10.015625 43.890625 
L 10.015625 52.203125 
Q 14.9375 54.109375 19.578125 55.046875 
Q 24.21875 56 28.609375 56 
Q 40.484375 56 46.34375 49.84375 
Q 52.203125 43.703125 52.203125 31.203125 
z
" id="DejaVuSans-97"/>
     </defs>
     <g transform="translate(296.76 32.86)scale(0.1 -0.1)">
      <use transform="translate(0 0.765625)" xlink:href="#DejaVuSans-124"/>
      <use transform="translate(33.691406 0.765625)" xlink:href="#DejaVuSans-Oblique-71"/>
      <use transform="translate(132.019857 39.046875)scale(0.7)" xlink:href="#DejaVuSans-42"/>
      <use transform="translate(183.391927 0.765625)" xlink:href="#DejaVuSans-124"/>
      <use transform="translate(236.565755 0.765625)" xlink:href="#DejaVuSans-61"/>
      <use transform="translate(339.83724 0.765625)" xlink:href="#DejaVuSans-50"/>
      <use transform="translate(403.460286 0.765625)" xlink:href="#DejaVuSans-Oblique-120"/>
      <use transform="translate(462.639974 0.765625)" xlink:href="#DejaVuSans-49"/>
      <use transform="translate(526.263021 0.765625)" xlink:href="#DejaVuSans-48"/>
      <use transform="translate(590.843099 39.046875)scale(0.7)" xlink:href="#DejaVuSans-56"/>
      <use transform="translate(638.113607 0.765625)" xlink:href="#DejaVuSans-32"/>
      <use transform="translate(669.900716 0.765625)" xlink:href="#DejaVuSans-80"/>
      <use transform="translate(730.203451 0.765625)" xlink:href="#DejaVuSans-97"/>
     </g>
    </g>
    <g id="line2d_29">
     <path d="M 268.76 45.86 
L 288.76 45.86 
" style="fill:none;stroke:#ff7f0e;stroke-linecap:square;stroke-width:1.5;"/>
    </g>
    <g id="line2d_30">
     <g>
      <use style="fill:#ff7f0e;stroke:#ff7f0e;" x="278.76" xlink:href="#m8baff0f51d" y="45.86"/>
     </g>
    </g>
    <g id="text_26">
     <!-- $|G^*|=5x10^8$ Pa -->
     <g transform="translate(296.76 49.36)scale(0.1 -0.1)">
      <use transform="translate(0 0.765625)" xlink:href="#DejaVuSans-124"/>
      <use transform="translate(33.691406 0.765625)" xlink:href="#DejaVuSans-Oblique-71"/>
      <use transform="translate(132.019857 39.046875)scale(0.7)" xlink:href="#DejaVuSans-42"/>
      <use transform="translate(183.391927 0.765625)" xlink:href="#DejaVuSans-124"/>
      <use transform="translate(236.565755 0.765625)" xlink:href="#DejaVuSans-61"/>
      <use transform="translate(339.83724 0.765625)" xlink:href="#DejaVuSans-53"/>
      <use transform="translate(403.460286 0.765625)" xlink:href="#DejaVuSans-Oblique-120"/>
      <use transform="translate(462.639974 0.765625)" xlink:href="#DejaVuSans-49"/>
      <use transform="translate(526.263021 0.765625)" xlink:href="#DejaVuSans-48"/>
      <use transform="translate(590.843099 39.046875)scale(0.7)" xlink:href="#DejaVuSans-56"/>
      <use transform="translate(638.113607 0.765625)" xlink:href="#DejaVuSans-32"/>
      <use transform="translate(669.900716 0.765625)" xlink:href="#DejaVuSans-80"/>
      <use transform="translate(730.203451 0.765625)" xlink:href="#DejaVuSans-97"/>
     </g>
    </g>
    <g id="line2d_31">
     <path d="M 268.76 62.36 
L 288.76 62.36 
" style="fill:none;stroke:#2ca02c;stroke-linecap:square;stroke-width:1.5;"/>
    </g>
    <g id="line2d_32">
     <g>
      <use style="fill:#2ca02c;stroke:#2ca02c;" x="278.76" xlink:href="#m83af3663a2" y="62.36"/>
     </g>
    </g>
    <g id="text_27">
     <!-- $|G^*|=10^9$ Pa -->
     <defs>
      <path d="M 10.984375 1.515625 
L 10.984375 10.5 
Q 14.703125 8.734375 18.5 7.8125 
Q 22.3125 6.890625 25.984375 6.890625 
Q 35.75 6.890625 40.890625 13.453125 
Q 46.046875 20.015625 46.78125 33.40625 
Q 43.953125 29.203125 39.59375 26.953125 
Q 35.25 24.703125 29.984375 24.703125 
Q 19.046875 24.703125 12.671875 31.3125 
Q 6.296875 37.9375 6.296875 49.421875 
Q 6.296875 60.640625 12.9375 67.421875 
Q 19.578125 74.21875 30.609375 74.21875 
Q 43.265625 74.21875 49.921875 64.515625 
Q 56.59375 54.828125 56.59375 36.375 
Q 56.59375 19.140625 48.40625 8.859375 
Q 40.234375 -1.421875 26.421875 -1.421875 
Q 22.703125 -1.421875 18.890625 -0.6875 
Q 15.09375 0.046875 10.984375 1.515625 
z
M 30.609375 32.421875 
Q 37.25 32.421875 41.125 36.953125 
Q 45.015625 41.5 45.015625 49.421875 
Q 45.015625 57.28125 41.125 61.84375 
Q 37.25 66.40625 30.609375 66.40625 
Q 23.96875 66.40625 20.09375 61.84375 
Q 16.21875 57.28125 16.21875 49.421875 
Q 16.21875 41.5 20.09375 36.953125 
Q 23.96875 32.421875 30.609375 32.421875 
z
" id="DejaVuSans-57"/>
     </defs>
     <g transform="translate(296.76 65.86)scale(0.1 -0.1)">
      <use transform="translate(0 0.765625)" xlink:href="#DejaVuSans-124"/>
      <use transform="translate(33.691406 0.765625)" xlink:href="#DejaVuSans-Oblique-71"/>
      <use transform="translate(132.019857 39.046875)scale(0.7)" xlink:href="#DejaVuSans-42"/>
      <use transform="translate(183.391927 0.765625)" xlink:href="#DejaVuSans-124"/>
      <use transform="translate(236.565755 0.765625)" xlink:href="#DejaVuSans-61"/>
      <use transform="translate(339.83724 0.765625)" xlink:href="#DejaVuSans-49"/>
      <use transform="translate(403.460286 0.765625)" xlink:href="#DejaVuSans-48"/>
      <use transform="translate(468.040365 39.046875)scale(0.7)" xlink:href="#DejaVuSans-57"/>
      <use transform="translate(515.310872 0.765625)" xlink:href="#DejaVuSans-32"/>
      <use transform="translate(547.097982 0.765625)" xlink:href="#DejaVuSans-80"/>
      <use transform="translate(607.400716 0.765625)" xlink:href="#DejaVuSans-97"/>
     </g>
    </g>
   </g>
  </g>
 </g>
 <defs>
  <clipPath id="pac81960257">
   <rect height="155.968" width="153.52" x="49.16" y="14.76"/>
  </clipPath>
  <clipPath id="p9716192ff0">
   <rect height="155.968" width="153.52" x="259.76" y="14.76"/>
  </clipPath>
 </defs>
</svg>
