<?xml version="1.0" encoding="UTF-8" standalone="no"?>
<!-- Created with Inkscape (http://www.inkscape.org/) -->

<svg
   xmlns:dc="http://purl.org/dc/elements/1.1/"
   xmlns:cc="http://creativecommons.org/ns#"
   xmlns:rdf="http://www.w3.org/1999/02/22-rdf-syntax-ns#"
   xmlns:svg="http://www.w3.org/2000/svg"
   xmlns="http://www.w3.org/2000/svg"
   xmlns:sodipodi="http://sodipodi.sourceforge.net/DTD/sodipodi-0.dtd"
   xmlns:inkscape="http://www.inkscape.org/namespaces/inkscape"
   width="128"
   height="128"
   viewBox="0 0 33.866666 33.866668"
   version="1.1"
   id="svg1839"
   inkscape:version="0.92.2 (5c3e80d, 2017-08-06)"
   sodipodi:docname="export.svg">
  <defs
     id="defs1833" />
  <sodipodi:namedview
     id="base"
     pagecolor="#ffffff"
     bordercolor="#666666"
     borderopacity="1.0"
     inkscape:pageopacity="0.0"
     inkscape:pageshadow="2"
     inkscape:zoom="1.979899"
     inkscape:cx="22.901175"
     inkscape:cy="20.384243"
     inkscape:document-units="mm"
     inkscape:current-layer="layer1"
     showgrid="false"
     units="px"
     inkscape:window-width="1920"
     inkscape:window-height="1017"
     inkscape:window-x="-8"
     inkscape:window-y="-8"
     inkscape:window-maximized="1"
     inkscape:lockguides="true"
     showguides="false" />
  <metadata
     id="metadata1836">
    <rdf:RDF>
      <cc:Work
         rdf:about="">
        <dc:format>image/svg+xml</dc:format>
        <dc:type
           rdf:resource="http://purl.org/dc/dcmitype/StillImage" />
        <dc:title></dc:title>
      </cc:Work>
    </rdf:RDF>
  </metadata>
  <g
     inkscape:label="Layer 1"
     inkscape:groupmode="layer"
     id="layer1"
     transform="translate(0,-263.13332)">
    <g
       id="g5208"
       transform="matrix(1.1020856,0,0,1.1012819,-42.077338,-29.798555)"
       style="stroke-width:0.90770161">
      <path
         id="rect4393-3-9-8-9"
         d="m 40.367207,279.88266 v 4.22531 h 0.0015 a 9.7947078,4.3404211 0 0 0 -0.0015,0.0122 9.7947078,4.3404211 0 0 0 9.794707,4.3405 9.7947078,4.3404211 0 0 0 9.794708,-4.3405 9.7947078,4.3404211 0 0 0 -0.001,-0.0122 h 0.001 v -4.22531 h -0.0263 a 9.7947078,4.3404211 0 0 1 -9.768403,4.10743 9.7947078,4.3404211 0 0 1 -9.776056,-4.10743 z"
         style="opacity:1;fill:#333333;fill-opacity:1;fill-rule:nonzero;stroke:#ffffff;stroke-width:1.75318789;stroke-linecap:round;stroke-linejoin:round;stroke-miterlimit:4;stroke-dasharray:none;stroke-dashoffset:0;stroke-opacity:1;paint-order:stroke markers fill"
         inkscape:connector-curvature="0" />
      <path
         id="rect4393-3-9-8"
         d="m 40.367207,275.64515 v 4.22531 h 0.0015 a 9.7947078,4.3404211 0 0 0 -0.0015,0.0122 9.7947078,4.3404211 0 0 0 9.794706,4.3405 9.7947078,4.3404211 0 0 0 9.794708,-4.3405 9.7947078,4.3404211 0 0 0 -10e-4,-0.0122 h 10e-4 v -4.22531 h -0.0263 a 9.7947078,4.3404211 0 0 1 -9.768403,4.10743 9.7947078,4.3404211 0 0 1 -9.776055,-4.10743 z"
         style="opacity:1;fill:#333333;fill-opacity:1;fill-rule:nonzero;stroke:#ffffff;stroke-width:1.75318789;stroke-linecap:round;stroke-linejoin:round;stroke-miterlimit:4;stroke-dasharray:none;stroke-dashoffset:0;stroke-opacity:1;paint-order:stroke markers fill"
         inkscape:connector-curvature="0" />
      <path
         id="rect4393-3-9-8-7"
         d="m 40.367207,271.41984 v 4.22531 h 0.0015 a 9.7947078,4.3404211 0 0 0 -0.0015,0.0122 9.7947078,4.3404211 0 0 0 9.794706,4.3405 9.7947078,4.3404211 0 0 0 9.794708,-4.3405 9.7947078,4.3404211 0 0 0 -10e-4,-0.0122 h 10e-4 v -4.22531 h -0.0263 a 9.7947078,4.3404211 0 0 1 -9.768403,4.10743 9.7947078,4.3404211 0 0 1 -9.776055,-4.10743 z"
         style="opacity:1;fill:#333333;fill-opacity:1;fill-rule:nonzero;stroke:#ffffff;stroke-width:1.75318789;stroke-linecap:round;stroke-linejoin:round;stroke-miterlimit:4;stroke-dasharray:none;stroke-dashoffset:0;stroke-opacity:1;paint-order:stroke markers fill"
         inkscape:connector-curvature="0" />
      <ellipse
         ry="4.3404212"
         rx="9.7947083"
         cy="271.32956"
         cx="50.161915"
         id="path4374-4-0-4"
         style="opacity:1;fill:#333333;fill-opacity:1;fill-rule:nonzero;stroke:#ffffff;stroke-width:1.75318789;stroke-linecap:round;stroke-linejoin:round;stroke-miterlimit:4;stroke-dasharray:none;stroke-dashoffset:0;stroke-opacity:1;paint-order:stroke markers fill" />
    </g>
    <g
       id="g5226"
       transform="matrix(0.87616953,0,0,0.87616953,4.1202052,42.093701)"
       style="fill:#008000;stroke-width:1.14133167">
      <path
         sodipodi:nodetypes="cccc"
         inkscape:connector-curvature="0"
         id="rect5210"
         d="m 23.49565,272.33916 10.159639,9.15711 -10.159639,9.1571 z"
         style="opacity:1;fill:#008000;fill-opacity:1;fill-rule:nonzero;stroke:none;stroke-width:2.20443463;stroke-linecap:round;stroke-linejoin:round;stroke-miterlimit:4;stroke-dasharray:none;stroke-dashoffset:0;stroke-opacity:1;paint-order:stroke markers fill" />
      <rect
         y="277.64789"
         x="14.481847"
         height="7.6967549"
         width="9.5560074"
         id="rect5213"
         style="opacity:1;fill:#008000;fill-opacity:1;fill-rule:nonzero;stroke:none;stroke-width:2.20443463;stroke-linecap:round;stroke-linejoin:round;stroke-miterlimit:4;stroke-dasharray:none;stroke-dashoffset:0;stroke-opacity:1;paint-order:stroke markers fill" />
    </g>
  </g>
</svg>
