<?xml version="1.0" encoding="UTF-8" standalone="no"?>
<!-- Created with Inkscape (http://www.inkscape.org/) -->

<svg
   xmlns:dc="http://purl.org/dc/elements/1.1/"
   xmlns:cc="http://creativecommons.org/ns#"
   xmlns:rdf="http://www.w3.org/1999/02/22-rdf-syntax-ns#"
   xmlns:svg="http://www.w3.org/2000/svg"
   xmlns="http://www.w3.org/2000/svg"
   xmlns:sodipodi="http://sodipodi.sourceforge.net/DTD/sodipodi-0.dtd"
   xmlns:inkscape="http://www.inkscape.org/namespaces/inkscape"
   width="128"
   height="128"
   viewBox="0 0 33.866666 33.866668"
   version="1.1"
   id="svg1839"
   inkscape:version="0.92.2 (5c3e80d, 2017-08-06)"
   sodipodi:docname="import_qcmd.svg">
  <defs
     id="defs1833" />
  <sodipodi:namedview
     id="base"
     pagecolor="#ffffff"
     bordercolor="#666666"
     borderopacity="1.0"
     inkscape:pageopacity="0.0"
     inkscape:pageshadow="2"
     inkscape:zoom="3.959798"
     inkscape:cx="18.995308"
     inkscape:cy="43.292319"
     inkscape:document-units="mm"
     inkscape:current-layer="layer1"
     showgrid="false"
     units="px"
     inkscape:window-width="1920"
     inkscape:window-height="1017"
     inkscape:window-x="-8"
     inkscape:window-y="-8"
     inkscape:window-maximized="1"
     inkscape:lockguides="true"
     showguides="false" />
  <metadata
     id="metadata1836">
    <rdf:RDF>
      <cc:Work
         rdf:about="">
        <dc:format>image/svg+xml</dc:format>
        <dc:type
           rdf:resource="http://purl.org/dc/dcmitype/StillImage" />
        <dc:title></dc:title>
      </cc:Work>
    </rdf:RDF>
  </metadata>
  <g
     inkscape:label="Layer 1"
     inkscape:groupmode="layer"
     id="layer1"
     transform="translate(0,-263.13332)">
    <path
       style="font-style:normal;font-variant:normal;font-weight:bold;font-stretch:normal;font-size:28.22222137px;line-height:0%;font-family:Arial;-inkscape-font-specification:'Arial, Bold';font-variant-ligatures:normal;font-variant-caps:normal;font-variant-numeric:normal;font-feature-settings:normal;text-align:start;letter-spacing:0px;word-spacing:0px;writing-mode:lr-tb;text-anchor:start;fill:#4d4d4d;fill-opacity:1;stroke:none;stroke-width:0.99999994px;stroke-linecap:butt;stroke-linejoin:miter;stroke-opacity:1"
       d="M 22.935547 13.222656 C 17.223741 13.222656 12.702474 14.959419 9.3691406 18.431641 C 6.0358074 21.886502 4.3691406 26.730252 4.3691406 32.962891 C 4.3691406 39.21289 6.0258248 44.06467 9.3417969 47.519531 C 12.67513 50.974392 17.276476 52.701172 23.144531 52.701172 C 26.182726 52.701172 28.951172 52.154297 31.451172 51.060547 C 34.628255 53.195963 36.338976 54.325738 36.582031 54.447266 C 37.693142 55.054904 38.830946 55.531684 39.994141 55.878906 L 42.832031 50.435547 C 40.609809 49.636936 38.552517 48.561198 36.660156 47.207031 C 38.187934 45.418837 39.299696 43.569878 39.994141 41.660156 C 40.914279 39.160156 41.373047 36.261502 41.373047 32.962891 C 41.373047 26.730252 39.716363 21.886502 36.400391 18.431641 C 33.084419 14.959419 28.595269 13.222656 22.935547 13.222656 z M 63.900391 13.222656 C 58.553169 13.222656 54.238281 14.98546 50.957031 18.509766 C 47.675781 22.01671 46.035156 26.946615 46.035156 33.300781 C 46.035156 39.307726 47.667752 44.047309 50.931641 47.519531 C 53.112163 49.827637 55.705022 51.347163 58.691406 52.113281 L 58.691406 44.867188 C 57.920173 44.392642 57.214861 43.787755 56.582031 43.041016 C 54.84592 40.992405 53.978516 37.554904 53.978516 32.728516 C 53.978516 28.179905 54.85395 24.888672 56.607422 22.857422 C 58.378255 20.826172 60.679905 19.810547 63.509766 19.810547 C 65.558377 19.810547 67.293186 20.383464 68.716797 21.529297 C 70.157769 22.67513 71.105252 24.23763 71.556641 26.216797 L 79.185547 24.394531 C 78.317491 21.338976 77.015408 18.995226 75.279297 17.363281 C 72.36263 14.602865 68.570529 13.222656 63.900391 13.222656 z M 58.691406 44.867188 C 60.035982 45.694514 61.588265 46.113281 63.353516 46.113281 C 65.402127 46.113281 67.162977 45.46224 68.638672 44.160156 C 68.759832 44.053251 68.874692 43.933376 68.990234 43.816406 L 58.691406 43.816406 L 58.691406 44.867188 z M 68.990234 43.816406 L 78.052734 43.816406 C 78.530565 42.76339 78.949168 41.627848 79.291016 40.384766 L 71.816406 38.013672 C 71.226785 40.57932 70.281967 42.508708 68.990234 43.816406 z M 78.052734 43.816406 C 76.928934 46.292976 75.436513 48.256394 73.560547 49.681641 C 70.904297 51.695529 67.528863 52.701172 63.431641 52.701172 C 61.748964 52.701172 60.175157 52.493918 58.691406 52.113281 L 58.691406 120.17188 L 87.701172 120.17188 C 93.395616 120.17188 97.944879 119.63303 101.34766 118.55664 C 105.89627 117.09831 109.50803 115.06706 112.18164 112.46289 C 115.72331 109.02539 118.4477 104.52821 120.35742 98.972656 C 121.91992 94.424045 122.70117 89.007378 122.70117 82.722656 C 122.70117 75.569879 121.86784 69.564236 120.20117 64.703125 C 118.53451 59.807292 116.1046 55.674696 112.91016 52.306641 C 111.63908 50.966483 110.26159 49.795105 108.78711 48.779297 L 107.96289 52.050781 L 100.54102 52.050781 L 98.681641 44.650391 C 97.033762 44.353128 95.130912 44.138032 92.988281 44 L 92.988281 52.050781 L 85.826172 52.050781 L 85.826172 43.816406 L 78.052734 43.816406 z M 85.826172 43.816406 L 86.869141 43.816406 C 89.098307 43.816406 91.130902 43.880344 92.988281 44 L 92.988281 21.998047 L 98.681641 44.650391 C 99.677144 44.829971 100.58545 45.037699 101.40039 45.275391 C 104.09729 46.069825 106.55595 47.242197 108.78711 48.779297 L 115.54102 21.998047 L 115.54102 52.050781 L 122.70117 52.050781 L 122.70117 13.873047 L 111.13867 13.873047 L 104.29102 39.916016 L 97.363281 13.873047 L 85.826172 13.873047 L 85.826172 43.816406 z M 22.884766 19.810547 C 26.027127 19.810547 28.569227 20.904297 30.513672 23.091797 C 32.458116 25.261936 33.431641 28.553169 33.431641 32.962891 C 33.431641 35.098307 33.179253 36.989366 32.675781 38.638672 C 32.18967 40.287977 31.452474 41.694227 30.462891 42.857422 C 28.153863 41.121311 25.731988 39.819227 23.197266 38.951172 L 21.035156 43.353516 C 22.64974 43.926432 24.238281 44.723741 25.800781 45.748047 C 24.811198 46.11263 23.761502 46.294922 22.650391 46.294922 C 19.66428 46.294922 17.190321 45.193142 15.228516 42.988281 C 13.284071 40.766059 12.310547 37.424696 12.310547 32.962891 C 12.310547 28.57053 13.284071 25.279297 15.228516 23.091797 C 17.190321 20.904297 19.742405 19.810547 22.884766 19.810547 z M 74.107422 56.734375 L 81.035156 56.734375 C 87.319878 56.734375 91.538629 56.97678 93.691406 57.462891 C 96.573351 58.087891 98.951172 59.285807 100.82617 61.056641 C 102.70117 62.827474 104.15951 65.293403 105.20117 68.453125 C 106.24284 71.612847 106.76367 76.144097 106.76367 82.046875 C 106.76367 87.949653 106.24284 92.619141 105.20117 96.056641 C 104.15951 99.459418 102.80534 101.90734 101.13867 103.40039 C 99.506727 104.89345 97.441406 105.95313 94.941406 106.57812 C 93.031684 107.06424 89.924696 107.30664 85.619141 107.30664 L 74.107422 107.30664 L 74.107422 56.734375 z "
       transform="matrix(0.26458333,0,0,0.26458333,0,263.13332)"
       id="text830" />
    <g
       id="g5226"
       transform="matrix(0.87616953,0,0,0.87616953,-11.532641,40.267063)"
       style="fill:#800000;stroke-width:1.14133167">
      <path
         sodipodi:nodetypes="cccc"
         inkscape:connector-curvature="0"
         id="rect5210"
         d="m 23.49565,272.33916 10.159639,9.15711 -10.159639,9.1571 z"
         style="opacity:1;fill:#800000;fill-opacity:1;fill-rule:nonzero;stroke:none;stroke-width:2.20443463;stroke-linecap:round;stroke-linejoin:round;stroke-miterlimit:4;stroke-dasharray:none;stroke-dashoffset:0;stroke-opacity:1;paint-order:stroke markers fill" />
      <rect
         y="277.64789"
         x="14.481847"
         height="7.6967549"
         width="9.5560074"
         id="rect5213"
         style="opacity:1;fill:#800000;fill-opacity:1;fill-rule:nonzero;stroke:none;stroke-width:2.20443463;stroke-linecap:round;stroke-linejoin:round;stroke-miterlimit:4;stroke-dasharray:none;stroke-dashoffset:0;stroke-opacity:1;paint-order:stroke markers fill" />
    </g>
  </g>
</svg>
