<?xml version="1.0" encoding="UTF-8" standalone="no"?>
<!-- Created with Inkscape (http://www.inkscape.org/) -->

<svg
   xmlns:dc="http://purl.org/dc/elements/1.1/"
   xmlns:cc="http://creativecommons.org/ns#"
   xmlns:rdf="http://www.w3.org/1999/02/22-rdf-syntax-ns#"
   xmlns:svg="http://www.w3.org/2000/svg"
   xmlns="http://www.w3.org/2000/svg"
   xmlns:sodipodi="http://sodipodi.sourceforge.net/DTD/sodipodi-0.dtd"
   xmlns:inkscape="http://www.inkscape.org/namespaces/inkscape"
   width="128"
   height="128"
   viewBox="0 0 33.866666 33.866668"
   version="1.1"
   id="svg1839"
   inkscape:version="0.92.2 (5c3e80d, 2017-08-06)"
   sodipodi:docname="load_data.svg">
  <defs
     id="defs1833" />
  <sodipodi:namedview
     id="base"
     pagecolor="#ffffff"
     bordercolor="#666666"
     borderopacity="1.0"
     inkscape:pageopacity="0.0"
     inkscape:pageshadow="2"
     inkscape:zoom="2.8"
     inkscape:cx="-17.904015"
     inkscape:cy="59.063834"
     inkscape:document-units="mm"
     inkscape:current-layer="layer1"
     showgrid="false"
     units="px"
     inkscape:window-width="1920"
     inkscape:window-height="1017"
     inkscape:window-x="-8"
     inkscape:window-y="-8"
     inkscape:window-maximized="1"
     inkscape:lockguides="true"
     showguides="false" />
  <metadata
     id="metadata1836">
    <rdf:RDF>
      <cc:Work
         rdf:about="">
        <dc:format>image/svg+xml</dc:format>
        <dc:type
           rdf:resource="http://purl.org/dc/dcmitype/StillImage" />
        <dc:title />
      </cc:Work>
    </rdf:RDF>
  </metadata>
  <g
     inkscape:label="Layer 1"
     inkscape:groupmode="layer"
     id="layer1"
     transform="translate(0,-263.13332)">
    <g
       id="g4372"
       transform="matrix(1.1782456,0,0,1.1782456,-7.2410226,-53.181686)"
       style="stroke-width:0.84871942">
      <path
         id="rect4322-9"
         transform="matrix(0.26458333,0,0,0.26458333,0,263.13332)"
         d="M 30.714844,20.142578 V 110.5 H 102.32227 V 80.607422 l -5.357426,-5 V 20.142578 Z"
         style="opacity:1;fill:#f0cd6a;fill-opacity:1;fill-rule:nonzero;stroke:none;stroke-width:0.64155179;stroke-linecap:square;stroke-linejoin:miter;stroke-miterlimit:4;stroke-dasharray:none;stroke-dashoffset:0;stroke-opacity:1;paint-order:markers fill stroke"
         inkscape:connector-curvature="0" />
      <path
         sodipodi:nodetypes="ccccccc"
         inkscape:connector-curvature="0"
         id="rect4322"
         transform="matrix(0.26458333,0,0,0.26458333,0,263.13332)"
         d="m 30.714844,20.142678 v 90.456302 l 21.75,18.17969 V 98.142578 l 2.177734,-2.164266 V 38.142678 Z"
         style="opacity:1;fill:#ffe597;fill-opacity:1;fill-rule:nonzero;stroke:none;stroke-width:0.64155173;stroke-linecap:square;stroke-linejoin:miter;stroke-miterlimit:4;stroke-dasharray:none;stroke-dashoffset:0;stroke-opacity:1;paint-order:markers fill stroke" />
    </g>
    <g
       id="g5202"
       transform="translate(24.28497,-3.1183036)">
      <path
         inkscape:connector-curvature="0"
         id="rect4393"
         d="m 12.764066,287.72691 v 4.2253 h 0.0015 a 9.7947068,4.3404209 0 0 0 -0.0015,0.0122 9.7947068,4.3404209 0 0 0 9.794708,4.34049 9.7947068,4.3404209 0 0 0 9.794707,-4.34049 9.7947068,4.3404209 0 0 0 -9.25e-4,-0.0122 h 9.25e-4 v -4.2253 h -0.0263 a 9.7947077,4.3404209 0 0 1 -9.768401,4.10742 9.7947077,4.3404209 0 0 1 -9.776056,-4.10742 z"
         style="opacity:1;fill:#333333;fill-opacity:1;fill-rule:nonzero;stroke:none;stroke-width:0.40000001;stroke-linecap:round;stroke-linejoin:round;stroke-miterlimit:4;stroke-dasharray:none;stroke-dashoffset:0;stroke-opacity:1;paint-order:stroke markers fill" />
      <path
         inkscape:connector-curvature="0"
         id="rect4393-4"
         d="m 12.737766,283.48941 v 4.2253 h 0.0015 a 9.794707,4.3404211 0 0 0 -0.0015,0.0122 9.794707,4.3404211 0 0 0 9.794708,4.34049 9.794707,4.3404211 0 0 0 9.794707,-4.34049 9.794707,4.3404211 0 0 0 -9.26e-4,-0.0122 h 9.26e-4 v -4.2253 h -0.0263 a 9.7947078,4.3404211 0 0 1 -9.768402,4.10742 9.7947078,4.3404211 0 0 1 -9.776056,-4.10742 z"
         style="opacity:1;fill:#999999;fill-opacity:1;fill-rule:nonzero;stroke:none;stroke-width:0.40000001;stroke-linecap:round;stroke-linejoin:round;stroke-miterlimit:4;stroke-dasharray:none;stroke-dashoffset:0;stroke-opacity:1;paint-order:stroke markers fill" />
      <path
         id="rect4393-3"
         d="m 12.711466,279.2519 v 4.22531 h 0.0015 a 9.7947077,4.3404209 0 0 0 -0.0015,0.0122 9.7947077,4.3404209 0 0 0 9.794707,4.3405 9.7947077,4.3404209 0 0 0 9.794708,-4.3405 9.7947077,4.3404209 0 0 0 -10e-4,-0.0122 h 10e-4 v -4.22531 h -0.0263 a 9.7947077,4.3404209 0 0 1 -9.768401,4.10743 9.7947077,4.3404209 0 0 1 -9.776056,-4.10743 z"
         style="opacity:1;fill:#333333;fill-opacity:1;fill-rule:nonzero;stroke:none;stroke-width:0.40000001;stroke-linecap:round;stroke-linejoin:round;stroke-miterlimit:4;stroke-dasharray:none;stroke-dashoffset:0;stroke-opacity:1;paint-order:stroke markers fill"
         inkscape:connector-curvature="0" />
      <path
         id="rect4393-3-8"
         d="m 12.711466,275.01439 v 4.22531 h 0.0015 a 9.7947078,4.3404211 0 0 0 -0.0015,0.0122 9.7947078,4.3404211 0 0 0 9.794707,4.3405 9.7947078,4.3404211 0 0 0 9.794708,-4.3405 9.7947078,4.3404211 0 0 0 -10e-4,-0.0122 h 10e-4 v -4.22531 h -0.0263 a 9.7947078,4.3404211 0 0 1 -9.768402,4.10743 9.7947078,4.3404211 0 0 1 -9.776056,-4.10743 z"
         style="opacity:1;fill:#999999;fill-opacity:1;fill-rule:nonzero;stroke:none;stroke-width:0.40000001;stroke-linecap:round;stroke-linejoin:round;stroke-miterlimit:4;stroke-dasharray:none;stroke-dashoffset:0;stroke-opacity:1;paint-order:stroke markers fill"
         inkscape:connector-curvature="0" />
      <ellipse
         ry="4.3404212"
         rx="9.7947083"
         cy="274.85696"
         cx="22.506174"
         id="path4374-4"
         style="opacity:1;fill:#333333;fill-opacity:1;fill-rule:nonzero;stroke:none;stroke-width:0.40000001;stroke-linecap:round;stroke-linejoin:round;stroke-miterlimit:4;stroke-dasharray:none;stroke-dashoffset:0;stroke-opacity:1;paint-order:stroke markers fill" />
    </g>
    <path
       id="path4534"
       d="m -2.2669306,279.38721 -1.4160185,-0.83983 c 0.03742,-0.52375 0.02515,-1.05196 -0.03413,-1.57476 l 1.3558065,-0.89016 c 0.4543707,-0.25399 0.6380477,-0.80361 0.4275637,-1.28196 l -1.0489114,-2.38284 c -0.2093111,-0.47624 -0.7396358,-0.71377 -1.2114105,-0.55973 l -1.5949841,0.40545 c -0.3459466,-0.39698 -0.7264703,-0.7608 -1.1380344,-1.08676 l 0.3318411,-1.58982 c 0.138993,-0.5014 -0.12253,-1.02091 -0.6051137,-1.20741 l -2.4291765,-0.94472 c -0.249754,-0.0981 -0.5223246,-0.0915 -0.7690296,0.0174 -0.213311,0.0938 -0.387582,0.25799 -0.480949,0.44378 l -0.841233,1.41648 c -0.523508,-0.0376 -1.051957,-0.0251 -1.573349,0.0324 l -0.889454,-1.35699 c -0.25587,-0.45155 -0.807368,-0.63428 -1.282903,-0.42521 l -2.383783,1.04914 c -0.475767,0.20931 -0.71377,0.73963 -0.559018,1.2107 l 0.406853,1.59405 c -0.396747,0.34642 -0.762916,0.72741 -1.088641,1.13898 l -1.589579,-0.33184 c -0.482122,-0.13382 -1.026322,0.13734 -1.207651,0.60535 l -0.944715,2.42987 c -0.189791,0.484 0.01902,1.02656 0.460717,1.24975 l 1.416722,0.84123 c -0.0376,0.52328 -0.02613,1.04961 0.03315,1.57265 l -1.357461,0.89039 c -0.451545,0.25612 -0.634509,0.8076 -0.425199,1.28361 l 1.0489,2.3826 c 0.210484,0.47859 0.739875,0.71448 1.211411,0.56044 l 1.595686,-0.40593 c 0.342428,0.3944 0.725298,0.75964 1.137333,1.08748 l -0.330659,1.5884 c -0.140174,0.50094 0.120877,1.02044 0.604172,1.20929 l 2.427525,0.94449 c 0.250936,0.0964 0.524449,0.0922 0.771626,-0.016 0.21283,-0.0941 0.386871,-0.25964 0.480468,-0.44567 l 0.840771,-1.41648 c 0.525152,0.0367 1.05266,0.0268 1.574994,-0.0341 l 0.888512,1.3584 c 0.255398,0.45154 0.8068956,0.63428 1.2826623,0.42521 l 2.3840125,-1.04914 c 0.4755346,-0.20931 0.7133067,-0.73964 0.5592577,-1.2107 l -0.4059197,-1.59546 c 0.3960437,-0.34337 0.7593953,-0.72577 1.0872364,-1.13756 l 1.5886371,0.32995 c 0.4830627,0.13452 1.0275034,-0.13829 1.2078814,-0.60535 l 0.9435414,-2.42635 c 0.1897906,-0.48494 -0.01689,-1.02797 -0.4600057,-1.2528 z m -8.1235704,2.9435 c -2.417409,1.06349 -5.248506,-0.0353 -6.312222,-2.45362 -1.063717,-2.41742 0.0376,-5.24851 2.455043,-6.31199 2.416707,-1.06348 5.2484959,0.0367 6.3124523,2.45433 1.0637164,2.41765 -0.03831,5.24733 -2.4552733,6.31128 z"
       inkscape:connector-curvature="0"
       style="fill:#808080;stroke-width:0.26458332" />
    <g
       id="g942"
       transform="translate(1.6853118,0.44262667)">
      <path
         id="rect4393-3-9-8-9-7"
         d="m -26.292459,289.68928 v 3.38293 h 0.0015 a 9.7947078,3.4750879 0 0 0 -0.0015,0.01 9.7947078,3.4750879 0 0 0 9.794707,3.47515 9.7947078,3.4750879 0 0 0 9.7947078,-3.47515 9.7947078,3.4750879 0 0 0 -0.001,-0.01 h 0.001 v -3.38293 h -0.0263 a 9.7947078,3.4750879 0 0 1 -9.7684028,3.28855 9.7947078,3.4750879 0 0 1 -9.776056,-3.28855 z"
         style="opacity:1;fill:#333333;fill-opacity:1;fill-rule:nonzero;stroke:none;stroke-width:1.93099999;stroke-linecap:round;stroke-linejoin:round;stroke-miterlimit:4;stroke-dasharray:none;stroke-dashoffset:0;stroke-opacity:1;paint-order:markers stroke fill"
         inkscape:connector-curvature="0" />
      <path
         id="rect4393-3-9-8-3"
         d="m -26.292459,285.23824 v 3.38292 h 0.0015 a 9.7947078,3.4750879 0 0 0 -0.0015,0.01 9.7947078,3.4750879 0 0 0 9.794706,3.47515 9.7947078,3.4750879 0 0 0 9.7947078,-3.47515 9.7947078,3.4750879 0 0 0 -0.001,-0.01 h 0.001 v -3.38292 h -0.0263 a 9.7947078,3.4750879 0 0 1 -9.7684028,3.28855 9.7947078,3.4750879 0 0 1 -9.776055,-3.28855 z"
         style="opacity:1;fill:#333333;fill-opacity:1;fill-rule:nonzero;stroke:none;stroke-width:1.93099999;stroke-linecap:round;stroke-linejoin:round;stroke-miterlimit:4;stroke-dasharray:none;stroke-dashoffset:0;stroke-opacity:1;paint-order:markers stroke fill"
         inkscape:connector-curvature="0" />
      <path
         id="rect4393-3-9-8-7-2"
         d="m -26.291459,280.78719 v 3.38293 h 0.0015 a 9.7947078,3.4750879 0 0 0 -0.0015,0.01 9.7947078,3.4750879 0 0 0 9.794706,3.47515 9.7947078,3.4750879 0 0 0 9.7947078,-3.47515 9.7947078,3.4750879 0 0 0 -0.001,-0.01 h 0.001 v -3.38293 h -0.0263 a 9.7947078,3.4750879 0 0 1 -9.7684028,3.28855 9.7947078,3.4750879 0 0 1 -9.776055,-3.28855 z"
         style="opacity:1;fill:#333333;fill-opacity:1;fill-rule:nonzero;stroke:none;stroke-width:1.93099999;stroke-linecap:round;stroke-linejoin:round;stroke-miterlimit:4;stroke-dasharray:none;stroke-dashoffset:0;stroke-opacity:1;paint-order:markers stroke fill"
         inkscape:connector-curvature="0" />
      <ellipse
         ry="3.4750881"
         rx="9.7947083"
         cy="279.7702"
         cx="-16.497753"
         id="path4374-4-0-4-9"
         style="opacity:1;fill:#333333;fill-opacity:1;fill-rule:nonzero;stroke:none;stroke-width:1.93099999;stroke-linecap:round;stroke-linejoin:round;stroke-miterlimit:4;stroke-dasharray:none;stroke-dashoffset:0;stroke-opacity:1;paint-order:markers stroke fill" />
    </g>
  </g>
</svg>
