<?xml version="1.0" encoding="UTF-8" standalone="no"?>
<!-- Created with Inkscape (http://www.inkscape.org/) -->

<svg
   xmlns:dc="http://purl.org/dc/elements/1.1/"
   xmlns:cc="http://creativecommons.org/ns#"
   xmlns:rdf="http://www.w3.org/1999/02/22-rdf-syntax-ns#"
   xmlns:svg="http://www.w3.org/2000/svg"
   xmlns="http://www.w3.org/2000/svg"
   xmlns:sodipodi="http://sodipodi.sourceforge.net/DTD/sodipodi-0.dtd"
   xmlns:inkscape="http://www.inkscape.org/namespaces/inkscape"
   width="128"
   height="128"
   viewBox="0 0 33.866666 33.866668"
   version="1.1"
   id="svg1839"
   inkscape:version="0.92.2 (5c3e80d, 2017-08-06)"
   sodipodi:docname="ref_self.svg">
  <defs
     id="defs1833" />
  <sodipodi:namedview
     id="base"
     pagecolor="#ffffff"
     bordercolor="#666666"
     borderopacity="1.0"
     inkscape:pageopacity="0.0"
     inkscape:pageshadow="2"
     inkscape:zoom="5.6"
     inkscape:cx="23.090399"
     inkscape:cy="75.633545"
     inkscape:document-units="mm"
     inkscape:current-layer="text2017-7"
     showgrid="false"
     units="px"
     inkscape:window-width="1920"
     inkscape:window-height="1017"
     inkscape:window-x="-8"
     inkscape:window-y="-8"
     inkscape:window-maximized="1" />
  <metadata
     id="metadata1836">
    <rdf:RDF>
      <cc:Work
         rdf:about="">
        <dc:format>image/svg+xml</dc:format>
        <dc:type
           rdf:resource="http://purl.org/dc/dcmitype/StillImage" />
        <dc:title></dc:title>
      </cc:Work>
    </rdf:RDF>
  </metadata>
  <g
     inkscape:label="Layer 1"
     inkscape:groupmode="layer"
     id="layer1"
     transform="translate(0,-263.13332)">
    <g
       aria-label="R"
       style="font-style:normal;font-variant:normal;font-weight:normal;font-stretch:normal;font-size:45.53501511px;line-height:125%;font-family:'Open 24 Display St';-inkscape-font-specification:'Open 24 Display St, Normal';font-variant-ligatures:normal;font-variant-caps:normal;font-variant-numeric:normal;font-feature-settings:normal;text-align:start;letter-spacing:0px;word-spacing:0px;writing-mode:lr-tb;text-anchor:start;fill:#333333;fill-opacity:1;stroke:none;stroke-width:0.26499999;stroke-linecap:butt;stroke-linejoin:miter;stroke-miterlimit:4;stroke-dasharray:none;stroke-opacity:1"
       id="text2017">
      <path
         d="M 4.7958844,264.19165 H 17.424736 q 0.11117,0 0.889356,0.88936 0,0.11116 -2.668067,2.66806 H 6.574596 q -0.1111695,0 -2.6680673,-2.66806 0,-0.11117 0.8893557,-0.88936 z m 14.3186276,0.88936 q 0.11117,0 0.889356,0.88935 v 12.62885 q 0,0.11117 -0.889356,0.88936 -0.111169,0 -2.668067,-2.66807 v -9.07143 q 0,-0.11117 2.668067,-2.66806 z m -16.0973391,0.0889 q 0.1111695,0 2.6680673,2.66807 v 9.07143 q 0,0.11117 -2.6680673,2.66806 -0.1111695,0 -0.8893557,-0.88935 V 266.0593 q 0,-0.11117 0.8893557,-0.88936 z m 2.6680673,12.9846 H 16.179638 q 0.11117,0 1.778712,1.77871 v 0.0889 q 0,0.11117 -1.778712,1.77871 H 5.6852402 q -0.1111695,0 -1.7787115,-1.77871 v -0.0889 q 0,-0.11117 1.7787115,-1.77871 z m -2.6680673,2.31232 q 0.1111695,0 2.6680673,2.66807 v 10.13865 q 0,0.11117 -2.6680673,2.66807 -0.1111695,0 -0.8893557,-0.88936 v -13.69607 q 0,-0.11117 0.8893557,-0.88936 z m 8.8935581,2.22339 h 2.579131 q 1.867647,0.95606 3.201681,5.78081 0.355742,0.75595 2.312325,6.31443 -0.444678,0.88935 -0.444678,1.06722 h -0.08893 q -3.646359,-1.31179 -3.646359,-2.13445 -2.668067,-7.58176 -4.091037,-10.93907 z"
         style="font-style:normal;font-variant:normal;font-weight:normal;font-stretch:normal;font-size:45.53501511px;font-family:'Open 24 Display St';-inkscape-font-specification:'Open 24 Display St, Normal';font-variant-ligatures:normal;font-variant-caps:normal;font-variant-numeric:normal;font-feature-settings:normal;text-align:start;writing-mode:lr-tb;text-anchor:start;fill:#333333;stroke:none;stroke-width:0.26499999;stroke-miterlimit:4;stroke-dasharray:none;stroke-opacity:1"
         id="path2608" />
    </g>
    <g
       aria-label="P"
       style="font-style:normal;font-variant:normal;font-weight:normal;font-stretch:normal;font-size:30.3566761px;line-height:125%;font-family:'Open 24 Display St';-inkscape-font-specification:'Open 24 Display St, Normal';font-variant-ligatures:normal;font-variant-caps:normal;font-variant-numeric:normal;font-feature-settings:normal;text-align:start;letter-spacing:0px;word-spacing:0px;writing-mode:lr-tb;text-anchor:start;fill:#800000;fill-opacity:1;stroke:none;stroke-width:0.26458332px;stroke-linecap:butt;stroke-linejoin:miter;stroke-opacity:1"
       id="text2017-7">
      <g
         aria-label="S"
         style="font-style:normal;font-variant:normal;font-weight:normal;font-stretch:normal;font-size:30.33888817px;line-height:125%;font-family:'Open 24 Display St';-inkscape-font-specification:'Open 24 Display St, Normal';font-variant-ligatures:normal;font-variant-caps:normal;font-variant-numeric:normal;font-feature-settings:normal;text-align:start;letter-spacing:0px;word-spacing:0px;writing-mode:lr-tb;text-anchor:start;fill:#800000;fill-opacity:1;stroke:none;stroke-width:0.26458332px;stroke-linecap:butt;stroke-linejoin:miter;stroke-opacity:1"
         id="text821">
        <path
           d="M 22.708099,274.80628 H 31.1224 q 0.07407,0 0.592556,0.59255 0,0.0741 -1.777669,1.77767 h -6.044075 q -0.07407,0 -1.77767,-1.77767 0,-0.0741 0.592557,-0.59255 z m -1.185113,0.65181 q 0.07407,0 1.777669,1.77767 v 6.04407 q 0,0.0741 -1.777669,1.77767 -0.07407,0 -0.592557,-0.59255 v -8.4143 q 0,-0.0741 0.592557,-0.59256 z m 1.777669,8.65132 h 6.992166 q 0.07407,0 1.185113,1.18512 v 0.0592 q 0,0.0741 -1.185113,1.18511 h -6.992166 q -0.07407,0 -1.185113,-1.18511 v -0.0592 q 0,-0.0741 1.185113,-1.18512 z m 8.947602,1.5999 q 0.07407,0 0.592556,0.59256 v 8.4143 q 0,0.0741 -0.592556,0.59256 -0.07407,0 -1.777669,-1.77767 v -6.04408 q 0,-0.0741 1.777669,-1.77767 z m -8.414301,7.88101 h 6.044075 q 0.07407,0 1.777669,1.77766 0,0.0741 -0.592556,0.59256 h -8.414301 q -0.07407,0 -0.592556,-0.59256 0,-0.0741 1.777669,-1.77766 z"
           style="font-style:normal;font-variant:normal;font-weight:normal;font-stretch:normal;font-size:30.33888817px;font-family:'Open 24 Display St';-inkscape-font-specification:'Open 24 Display St, Normal';font-variant-ligatures:normal;font-variant-caps:normal;font-variant-numeric:normal;font-feature-settings:normal;text-align:start;writing-mode:lr-tb;text-anchor:start;fill:#800000;fill-opacity:1;stroke-width:0.26458332px"
           id="path823" />
      </g>
    </g>
  </g>
</svg>
