<?xml version="1.0" encoding="UTF-8" standalone="no"?>
<!-- Created with Inkscape (http://www.inkscape.org/) -->

<svg
   xmlns:dc="http://purl.org/dc/elements/1.1/"
   xmlns:cc="http://creativecommons.org/ns#"
   xmlns:rdf="http://www.w3.org/1999/02/22-rdf-syntax-ns#"
   xmlns:svg="http://www.w3.org/2000/svg"
   xmlns="http://www.w3.org/2000/svg"
   xmlns:sodipodi="http://sodipodi.sourceforge.net/DTD/sodipodi-0.dtd"
   xmlns:inkscape="http://www.inkscape.org/namespaces/inkscape"
   width="128"
   height="128"
   viewBox="0 0 33.866667 33.866669"
   version="1.1"
   id="svg939"
   inkscape:version="0.92.2 (5c3e80d, 2017-08-06)"
   sodipodi:docname="save.svg">
  <defs
     id="defs933" />
  <sodipodi:namedview
     id="base"
     pagecolor="#ffffff"
     bordercolor="#666666"
     borderopacity="1.0"
     inkscape:pageopacity="0.0"
     inkscape:pageshadow="2"
     inkscape:zoom="3.959798"
     inkscape:cx="29.00178"
     inkscape:cy="57.644799"
     inkscape:document-units="mm"
     inkscape:current-layer="layer1"
     showgrid="false"
     fit-margin-top="0"
     fit-margin-left="0"
     fit-margin-right="0"
     fit-margin-bottom="0"
     units="px"
     inkscape:window-width="1920"
     inkscape:window-height="1017"
     inkscape:window-x="-8"
     inkscape:window-y="-8"
     inkscape:window-maximized="1" />
  <metadata
     id="metadata936">
    <rdf:RDF>
      <cc:Work
         rdf:about="">
        <dc:format>image/svg+xml</dc:format>
        <dc:type
           rdf:resource="http://purl.org/dc/dcmitype/StillImage" />
        <dc:title></dc:title>
      </cc:Work>
    </rdf:RDF>
  </metadata>
  <g
     inkscape:label="Layer 1"
     inkscape:groupmode="layer"
     id="layer1"
     transform="translate(-49.993671,-130.35175)">
    <path
       inkscape:connector-curvature="0"
       style="opacity:1;fill:#333333;fill-opacity:1;fill-rule:nonzero;stroke:none;stroke-width:7.00000095;stroke-linecap:square;stroke-linejoin:round;stroke-miterlimit:4;stroke-dasharray:none;stroke-dashoffset:0;stroke-opacity:1;paint-order:markers fill stroke"
       d="m 70.193095,144.68539 a 3.3072917,3.3072917 0 0 1 -3.307292,3.30729 3.3072917,3.3072917 0 0 1 -3.307291,-3.30729 3.3072917,3.3072917 0 0 1 3.307291,-3.30729 3.3072917,3.3072917 0 0 1 3.307292,3.30729 z"
       id="path828-0-1" />
    <path
       style="opacity:1;fill:#333333;fill-opacity:1;fill-rule:nonzero;stroke:none;stroke-width:26.45669556;stroke-linecap:square;stroke-linejoin:round;stroke-miterlimit:4;stroke-dasharray:none;stroke-dashoffset:0;stroke-opacity:1;paint-order:markers fill stroke"
       d="M 32.025391 0 C 18.734319 0 8.0351563 10.699188 8.0351562 23.990234 L 8.0351562 104.00977 C 8.0351562 117.30085 18.734319 128 32.025391 128 L 95.974609 128 C 109.26568 128 119.96484 117.30085 119.96484 104.00977 L 119.96484 23.990234 C 119.96484 10.699188 109.26568 -9.4739031e-015 95.974609 0 L 32.025391 0 z M 63.84375 11.972656 A 42.200884 42.200884 0 0 1 106.04492 54.173828 A 42.200884 42.200884 0 0 1 92.046875 85.5 L 101.0918 88.714844 C 104.74103 90.012242 108.75268 96.300969 105.17773 102.80859 C 101.60273 109.31618 93.961804 109.61824 90.941406 107.19141 L 75.439453 94.736328 A 42.200884 42.200884 0 0 1 63.84375 96.375 A 42.200884 42.200884 0 0 1 21.642578 54.173828 A 42.200884 42.200884 0 0 1 63.84375 11.972656 z M 75.439453 94.736328 A 42.200884 42.200884 0 0 0 92.046875 85.5 L 73.474609 78.896484 C 69.825385 77.599086 66.793578 77.234463 64.927734 80.630859 C 63.061895 84.027256 65.01865 86.362229 68.039062 88.789062 L 75.439453 94.736328 z M 29.142578 94.574219 A 7.5 7.5 0 0 1 36.642578 102.07422 A 7.5 7.5 0 0 1 29.142578 109.57422 A 7.5 7.5 0 0 1 21.642578 102.07422 A 7.5 7.5 0 0 1 29.142578 94.574219 z "
       transform="matrix(0.26458333,0,0,0.26458333,49.993671,130.35175)"
       id="rect826" />
    <circle
       style="opacity:1;fill:#000000;fill-opacity:1;fill-rule:nonzero;stroke:none;stroke-width:7.00000048;stroke-linecap:square;stroke-linejoin:round;stroke-miterlimit:4;stroke-dasharray:none;stroke-dashoffset:0;stroke-opacity:1;paint-order:markers fill stroke"
       id="path828-0-6"
       cx="64.017387"
       cy="147.55382"
       r="0" />
    <circle
       style="opacity:1;fill:#000000;fill-opacity:1;fill-rule:nonzero;stroke:none;stroke-width:7.00000048;stroke-linecap:square;stroke-linejoin:round;stroke-miterlimit:4;stroke-dasharray:none;stroke-dashoffset:0;stroke-opacity:1;paint-order:markers fill stroke"
       id="path828-0-13"
       cx="48.983479"
       cy="143.67841"
       r="0" />
  </g>
</svg>
