<?xml version="1.0" encoding="UTF-8" standalone="no"?>
<!-- Created with Inkscape (http://www.inkscape.org/) -->

<svg
   xmlns:dc="http://purl.org/dc/elements/1.1/"
   xmlns:cc="http://creativecommons.org/ns#"
   xmlns:rdf="http://www.w3.org/1999/02/22-rdf-syntax-ns#"
   xmlns:svg="http://www.w3.org/2000/svg"
   xmlns="http://www.w3.org/2000/svg"
   xmlns:sodipodi="http://sodipodi.sourceforge.net/DTD/sodipodi-0.dtd"
   xmlns:inkscape="http://www.inkscape.org/namespaces/inkscape"
   width="128"
   height="128"
   viewBox="0 0 33.866666 33.866668"
   version="1.1"
   id="svg1839"
   inkscape:version="0.92.2 (5c3e80d, 2017-08-06)"
   sodipodi:docname="signal_ch_sr.svg">
  <defs
     id="defs1833" />
  <sodipodi:namedview
     id="base"
     pagecolor="#ffffff"
     bordercolor="#666666"
     borderopacity="1.0"
     inkscape:pageopacity="0.0"
     inkscape:pageshadow="2"
     inkscape:zoom="5.6"
     inkscape:cx="26.462207"
     inkscape:cy="61.786242"
     inkscape:document-units="mm"
     inkscape:current-layer="layer1"
     showgrid="false"
     units="px"
     inkscape:window-width="1920"
     inkscape:window-height="1017"
     inkscape:window-x="-8"
     inkscape:window-y="-8"
     inkscape:window-maximized="1" />
  <metadata
     id="metadata1836">
    <rdf:RDF>
      <cc:Work
         rdf:about="">
        <dc:format>image/svg+xml</dc:format>
        <dc:type
           rdf:resource="http://purl.org/dc/dcmitype/StillImage" />
        <dc:title></dc:title>
      </cc:Work>
    </rdf:RDF>
  </metadata>
  <g
     inkscape:label="Layer 1"
     inkscape:groupmode="layer"
     id="layer1"
     transform="translate(0,-263.13332)">
    <g
       id="g822"
       transform="matrix(1.0011627,0,0,1.0011627,0.27945152,0.65694852)"
       style="stroke-width:0.99883866">
      <g
         transform="matrix(1.4645334,0,0,1.4645334,-12.709327,-131.08178)"
         id="text4511-54"
         style="font-style:normal;font-variant:normal;font-weight:normal;font-stretch:normal;font-size:23.98888969px;line-height:0%;font-family:'Digital-7 Mono';-inkscape-font-specification:'Digital-7 Mono, Normal';font-variant-ligatures:normal;font-variant-caps:normal;font-variant-numeric:normal;font-feature-settings:normal;text-align:start;letter-spacing:0px;word-spacing:0px;writing-mode:lr-tb;text-anchor:start;fill:#800000;fill-opacity:1;stroke:none;stroke-width:0.18045068px;stroke-linecap:butt;stroke-linejoin:miter;stroke-opacity:1"
         aria-label="R ">
        <path
           inkscape:connector-curvature="0"
           id="path1938"
           style="font-style:normal;font-variant:normal;font-weight:normal;font-stretch:normal;font-size:23.98888969px;font-family:'Open 24 Display St';-inkscape-font-specification:'Open 24 Display St, Normal';font-variant-ligatures:normal;font-variant-caps:normal;font-variant-numeric:normal;font-feature-settings:normal;text-align:start;writing-mode:lr-tb;text-anchor:start;fill:#800000;stroke-width:0.18045068px"
           d="m 23.212354,271.70333 h 6.653169 q 0.05857,0 0.468533,0.46854 0,0.0586 -1.405599,1.4056 H 24.14942 q -0.05857,0 -1.405599,-1.4056 0,-0.0586 0.468533,-0.46854 z m 7.543381,0.46854 q 0.05857,0 0.468533,0.46853 v 6.65317 q 0,0.0586 -0.468533,0.46853 -0.05857,0 -1.405599,-1.4056 v -4.77903 q 0,-0.0586 1.405599,-1.4056 z m -8.480447,0.0469 q 0.05857,0 1.405599,1.4056 v 4.77904 q 0,0.0586 -1.405599,1.40559 -0.05857,0 -0.468533,-0.46853 v -6.65317 q 0,-0.0586 0.468533,-0.46853 z m 1.405599,6.84058 h 5.528689 q 0.05857,0 0.937066,0.93707 v 0.0469 q 0,0.0586 -0.937066,0.93707 h -5.528689 q -0.05857,0 -0.937066,-0.93707 v -0.0469 q 0,-0.0586 0.937066,-0.93707 z m -1.405599,1.21819 q 0.05857,0 1.405599,1.4056 v 5.34127 q 0,0.0586 -1.405599,1.4056 -0.05857,0 -0.468533,-0.46853 v -7.21541 q 0,-0.0586 0.468533,-0.46853 z m 4.68533,1.17133 h 1.358746 q 0.983919,0.50367 1.686719,3.04546 0.187413,0.39826 1.218185,3.32659 -0.234266,0.46853 -0.234266,0.56224 h -0.04685 q -1.920986,-0.69109 -1.920986,-1.12448 -1.405599,-3.99424 -2.155252,-5.76296 z" />
      </g>
      <g
         transform="matrix(1.4645334,0,0,1.4645334,-12.709327,-131.08178)"
         id="text4511-54-8"
         style="font-style:normal;font-variant:normal;font-weight:normal;font-stretch:normal;font-size:23.98888969px;line-height:0%;font-family:'Digital-7 Mono';-inkscape-font-specification:'Digital-7 Mono, Normal';font-variant-ligatures:normal;font-variant-caps:normal;font-variant-numeric:normal;font-feature-settings:normal;text-align:start;letter-spacing:0px;word-spacing:0px;writing-mode:lr-tb;text-anchor:start;fill:#008000;fill-opacity:1;stroke:none;stroke-width:0.18045068px;stroke-linecap:butt;stroke-linejoin:miter;stroke-opacity:1"
         aria-label="S ">
        <path
           inkscape:connector-curvature="0"
           id="path1941"
           style="font-style:normal;font-variant:normal;font-weight:normal;font-stretch:normal;font-size:23.98888969px;font-family:'Open 24 Display St';-inkscape-font-specification:'Open 24 Display St, Normal';font-variant-ligatures:normal;font-variant-caps:normal;font-variant-numeric:normal;font-feature-settings:normal;text-align:start;writing-mode:lr-tb;text-anchor:start;fill:#008000;stroke-width:0.18045068px"
           d="m 10.253982,271.70333 h 6.653169 q 0.05857,0 0.468533,0.46854 0,0.0586 -1.405599,1.4056 h -4.779037 q -0.05857,0 -1.405599,-1.4056 0,-0.0586 0.468533,-0.46854 z m -0.937066,0.51539 q 0.058567,0 1.405599,1.4056 v 4.77904 q 0,0.0586 -1.405599,1.40559 -0.058567,0 -0.4685331,-0.46853 v -6.65317 q 0,-0.0586 0.4685331,-0.46853 z m 1.405599,6.84058 h 5.528689 q 0.05857,0 0.937066,0.93707 v 0.0469 q 0,0.0586 -0.937066,0.93707 h -5.528689 q -0.05857,0 -0.937066,-0.93707 v -0.0469 q 0,-0.0586 0.937066,-0.93707 z m 7.074848,1.26504 q 0.05857,0 0.468533,0.46853 v 6.65317 q 0,0.0586 -0.468533,0.46854 -0.05857,0 -1.405599,-1.4056 v -4.77904 q 0,-0.0586 1.405599,-1.4056 z m -6.653168,6.23149 h 4.779036 q 0.05857,0 1.405599,1.4056 0,0.0586 -0.468533,0.46853 h -6.653168 q -0.05857,0 -0.4685333,-0.46853 0,-0.0586 1.4055993,-1.4056 z" />
      </g>
    </g>
  </g>
</svg>
