<?xml version="1.0" encoding="UTF-8" standalone="no"?>
<!-- Created with Inkscape (http://www.inkscape.org/) -->

<svg
   xmlns:dc="http://purl.org/dc/elements/1.1/"
   xmlns:cc="http://creativecommons.org/ns#"
   xmlns:rdf="http://www.w3.org/1999/02/22-rdf-syntax-ns#"
   xmlns:svg="http://www.w3.org/2000/svg"
   xmlns="http://www.w3.org/2000/svg"
   xmlns:sodipodi="http://sodipodi.sourceforge.net/DTD/sodipodi-0.dtd"
   xmlns:inkscape="http://www.inkscape.org/namespaces/inkscape"
   width="128"
   height="128"
   viewBox="0 0 33.866666 33.866668"
   version="1.1"
   id="svg1839"
   inkscape:version="0.92.2 (5c3e80d, 2017-08-06)"
   sodipodi:docname="temp_sensor.svg">
  <defs
     id="defs1833" />
  <sodipodi:namedview
     id="base"
     pagecolor="#ffffff"
     bordercolor="#666666"
     borderopacity="1.0"
     inkscape:pageopacity="0.0"
     inkscape:pageshadow="2"
     inkscape:zoom="2.8"
     inkscape:cx="-117.98911"
     inkscape:cy="78.659987"
     inkscape:document-units="mm"
     inkscape:current-layer="layer1"
     showgrid="false"
     units="px"
     inkscape:window-width="1920"
     inkscape:window-height="1017"
     inkscape:window-x="-8"
     inkscape:window-y="-8"
     inkscape:window-maximized="1" />
  <metadata
     id="metadata1836">
    <rdf:RDF>
      <cc:Work
         rdf:about="">
        <dc:format>image/svg+xml</dc:format>
        <dc:type
           rdf:resource="http://purl.org/dc/dcmitype/StillImage" />
        <dc:title />
      </cc:Work>
    </rdf:RDF>
  </metadata>
  <g
     inkscape:label="Layer 1"
     inkscape:groupmode="layer"
     id="layer1"
     transform="translate(0,-263.13332)">
    <path
       style="opacity:1;fill:#b3b3b3;fill-opacity:1;fill-rule:nonzero;stroke:none;stroke-width:3;stroke-linecap:square;stroke-linejoin:round;stroke-miterlimit:4;stroke-dasharray:none;stroke-dashoffset:0;stroke-opacity:1;paint-order:markers fill stroke"
       d="m 16.462493,264.63054 c -1.910108,0 -3.447922,1.53079 -3.447922,3.43216 v 15.25031 a 6.6084628,6.5782684 0 0 0 -3.1608007,5.60628 6.6084628,6.5782684 0 0 0 6.6087227,6.57792 6.6084628,6.5782684 0 0 0 6.608102,-6.57792 6.6084628,6.5782684 0 0 0 -3.160182,-5.60257 V 268.0627 c 0,-1.90137 -1.537814,-3.43216 -3.44792,-3.43216 z"
       id="rect2407-9-6"
       inkscape:connector-curvature="0" />
    <g
       id="g2493"
       transform="matrix(0.96503677,0,0,0.96861915,0.34451963,8.7859464)"
       style="stroke-width:1.03431201;stroke:none">
      <path
         inkscape:connector-curvature="0"
         id="rect2407-9"
         d="m 16.701927,264.13332 c -1.979311,0 -3.57284,1.58038 -3.57284,3.54335 v 15.74439 a 6.847887,6.7913879 0 0 0 -3.2753166,5.78791 6.847887,6.7913879 0 0 0 6.8481566,6.79102 6.847887,6.7913879 0 0 0 6.847513,-6.79102 6.847887,6.7913879 0 0 0 -3.274675,-5.78408 v -15.74822 c 0,-1.96297 -1.593529,-3.54335 -3.572838,-3.54335 z"
         style="opacity:1;fill:none;fill-opacity:1;fill-rule:nonzero;stroke:none;stroke-width:3.10293579;stroke-linecap:square;stroke-linejoin:round;stroke-miterlimit:4;stroke-dasharray:none;stroke-dashoffset:0;stroke-opacity:1;paint-order:markers fill stroke" />
      <path
         sodipodi:nodetypes="cccccccc"
         inkscape:connector-curvature="0"
         id="rect2407-9-9"
         d="m 13.129087,275.61417 v 7.80689 c -2.032739,1.2328 -3.27321,3.42488 -3.275317,5.78791 2.05e-4,3.75074 3.066213,6.79117 6.848157,6.79102 3.781693,-2e-4 6.847308,-3.04053 6.847513,-6.79102 -0.0033,-2.36154 -1.243353,-4.55183 -3.274675,-5.78408 v -7.81072 z"
         style="opacity:1;fill:#aa0000;fill-opacity:1;fill-rule:nonzero;stroke:none;stroke-width:3.10293579;stroke-linecap:square;stroke-linejoin:round;stroke-miterlimit:4;stroke-dasharray:none;stroke-dashoffset:0;stroke-opacity:1;paint-order:markers fill stroke" />
    </g>
  </g>
</svg>
